<?xml version="1.0" encoding="UTF-8" standalone="no"?>
<!-- Generator: Adobe Illustrator 27.5.0, SVG Export Plug-In . SVG Version: 6.00 Build 0)  -->

<svg
   version="1.1"
   x="0px"
   y="0px"
   viewBox="0 0 1600 600"
   xml:space="preserve"
   id="svg272"
   sodipodi:docname="clubs-people.svg"
   inkscape:version="1.3.2 (091e20e, 2023-11-25, custom)"
   width="1600"
   height="600"
   xmlns:inkscape="http://www.inkscape.org/namespaces/inkscape"
   xmlns:sodipodi="http://sodipodi.sourceforge.net/DTD/sodipodi-0.dtd"
   xmlns:xlink="http://www.w3.org/1999/xlink"
   xmlns="http://www.w3.org/2000/svg"
   xmlns:svg="http://www.w3.org/2000/svg"><defs
   id="defs272" /><sodipodi:namedview
   id="namedview272"
   pagecolor="#ffffff"
   bordercolor="#000000"
   borderopacity="0.25"
   inkscape:showpageshadow="2"
   inkscape:pageopacity="0.0"
   inkscape:pagecheckerboard="0"
   inkscape:deskcolor="#d1d1d1"
   inkscape:zoom="0.35807292"
   inkscape:cx="660.48"
   inkscape:cy="121.48364"
   inkscape:window-width="1920"
   inkscape:window-height="1009"
   inkscape:window-x="-8"
   inkscape:window-y="351"
   inkscape:window-maximized="1"
   inkscape:current-layer="OBJECTS" />
<g
   id="OBJECTS"
   transform="translate(-2.0504872,-351.50664)">
	
	<g
   id="g259"
   transform="matrix(1.0402312,0,0,1.0402312,-214.01398,-171.91518)">
		<defs
   id="defs13">
			<rect
   id="SVGID_00000123409487067468263170000009085431994105830542_"
   width="1920"
   height="1080"
   x="0"
   y="0" />
		</defs>
		<clipPath
   id="SVGID_00000111162240505135089900000010939540529940016801_">
			<use
   xlink:href="#SVGID_00000123409487067468263170000009085431994105830542_"
   style="overflow:visible"
   id="use13" />
		</clipPath>
		<g
   clip-path="url(#SVGID_00000111162240505135089900000010939540529940016801_)"
   id="g258">
			<g
   id="g56">
				<g
   id="g26">
					<g
   id="g17">
						<path
   style="fill:#e27769"
   d="m 417.327,1387.426 -18.904,66.899 c 0,0 107.578,30.365 108.403,30.598 0.824,0.233 21.092,-74.651 21.092,-74.651"
   id="path13" />
						<g
   id="g16">
							<path
   style="fill:#f8e3d0"
   d="m 514.56,1472.841 -114.687,-32.372 -18.147,64.293 188.333,53.16 c 0,0 1.468,-20.747 -10.556,-35.859 -14.647,-18.41 -39.373,-31.887 -44.943,-49.222 z"
   id="path14" />
							
								<line
   style="fill:none;stroke:#000000;stroke-width:1.5;stroke-miterlimit:10"
   x1="385.12"
   y1="1492.735"
   x2="569.10999"
   y2="1544.6689"
   id="line14" />
							
								<line
   style="fill:none;stroke:#000000;stroke-width:1.5;stroke-miterlimit:10"
   x1="528.02399"
   y1="1490.906"
   x2="499.896"
   y2="1490.8979"
   id="line15" />
							
								<line
   style="fill:none;stroke:#000000;stroke-width:1.5;stroke-miterlimit:10"
   x1="542.04901"
   y1="1502.796"
   x2="507.80399"
   y2="1503.689"
   id="line16" />
						</g>
						<path
   style="fill:none;stroke:#000000;stroke-width:1.5;stroke-miterlimit:10"
   d="m 392.69,1465.916 c 0,0 18.901,5.335 24.639,6.955 5.737,1.619 27.938,14.259 24.559,35.888"
   id="path16" />
					</g>
					<path
   style="fill:#4f302b"
   d="m 533.336,944.842 c 0,0 4.125,21.279 5.567,34.038 1.442,12.759 24.197,172.442 25.945,222.978 1.748,50.536 -40.056,266.545 -40.056,266.545 l -106.168,-18.198 20.103,-242.12 -23.053,-190.689 c 0,0 -9.72,-27.213 2.949,-82.049"
   id="path17" />
					<g
   id="g22">
						<path
   style="fill:#e27769"
   d="m 341.276,1453.021 -0.02,69.518 c 0,0 111.781,0 112.638,0 0.857,0 0.02,-77.574 0.02,-77.574"
   id="path18" />
						<g
   id="g21">
							<path
   style="fill:#f8e3d0"
   d="M 458.055,1508.811 H 338.887 v 66.805 h 195.692 c 0,0 -4.223,-20.366 -19.9,-31.643 -19.097,-13.738 -46.555,-19.991 -56.624,-35.162 z"
   id="path19" />
							
								<line
   style="fill:none;stroke:#000000;stroke-width:1.5;stroke-miterlimit:10"
   x1="338.88699"
   y1="1563.12"
   x2="530.06598"
   y2="1563.12"
   id="line19" />
							
								<line
   style="fill:none;stroke:#000000;stroke-width:1.5;stroke-miterlimit:10"
   x1="475.92001"
   y1="1522.54"
   x2="448.84799"
   y2="1530.173"
   id="line20" />
							
								<line
   style="fill:none;stroke:#000000;stroke-width:1.5;stroke-miterlimit:10"
   x1="492.64801"
   y1="1530.173"
   x2="459.93301"
   y2="1540.334"
   id="line21" />
						</g>
						<path
   style="fill:none;stroke:#000000;stroke-width:1.5;stroke-miterlimit:10"
   d="m 338.887,1535.253 c 0,0 19.64,0 25.601,0 5.961,0 30.761,6.133 33.384,27.867"
   id="path21" />
					</g>
					<path
   style="fill:#4f302b"
   d="m 337.137,910.88 c 0,0 -15.7,63.616 -9.755,139.916 4.056,52.05 12.66,151.061 12.66,151.061 l -3.165,290.977 h 132.976 c 0.545,-2.963 4.153,-154.019 0.676,-287.968 -2.927,-112.752 -12.997,-212.265 -12.997,-212.265 0,0 6.848,-69.086 6.797,-73.577"
   id="path22" />
					<path
   style="fill:none;stroke:#7f4f4a;stroke-width:1.5;stroke-miterlimit:10"
   d="m 356.502,910.88 c 0,0 -15.7,63.616 -9.755,139.916 4.055,52.05 12.66,151.061 12.66,151.061 l -3.165,290.977"
   id="path23" />
					<path
   style="fill:none;stroke:#000000;stroke-width:1.5;stroke-miterlimit:10"
   d="m 469.852,1492.835 c 0.545,-2.963 4.153,-154.019 0.676,-287.968 -2.927,-112.752 -12.997,-212.265 -12.997,-212.265 0,0 6.848,-69.086 6.797,-73.577"
   id="path24" />
					<path
   style="fill:none;stroke:#7f4f4a;stroke-width:1.5;stroke-miterlimit:10"
   d="m 345.911,993.2 c 23.145,-6.797 43.901,-20.612 51.713,-35.02 8.262,-15.239 17.15,-47.299 17.15,-47.299"
   id="path25" />
					<path
   style="fill:none;stroke:#000000;stroke-width:1.5;stroke-miterlimit:10"
   d="m 458.284,984.924 c 4.421,0.26 8.975,-0.843 11.909,-4.049 2.934,-3.207 6.266,-16.178 9.117,-23.756 3.343,-8.888 6.686,-17.775 10.029,-26.663"
   id="path26" />
				</g>
				<g
   id="g42">
					<path
   style="fill:#915a56"
   d="m 499.585,700.663 c 15.467,1.803 24.495,1.076 43.438,5.965 34.826,8.988 64.795,69.84 64.795,69.84 l -50.282,68.014 -37.063,-63.863"
   id="path27" />
					<path
   style="fill:#915a56"
   d="m 534.265,740.953 2.254,224.507 -215.082,-16.993 c 0,0 8.927,-130.176 35.994,-184.447 27.067,-54.271 64.543,-70.401 64.543,-70.401 l 89.717,14.902 z"
   id="path28" />
					<path
   style="fill:#d16159"
   d="m 491.705,658.888 -0.592,40.377 8.473,6.326 c 0,0 0.475,22.433 -30.477,22.433 -30.952,0 -52.753,-28.812 -52.753,-28.812 l 8.738,-5.661 6.015,-34.076 -5.762,-23.742"
   id="path29" />
					<polygon
   style="fill:none;stroke:#754443;stroke-width:1.5;stroke-miterlimit:10"
   points="480.511,729.94 483.516,794.822 467.333,794.822 464.328,729.94 "
   id="polygon29" />
					<path
   style="fill:none;stroke:#754443;stroke-width:1.5;stroke-miterlimit:10"
   d="m 476.64,744.901 c 0,1.874 -1.519,3.394 -3.394,3.394 -1.875,0 -3.394,-1.519 -3.394,-3.394 0,-1.874 1.519,-3.394 3.394,-3.394 1.875,0 3.394,1.52 3.394,3.394 z"
   id="path30" />
					<path
   style="fill:none;stroke:#754443;stroke-width:1.5;stroke-miterlimit:10"
   d="m 477.316,762.381 c 0,1.874 -1.519,3.394 -3.394,3.394 -1.875,0 -3.394,-1.519 -3.394,-3.394 0,-1.874 1.519,-3.394 3.394,-3.394 1.875,0 3.394,1.52 3.394,3.394 z"
   id="path31" />
					<path
   style="fill:none;stroke:#754443;stroke-width:1.5;stroke-miterlimit:10"
   d="m 477.992,779.862 c 0,1.874 -1.519,3.394 -3.394,3.394 -1.875,0 -3.394,-1.519 -3.394,-3.394 0,-1.874 1.519,-3.394 3.394,-3.394 1.875,0 3.394,1.519 3.394,3.394 z"
   id="path32" />
					<path
   style="fill:#915a56"
   d="m 388.614,794.383 -39.979,26.432 -43.8,-87.716 c 0,0 41.136,-20.392 52.75,-26.471 27.726,-14.512 53.879,-12.534 70.916,-11.925"
   id="path33" />
					<path
   style="fill:#d16159"
   d="m 329.203,661.976 -4.242,111.598 19.996,39.571 c 0,0 -28.741,22.614 -47.833,29.554 -9.581,3.483 -64.301,8.234 -51.362,-54.107 12.939,-62.34 30.19,-133.728 30.19,-133.728 z"
   id="path34" />
					<g
   id="g39">
						<path
   style="fill:#d16159"
   d="m 328.199,673.286 c 2.424,-6.48 4.619,-13.056 6.578,-19.709 1.89,-6.419 3.176,-13.069 5.206,-19.422 0.501,-1.567 1.135,-3.081 1.77,-4.593 2.309,-5.508 4.646,-11.066 8.04,-15.906 0.452,-0.645 0.93,-1.29 1.174,-2.05 0.244,-0.76 0.211,-1.673 -0.29,-2.276 -0.52,-0.626 -1.388,-0.763 -2.177,-0.753 -3.275,0.042 -6.293,1.888 -8.839,4.066 -1.639,1.402 -3.148,2.96 -4.754,4.402 -1.33,1.194 -2.686,2.654 -4.376,3.177 -0.496,-15.34 4.183,-30.281 6.226,-45.477 0.418,-3.112 -1.334,-8.672 -3.733,-8.59 -3.173,0.108 -7.752,23.054 -12.286,34.746 0.294,-7.299 0.567,-15.023 2.014,-22.185 1.003,-4.964 1.474,-10.08 0.887,-15.137 -0.33,-2.838 -1.691,-9.061 -5.47,-5.828 -1.115,0.954 -1.671,2.441 -2.151,3.87 -3.718,11.083 -4.679,22.749 -7.827,34.026 -0.549,-10.712 1.906,-21.976 -2.003,-31.876 -0.381,-0.965 -0.875,-1.967 -1.753,-2.448 -1.336,-0.732 -2.671,-0.547 -3.523,0.763 -0.852,1.311 -1.055,2.958 -1.234,4.537 -1.313,11.58 -3.009,23.804 -4.323,35.384 -0.861,-5.469 -0.557,-11.057 -0.761,-16.596 -0.204,-5.54 -0.981,-11.247 -3.741,-15.961 -0.888,-1.517 -2.735,-3.041 -4.071,-1.952 -0.647,0.527 -0.888,1.451 -0.967,2.309 -2.401,25.818 -5.93,48.436 -8.934,73.65 -1.383,11.611 -4.72,24.736 -7.069,36.2"
   id="path35" />
						<path
   style="fill:none;stroke:#000000;stroke-width:1.5;stroke-miterlimit:10"
   d="m 326.844,674.418 c 0.837,-3.12 2.123,-6.106 3.8,-8.821"
   id="path36" />
						<path
   style="fill:none;stroke:#000000;stroke-width:1.5;stroke-miterlimit:10"
   d="m 294.447,605.462 c 1.973,6.735 4.723,13.232 6.638,19.983 1.915,6.752 1.55,16.772 0.08,23.733"
   id="path37" />
						<path
   style="fill:none;stroke:#000000;stroke-width:1.5;stroke-miterlimit:10"
   d="m 327.83,622.309 c -7.577,7.69 -12.948,17.775 -15.237,28.61"
   id="path38" />
						
							<line
   style="fill:none;stroke:#000000;stroke-width:1.5;stroke-miterlimit:10"
   x1="308.51099"
   y1="595.62402"
   x2="307.04999"
   y2="606.159"
   id="line38" />
						<path
   style="fill:none;stroke:#000000;stroke-width:1.5;stroke-miterlimit:10"
   d="m 320.834,597.854 c -1.015,3.329 -1.779,6.743 -2.282,10.201"
   id="path39" />
					</g>
					<polygon
   style="fill:#915a56"
   points="407.658,694.325 425.738,682.38 470.008,725.765 491.705,693.551 505.373,700.663 503.182,746.274 471.483,733.719 443.906,754.557 "
   id="polygon39" />
					<polyline
   style="fill:none;stroke:#000000;stroke-width:1.5;stroke-miterlimit:10"
   points="505.373,700.663 503.182,746.274        471.483,733.719 443.906,754.557 407.658,694.325      "
   id="polyline39" />
					
						<line
   style="fill:none;stroke:#000000;stroke-width:1.5;stroke-miterlimit:10"
   x1="324.961"
   y1="773.57397"
   x2="323.37299"
   y2="806.87402"
   id="line39" />
					
						<line
   style="fill:none;stroke:#754443;stroke-width:1.5;stroke-miterlimit:10"
   x1="330.64401"
   y1="720.25098"
   x2="374.16599"
   y2="803.935"
   id="line40" />
					<path
   style="fill:none;stroke:#000000;stroke-width:1.5;stroke-miterlimit:10"
   d="m 537.834,752.965 c -3.49,25.349 1.069,69.573 1.069,69.573"
   id="path40" />
					
						<line
   style="fill:none;stroke:#000000;stroke-width:1.5;stroke-miterlimit:10"
   x1="348.63501"
   y1="820.815"
   x2="402.005"
   y2="787.05499"
   id="line41" />
					
						<line
   style="fill:none;stroke:#754443;stroke-width:1.5;stroke-miterlimit:10"
   x1="324.16699"
   y1="926.33502"
   x2="535.88898"
   y2="946.61798"
   id="line42" />
				</g>
				<g
   id="g54">
					<path
   style="fill:#d16159"
   d="m 489.689,578.956 c 8.709,5.282 13.715,14.976 16.126,24.762 2.004,8.136 1.752,42.652 1.105,50.537 -0.832,10.141 -7.323,22.105 -18.074,26.259 -12.324,4.763 -26.616,-0.281 -37.954,-9.451 -15.931,-12.884 -25.072,-33.08 -24.133,-53.93 0.146,-3.233 0.621,-6.453 1.436,-9.595 4.038,-15.569 17.156,-28.936 32.963,-33.131 8.642,-2.293 21.114,0.051 28.531,4.549 z"
   id="path42" />
					<path
   style="fill:#fcddd2"
   d="m 528.997,575.829 c -4.944,1.78 -9.888,3.56 -14.831,5.34 2.538,-5.602 4.266,-11.731 3.757,-17.86 -5.464,3.951 -11.802,6.685 -18.425,7.948 2.662,-3.025 3.537,-7.515 2.206,-11.318 -9.004,2.628 -18.531,2.683 -27.91,2.638 -9.379,-0.044 -18.884,-0.154 -27.972,2.166 -9.088,2.32 -17.874,7.412 -22.558,15.538 -2.052,3.562 -3.266,7.594 -5.639,10.95 -2.854,4.035 -7.287,6.954 -9.296,11.469 -1.179,2.651 -1.404,5.616 -1.544,8.515 -0.152,3.157 -0.221,6.329 0.108,9.473 1.242,11.869 6.921,28.639 23.105,45.073 l 6.623,-25.518 c 2.95,-0.635 -0.107,-9.488 0.895,-12.334 2.525,-7.173 0.604,-15.219 2.453,-22.594 0.396,-1.579 1.119,-3.286 2.631,-3.895 1.835,-0.738 4.458,1.116 6.211,1.744 2.535,0.907 5.116,1.688 7.729,2.339 13.224,3.296 33.466,5.588 42.362,-7.722 6.632,4.281 8.085,16.799 8.085,16.799 0,0 3.275,-2.4 4.008,-3.126 1.639,-1.622 3.278,-3.245 4.917,-4.867 2.702,-2.674 5.209,-5.45 7.228,-8.688 4.087,-6.555 6.281,-14.334 5.857,-22.07 z"
   id="path43" />
					<g
   id="g46">
						<path
   style="fill:#d16159"
   d="m 445.575,632.102 c -1.682,-6.111 -11.192,-8.828 -16.149,-5.489 -11.92,8.03 -1.553,30.394 11.201,29.559 3.608,-0.236 8.212,-2.847 8.443,-7.059"
   id="path44" />
						
							<line
   style="fill:none;stroke:#000000;stroke-width:1.5;stroke-miterlimit:10"
   x1="431.12601"
   y1="637.32599"
   x2="444.98199"
   y2="644.67999"
   id="line44" />
						<path
   style="fill:none;stroke:#000000;stroke-width:1.5;stroke-miterlimit:10"
   d="m 437.869,625.994 c 3.163,0.956 6.031,2.931 8.113,5.586"
   id="path45" />
						<path
   style="fill:none;stroke:#000000;stroke-width:1.5;stroke-miterlimit:10"
   d="m 426.83,647.881 c 2.961,4.594 7.758,9.035 13.45,8.555 3.949,-0.333 7.871,-3.094 8.427,-7.42"
   id="path46" />
					</g>
					<path
   style="fill:none;stroke:#000000;stroke-width:1.5;stroke-miterlimit:10"
   d="m 453.376,674.326 c 1.598,1.046 3.198,2.093 4.871,3.015 11.695,6.446 23.596,5.874 32.866,2.97"
   id="path47" />
					<path
   style="fill:none;stroke:#000000;stroke-width:1.5;stroke-miterlimit:10"
   d="m 487.151,627.95 c 0,0 4.948,12.699 5.793,19.472 0.498,3.991 -5.824,2.808 -8.595,3.051"
   id="path48" />
					<path
   style="fill:none;stroke:#000000;stroke-width:1.5;stroke-miterlimit:10"
   d="m 493.079,622.534 c 2.235,-1.59 5.052,-2.343 7.783,-2.079 2.73,0.264 5.351,1.543 7.24,3.532"
   id="path49" />
					<path
   style="fill:none;stroke:#000000;stroke-width:1.5;stroke-miterlimit:10"
   d="m 454.619,625.848 c 2.695,-2.425 6.221,-3.91 9.839,-4.142 3.618,-0.233 7.305,0.788 10.288,2.848"
   id="path50" />
					<ellipse
   cx="499.14999"
   cy="634.323"
   rx="2.4679999"
   ry="3.723"
   id="ellipse50" />
					<ellipse
   cx="467.03"
   cy="634.39099"
   rx="2.4679999"
   ry="3.723"
   id="ellipse51" />
					<path
   style="fill:#ffffff"
   d="m 491.705,657.185 -15.414,-2.612 c 0,0 -1.266,9.121 4.806,10.821 8.768,2.455 10.608,-8.209 10.608,-8.209 z"
   id="path51" />
					<path
   style="fill:none;stroke:#e0b1a2;stroke-miterlimit:10"
   d="m 499.418,598.137 c 3.2,-3.453 6.771,-7.182 8.683,-11.892"
   id="path52" />
					<path
   style="fill:none;stroke:#e0b1a2;stroke-miterlimit:10"
   d="m 504.157,603.252 c 5.267,-2.561 10.023,-6.167 13.91,-10.549"
   id="path53" />
					<path
   style="fill:none;stroke:#e0b1a2;stroke-miterlimit:10"
   d="m 485.626,578.026 c 5.368,-1.572 10.416,-4.23 14.748,-7.768"
   id="path54" />
				</g>
				<path
   style="fill:none;stroke:#000000;stroke-width:1.5;stroke-miterlimit:10"
   d="m 234.107,737.18 c -7.257,20.032 -10.624,41.465 -9.857,62.757"
   id="path55" />
				<path
   style="fill:none;stroke:#000000;stroke-width:1.5;stroke-miterlimit:10"
   d="m 228.922,714.369 c -6.592,11.794 -11.084,24.759 -13.201,38.103"
   id="path56" />
			</g>
			<g
   id="g97">
				<g
   id="g71">
					<g
   id="g61">
						<path
   style="fill:#e27769"
   d="m 1487.408,1391.758 25.021,43.329 c 0,0 -69.683,40.213 -70.217,40.521 -0.534,0.308 -27.919,-48.351 -27.919,-48.351"
   id="path57" />
						<g
   id="g60">
							<path
   style="fill:#2c221d"
   d="m 1434.68,1468.547 74.287,-42.87 24.033,41.645 -121.992,70.4 c 0,0 -4.694,-14.215 1.022,-26.885 6.963,-15.434 21.83,-29.21 22.65,-42.29 z"
   id="path58" />
							
								<line
   style="fill:none;stroke:#000000;stroke-width:1.5;stroke-miterlimit:10"
   x1="1528.505"
   y1="1459.532"
   x2="1409.326"
   y2="1528.309"
   id="line58" />
							
								<line
   style="fill:none;stroke:#000000;stroke-width:1.5;stroke-miterlimit:10"
   x1="1428.481"
   y1="1483.532"
   x2="1448.104"
   y2="1478.552"
   id="line59" />
							
								<line
   style="fill:none;stroke:#000000;stroke-width:1.5;stroke-miterlimit:10"
   x1="1420.799"
   y1="1494.309"
   x2="1444.849"
   y2="1488.874"
   id="line60" />
						</g>
						<path
   style="fill:none;stroke:#000000;stroke-width:1.5;stroke-miterlimit:10"
   d="m 1518.48,1442.161 c 0,0 -12.243,7.065 -15.96,9.21 -3.716,2.145 -16.97,14.89 -10.786,29.382"
   id="path60" />
					</g>
					<g
   id="g65">
						<path
   style="fill:#e27769"
   d="m 1583.924,1463.669 0.015,50.035 c 0,0 -80.454,0 -81.07,0 -0.617,0 -0.015,-55.833 -0.015,-55.833"
   id="path61" />
						<g
   id="g64">
							<path
   style="fill:#2c221d"
   d="m 1499.873,1503.823 h 85.77 v 48.082 h -140.848 c 0,0 3.04,-14.658 14.323,-22.775 13.746,-9.887 33.508,-14.388 40.755,-25.307 z"
   id="path62" />
							
								<line
   style="fill:none;stroke:#000000;stroke-width:1.5;stroke-miterlimit:10"
   x1="1585.6429"
   y1="1542.911"
   x2="1448.0439"
   y2="1542.911"
   id="line62" />
							
								<line
   style="fill:none;stroke:#000000;stroke-width:1.5;stroke-miterlimit:10"
   x1="1487.015"
   y1="1513.704"
   x2="1506.5"
   y2="1519.198"
   id="line63" />
							
								<line
   style="fill:none;stroke:#000000;stroke-width:1.5;stroke-miterlimit:10"
   x1="1474.975"
   y1="1519.198"
   x2="1498.521"
   y2="1526.512"
   id="line64" />
						</g>
						<path
   style="fill:none;stroke:#000000;stroke-width:1.5;stroke-miterlimit:10"
   d="m 1585.643,1522.854 c 0,0 -14.135,0 -18.426,0 -4.291,0 -22.14,4.414 -24.028,20.057"
   id="path64" />
					</g>
					<path
   style="fill:#774935"
   d="m 1398.773,968.812 c 0,0 -60.253,147.022 -59.845,253.392 0.239,62.365 85.813,237.82 85.813,237.82 l 77.522,-55.134 -63.636,-199.556 69.716,-249.641"
   id="path65" />
					<path
   style="fill:#774935"
   d="m 1489.019,973.963 c 0,0 -33.681,207.542 -25.725,285.157 3.455,33.701 15.448,234.862 15.448,234.862 l 109.376,-10.889 -16.829,-260.873 c 0,0 10.889,-113.316 16.829,-146.974 5.94,-33.657 9.16,-75.661 1.241,-115.733"
   id="path66" />
					<path
   style="fill:none;stroke:#000000;stroke-width:1.5;stroke-miterlimit:10"
   d="m 1563.892,1485.505 -16.323,-263.285 c 0,0 12.995,-113.316 20.083,-146.974 7.088,-33.657 10.932,-75.661 1.481,-115.733"
   id="path67" />
					<path
   style="fill:none;stroke:#000000;stroke-width:1.5;stroke-miterlimit:10"
   d="m 1487.157,972.352 -6.182,51.006 c 0,0 -11.606,-8.232 -11.606,-10.735 0,-2.503 0,-38.659 0,-38.659"
   id="path68" />
					<path
   style="fill:none;stroke:#000000;stroke-width:1.5;stroke-miterlimit:10"
   d="m 1528.107,985.747 c 0,0 0,28.801 46.016,43.377"
   id="path69" />
					<path
   style="fill:none;stroke:#000000;stroke-width:1.5;stroke-miterlimit:10"
   d="m 1385.6,1007.435 c 0,0 31.006,-1.319 48.508,-30.715"
   id="path70" />
					
						<line
   style="fill:none;stroke:#000000;stroke-width:1.5;stroke-miterlimit:10"
   x1="1480.976"
   y1="1023.358"
   x2="1474.844"
   y2="1075.65"
   id="line70" />
					
						<line
   style="fill:none;stroke:#000000;stroke-width:1.5;stroke-miterlimit:10"
   x1="1465.807"
   y1="1290.567"
   x2="1474.522"
   y2="1424.619"
   id="line71" />
				</g>
				<g
   id="g81">
					<path
   style="fill:#a04c38"
   d="m 1458.041,665.45 -1.265,34.966 -35.54,11.151 c 0,0 8.602,32.804 63.772,26.806 55.17,-5.998 68.131,-28.948 68.131,-28.948 l -32.007,-6.653 -9.118,-38.931 -0.921,-11.969"
   id="path71" />
					<path
   style="fill:#a04c38"
   d="m 1453.982,601.919 c -7.299,5.589 -10.845,14.775 -12.053,23.79 -1.004,7.495 2.589,38.44 3.939,45.451 1.736,9.018 8.727,19.119 18.778,21.798 11.522,3.071 23.853,-2.849 33.132,-12.182 13.037,-13.114 19.268,-32.126 16.392,-50.742 -0.446,-2.887 -1.187,-5.73 -2.224,-8.469 -5.142,-13.575 -18.216,-24.288 -32.808,-26.51 -7.978,-1.215 -18.94,2.104 -25.156,6.864 z"
   id="path72" />
					<path
   style="fill:#2c221d"
   d="m 1432.478,608.394 c 0,0 -3.461,-8.728 1.576,-19.842 3.106,-6.854 9.793,-10.291 17.078,-11.641 4.656,-0.863 10.089,0.934 14.127,2.898 4.48,-8.147 14.645,-11.453 23.941,-11.595 5.048,-0.077 10.201,0.591 14.75,2.781 2.81,1.353 6.691,3.467 8.69,5.913 2.723,3.332 4.476,7.591 5.115,11.827 -0.063,-0.418 4.874,0.162 5.473,0.321 10.486,2.776 17.72,14.521 15.113,25.126 -0.24,0.976 -1.577,7.002 -4.683,10.576 4.198,1.918 7.082,6.416 7.073,11.032 -0.01,4.616 -2.91,9.103 -7.116,11.005 -0.329,0.149 -0.684,0.298 -0.891,0.594 -0.336,0.481 -0.157,1.135 0.023,1.694 0.842,2.599 1.425,5.581 0.061,7.948 -0.646,1.121 -1.667,1.975 -2.721,2.727 -5.148,3.676 -11.618,5.457 -17.922,4.934 -1.736,-0.144 -2.581,-7.882 -2.677,-9.224 -0.342,-4.745 -0.688,-9.489 -1.031,-14.234 -3.606,-0.567 -6.915,-2.799 -8.793,-5.929 -1.878,-3.13 -2.288,-7.1 -1.091,-10.549 0.01,-0.024 0.017,-0.049 0.026,-0.073 0.996,-2.816 -1.4,-5.573 -4.321,-4.951 -4.18,0.89 -8.539,0.947 -12.734,0.128 -1.84,-0.359 -3.705,-0.911 -5.151,-2.104 -0.767,-0.633 -1.361,-1.634 -1.821,-2.783 -1.091,-2.726 -4.769,-3.135 -6.567,-0.814 -0.019,0.025 -0.038,0.049 -0.057,0.073 -2.224,2.844 -5.813,4.431 -9.413,4.688 -1.704,0.122 -3.409,-0.032 -5.079,-0.391 -2.451,-0.528 -4.664,1.454 -4.582,3.959 0.046,1.401 -0.089,2.782 -0.564,4.1 -1.945,5.39 -6.554,5.774 -6.554,5.774 l 0.664,9.662 c 0,0 -10.701,-1.606 -11.708,-1.922 -7.021,-2.207 -11.057,-7.394 -11.082,-15.03 -0.038,-10.809 12.848,-16.678 12.848,-16.678 z"
   id="path73" />
					<g
   id="g76">
						<path
   style="fill:#a04c38"
   d="m 1502.512,647.791 c 1.221,-5.589 9.661,-8.496 14.289,-5.725 11.13,6.662 2.865,27.317 -8.669,27.18 -3.264,-0.039 -7.538,-2.169 -7.95,-5.955"
   id="path74" />
						
							<line
   style="fill:none;stroke:#000000;stroke-width:1.5;stroke-miterlimit:10"
   x1="1515.786"
   y1="651.80298"
   x2="1503.6541"
   y2="659.09802"
   id="line74" />
						<path
   style="fill:none;stroke:#000000;stroke-width:1.5;stroke-miterlimit:10"
   d="m 1509.163,641.915 c -2.805,1.014 -5.294,2.932 -7.042,5.426"
   id="path75" />
						<path
   style="fill:none;stroke:#000000;stroke-width:1.5;stroke-miterlimit:10"
   d="m 1520.167,661.108 c -2.447,4.283 -6.556,8.517 -11.709,8.359 -3.575,-0.11 -7.242,-2.408 -7.952,-6.281"
   id="path76" />
					</g>
					<path
   style="fill:none;stroke:#000000;stroke-width:1.5;stroke-miterlimit:10"
   d="m 1457.138,690.403 c 4.939,2.849 10.318,4.407 15.519,4.362 11.105,-0.098 21.028,-6.613 27.526,-16.562"
   id="path77" />
					<path
   style="fill:none;stroke:#000000;stroke-width:1.5;stroke-miterlimit:10"
   d="m 1466.362,642.878 c -0.398,5.988 -0.796,11.977 -1.194,17.965 -0.049,0.736 -0.091,1.51 0.208,2.174 0.527,1.168 1.88,1.565 3.08,1.77 1.923,0.329 3.871,0.497 5.819,0.502"
   id="path78" />
					<path
   style="fill:none;stroke:#000000;stroke-width:1.5;stroke-miterlimit:10"
   d="m 1478.308,635.095 c 2.425,-1.569 6.863,-3.723 10.407,-2.714 3.294,0.938 5.714,3.477 8.012,5.88"
   id="path79" />
					<path
   style="fill:none;stroke:#000000;stroke-width:1.5;stroke-miterlimit:10"
   d="m 1462.448,635.293 c -5.622,-4.482 -11.675,-3.105 -17.268,0.416"
   id="path80" />
					<ellipse
   cx="1486.365"
   cy="644.68402"
   rx="2.6099999"
   ry="3.681"
   id="ellipse80" />
					<ellipse
   cx="1453.813"
   cy="645.59601"
   rx="2.6099999"
   ry="3.681"
   id="ellipse81" />
					<path
   style="fill:#ffffff"
   d="m 1483.755,668.149 -19.247,2.214 c 0,0 1.861,9.024 9.59,7.815 9.657,-1.511 9.657,-10.029 9.657,-10.029 z"
   id="path81" />
				</g>
				<g
   id="g96">
					<path
   style="fill:#a04c38"
   d="m 1405.21,708.538 -99.032,21.509 -85.773,-26.745 -19.138,38.314 c 0,0 58.822,66.446 109.074,60.287 16.432,-2.014 109.286,-19.635 109.286,-19.635"
   id="path82" />
					<path
   style="fill:#2c221d"
   d="m 1454.003,798.112 c -28.534,-0.49 -51.289,10.324 -78.091,10.432 l -17.778,-91.796 c 28.147,-8.21 40.017,-13.046 58.478,-15.713 10.022,-1.448 25.036,-1.265 37.201,0"
   id="path83" />
					<path
   style="fill:#2c221d"
   d="m 1576.488,716.414 c 0,0 10.576,14.605 17.123,68.622 6.547,54.017 6.547,204.839 6.547,204.839 L 1385.6,977.583 c 6.452,-67.408 21.14,-189.448 26.193,-221.916 5.053,-32.468 42.021,-54.632 42.021,-54.632 0,0 0,13.599 24.847,14.901 29.877,1.565 42.47,-13.162 42.47,-13.162 z"
   id="path84" />
					<g
   id="g87">
						<path
   style="fill:#2c221d"
   d="m 1521.13,702.773 c 9.181,0.135 21.622,1.217 33.429,1.828 8.671,0.449 23.684,3.578 31.269,8.604 7.352,4.871 14.311,9.756 18.777,17.566 10.625,18.579 35.53,69.935 35.53,69.935 l -73.106,44.912 -23.372,-59.442"
   id="path85" />
						
							<line
   style="fill:none;stroke:#63493e;stroke-width:1.5;stroke-miterlimit:10"
   x1="1567.0291"
   y1="845.61902"
   x2="1543.658"
   y2="786.177"
   id="line85" />
						
							<line
   style="fill:none;stroke:#63493e;stroke-width:1.5;stroke-miterlimit:10"
   x1="1556.927"
   y1="819.92401"
   x2="1629.173"
   y2="778.37701"
   id="line86" />
						<path
   style="fill:#a04c38"
   d="m 1625.38,732.883 c 0,1.205 -29.307,94.893 -29.307,94.893 l -21.323,13.1 c 0,0 9.835,22.945 17.712,32.184 7.877,9.239 24.382,17.674 37.885,15.666 13.504,-2.008 30.008,-17.272 36.01,-53.825 5.393,-32.845 7.997,-82.072 13.314,-97.216 5.317,-15.144 -54.291,-6.007 -54.291,-4.802 z"
   id="path86" />
						
							<line
   style="fill:none;stroke:#000000;stroke-width:1.5;stroke-miterlimit:10"
   x1="1596.073"
   y1="827.776"
   x2="1590.719"
   y2="849.88098"
   id="line87" />
					</g>
					<g
   id="g91">
						<path
   style="fill:#a04c38"
   d="m 1621.917,740.892 c 0.498,-6.901 1.246,-13.792 2.239,-20.657 0.958,-6.622 2.563,-13.203 3.367,-19.823 0.198,-1.633 0.253,-3.274 0.307,-4.912 0.198,-5.969 0.391,-11.995 -0.675,-17.81 -0.142,-0.774 -0.307,-1.56 -0.212,-2.352 0.095,-0.792 0.506,-1.609 1.213,-1.948 0.734,-0.352 1.58,-0.115 2.292,0.223 2.959,1.404 4.933,4.341 6.339,7.382 0.905,1.957 0.84,4.736 1.698,6.716 0.711,1.64 -0.777,8.495 2.486,7.002 3.263,-1.493 9.778,-32.289 14.258,-46.953 0.917,-3.003 4.829,-7.325 6.975,-6.251 2.839,1.421 -2.568,24.186 -3.322,36.704 2.776,-6.757 5.749,-13.891 7.421,-21.004 1.159,-4.93 2.863,-9.776 5.506,-14.128 1.483,-2.442 5.316,-7.53 7.402,-3.016 0.616,1.332 0.501,2.915 0.341,4.414 -1.242,11.624 -5.233,22.628 -7.075,34.19 4.966,-9.507 7.432,-20.769 15.113,-28.137 0.749,-0.718 1.616,-1.423 2.614,-1.494 1.519,-0.108 2.656,0.617 2.884,2.163 0.227,1.547 -0.275,3.129 -0.771,4.638 -3.635,11.073 -11.44,35.674 -11.44,35.674 0,0 5.856,-10.112 8.351,-15.062 2.495,-4.95 5.457,-11.23 9.931,-14.364 1.44,-1.008 3.754,-1.624 4.514,-0.077 0.368,0.749 0.201,1.689 -0.084,2.502 -8.583,24.468 -14.808,46.497 -22.591,70.667 -3.584,11.13 -6.025,24.451 -8.67,35.85"
   id="path87" />
						<path
   style="fill:none;stroke:#000000;stroke-width:1.5;stroke-miterlimit:10"
   d="m 1622.677,742.486 c 0.54,-3.185 0.616,-6.435 0.224,-9.602"
   id="path88" />
						<path
   style="fill:none;stroke:#000000;stroke-width:1.5;stroke-miterlimit:10"
   d="m 1683.401,686.616 c -1.637,4.248 -4.918,11.136 -8.07,14.419 -3.07,3.198 -7.594,6.484 -10.481,9.856 -4.514,5.273 -6.782,12.485 -8.308,19.362"
   id="path89" />
						<path
   style="fill:none;stroke:#000000;stroke-width:1.5;stroke-miterlimit:10"
   d="m 1643.51,694.712 c 3.68,10.149 4.356,21.555 1.919,32.357"
   id="path90" />
						
							<line
   style="fill:none;stroke:#000000;stroke-width:1.5;stroke-miterlimit:10"
   x1="1672.197"
   y1="678.51501"
   x2="1669.132"
   y2="688.69897"
   id="line90" />
						<path
   style="fill:none;stroke:#000000;stroke-width:1.5;stroke-miterlimit:10"
   d="m 1660.067,675.403 c -0.466,3.449 -1.195,6.871 -2.179,10.223"
   id="path91" />
					</g>
					<path
   style="fill:none;stroke:#63493e;stroke-width:1.5;stroke-miterlimit:10"
   d="m 1405.139,805.082 c 0,0 5.935,-47.681 6.978,-59.972"
   id="path92" />
					
						<line
   style="fill:none;stroke:#63493e;stroke-width:1.5;stroke-miterlimit:10"
   x1="1391.467"
   y1="807.586"
   x2="1374.073"
   y2="712.79102"
   id="line92" />
					<path
   style="fill:none;stroke:#63493e;stroke-width:1.5;stroke-miterlimit:10"
   d="m 1441.648,699.769 c 0.543,11.709 6.339,23.215 18.19,26.839"
   id="path93" />
					<path
   style="fill:none;stroke:#63493e;stroke-width:1.5;stroke-miterlimit:10"
   d="m 1466.496,728.631 c 12.925,2.559 26.507,1.62 38.988,-2.582 12.145,-4.089 22.229,-11.94 30.684,-21.448"
   id="path94" />
					<path
   style="fill:none;stroke:#63493e;stroke-width:1.5;stroke-miterlimit:10"
   d="m 1430.701,919.134 c 36.027,-10.885 69.113,-31.346 94.944,-58.716"
   id="path95" />
					<path
   style="fill:none;stroke:#63493e;stroke-width:1.5;stroke-miterlimit:10"
   d="m 1434.108,885.313 c 19.922,0.325 39.9,-3.265 58.463,-10.504"
   id="path96" />
				</g>
			</g>
			<g
   id="g144">
				<g
   id="g111">
					<g
   id="g101">
						<path
   style="fill:#e27769"
   d="m 1268.657,1450.167 0.013,45.284 c 0,0 -72.814,0 -73.372,0 -0.558,0 -0.013,-50.531 -0.013,-50.531"
   id="path97" />
						<g
   id="g100">
							<path
   style="fill:#f8e3d0"
   d="m 1192.588,1486.509 h 77.626 v 43.516 H 1142.74 c 0,0 2.751,-13.266 12.963,-20.612 12.44,-8.949 30.325,-13.022 36.885,-22.904 z"
   id="path98" />
							
								<line
   style="fill:none;stroke:#000000;stroke-width:1.5;stroke-miterlimit:10"
   x1="1270.213"
   y1="1521.885"
   x2="1145.6801"
   y2="1521.885"
   id="line98" />
							
								<line
   style="fill:none;stroke:#000000;stroke-width:1.5;stroke-miterlimit:10"
   x1="1180.95"
   y1="1495.451"
   x2="1198.585"
   y2="1500.423"
   id="line99" />
							
								<line
   style="fill:none;stroke:#000000;stroke-width:1.5;stroke-miterlimit:10"
   x1="1170.054"
   y1="1500.423"
   x2="1191.364"
   y2="1507.043"
   id="line100" />
						</g>
						<path
   style="fill:none;stroke:#000000;stroke-width:1.5;stroke-miterlimit:10"
   d="m 1270.213,1503.733 c 0,0 -12.793,0 -16.677,0 -3.884,0 -20.038,3.995 -21.746,18.152"
   id="path100" />
					</g>
					<g
   id="g105">
						<path
   style="fill:#e27769"
   d="m 1383.252,1450.167 0.013,45.284 c 0,0 -72.814,0 -73.372,0 -0.558,0 -0.013,-50.531 -0.013,-50.531"
   id="path101" />
						<g
   id="g104">
							<path
   style="fill:#f8e3d0"
   d="m 1307.182,1486.509 h 77.626 v 43.516 h -127.473 c 0,0 2.751,-13.266 12.963,-20.612 12.439,-8.949 30.325,-13.022 36.884,-22.904 z"
   id="path102" />
							
								<line
   style="fill:none;stroke:#000000;stroke-width:1.5;stroke-miterlimit:10"
   x1="1384.808"
   y1="1521.885"
   x2="1260.274"
   y2="1521.885"
   id="line102" />
							
								<line
   style="fill:none;stroke:#000000;stroke-width:1.5;stroke-miterlimit:10"
   x1="1295.545"
   y1="1495.451"
   x2="1313.1801"
   y2="1500.423"
   id="line103" />
							
								<line
   style="fill:none;stroke:#000000;stroke-width:1.5;stroke-miterlimit:10"
   x1="1284.6479"
   y1="1500.423"
   x2="1305.959"
   y2="1507.043"
   id="line104" />
						</g>
						<path
   style="fill:none;stroke:#000000;stroke-width:1.5;stroke-miterlimit:10"
   d="m 1384.808,1503.733 c 0,0 -12.793,0 -16.677,0 -3.883,0 -20.038,3.995 -21.746,18.152"
   id="path104" />
					</g>
					<path
   style="fill:#572a2f"
   d="m 1186.76,891.9 -2.988,21.43 c 0,0 -21.015,45.354 -21.495,102.001 -0.48,56.647 23.582,453.721 23.582,453.721 h 86.832 l -1.852,-475.245 c 0,0 2.989,-78.603 -4.561,-103.332"
   id="path105" />
					<path
   style="fill:#572a2f"
   d="m 1248.225,890.474 c 0,122.386 57.954,578.577 57.954,578.577 h 82.427 c 0,0 -13.652,-361.785 -22.524,-448.044 -5.545,-53.912 -23.005,-87.543 -37.014,-107.678 l -9.935,-23.578"
   id="path106" />
					<path
   style="fill:none;stroke:#754844;stroke-width:1.5;stroke-miterlimit:10"
   d="m 1370.123,1469.051 c 0,0 -10.647,-361.785 -19.519,-448.044 -5.253,-51.071 -23.224,-86.925 -37.012,-107.678 l -7.413,-24.305"
   id="path107" />
					<path
   style="fill:none;stroke:#754844;stroke-width:1.5;stroke-miterlimit:10"
   d="m 1281.296,912.951 c 0,0 1.602,24.782 19.165,45.225 17.563,20.443 42.355,20.687 42.355,20.687"
   id="path108" />
					
						<line
   style="fill:none;stroke:#754844;stroke-width:1.5;stroke-miterlimit:10"
   x1="1258.2889"
   y1="912.95099"
   x2="1256.42"
   y2="892.97302"
   id="line108" />
					<circle
   style="fill:none;stroke:#754844;stroke-width:1.5;stroke-miterlimit:10"
   cx="1243.989"
   cy="901.66199"
   r="3.5669999"
   id="circle108" />
					<path
   style="fill:none;stroke:#000000;stroke-width:1.5;stroke-miterlimit:10"
   d="m 1271.429,1145.297 c 0,0 -22.52,-168.853 -23.873,-232.347"
   id="path109" />
					<path
   style="fill:none;stroke:#000000;stroke-width:1.5;stroke-miterlimit:10"
   d="m 1228.862,913.33 c 0,0 6.134,63.055 8.379,66.719 2.245,3.664 16.071,11.126 16.071,11.126"
   id="path110" />
					<path
   style="fill:none;stroke:#754844;stroke-width:1.5;stroke-miterlimit:10"
   d="m 1166.911,976.721 c 0,0 17.716,-1.3 31.218,-14.419 13.502,-13.119 14.531,-48.972 14.531,-48.972"
   id="path111" />
					
						<line
   style="fill:none;stroke:#000000;stroke-width:1.5;stroke-miterlimit:10"
   x1="1183.772"
   y1="913.33002"
   x2="1329.068"
   y2="913.33002"
   id="line111" />
				</g>
				<g
   id="g123">
					<path
   style="fill:#ffc36c"
   d="m 1217.649,701.035 c -26.987,-4.579 -53.804,8.609 -69.646,26.495 -15.161,17.117 -48.781,62.267 -48.781,62.267 l 57.227,42.157 41.681,-61.389"
   id="path112" />
					<path
   style="fill:#ffc36c"
   d="m 1181.077,747.616 c -9.836,26.002 -14.888,41.461 -8.537,68.526 1.442,6.145 3.717,12.066 5.283,18.181 5.479,21.389 8.937,57.577 8.937,57.577 l 134.56,1.073 c 0,0 -6.586,-31.261 -3.878,-45.895 1.627,-8.789 11.485,-61.937 8.835,-79.607 -2.65,-17.67 -28.271,-66.437 -28.271,-66.437 h -85.256 z"
   id="path113" />
					<path
   style="fill:#ffc36c"
   d="m 1292.272,692.766 c 3.979,1.836 7.957,3.672 11.936,5.507 10.214,4.713 20.568,9.514 29.151,16.786 16.435,13.926 24.964,29.523 26.91,50.976 1.946,21.454 -5.632,70.356 -5.632,70.356 l -72.587,-17.12 12.225,-70.623"
   id="path114" />
					
						<line
   style="fill:none;stroke:#000000;stroke-width:1.5;stroke-miterlimit:10"
   x1="1293.5081"
   y1="753.08197"
   x2="1282.05"
   y2="819.27197"
   id="line114" />
					
						<line
   style="fill:none;stroke:#000000;stroke-width:1.5;stroke-miterlimit:10"
   x1="1357.255"
   y1="817.19"
   x2="1283.985"
   y2="802.25598"
   id="line115" />
					<path
   style="fill:#e89274"
   d="m 1316.912,827.495 c 0,0 -25.28,-30.506 -32.17,-54.531 -6.89,-24.025 -42.222,15.794 -42.222,15.794 0,0 24.501,59.728 36.443,81.637 10.041,18.422 23.182,31.343 44.241,26.778 24.321,-5.273 28.338,-62.113 28.338,-62.113 z"
   id="path115" />
					<path
   style="fill:none;stroke:#000000;stroke-width:1.5;stroke-miterlimit:10"
   d="m 1171.138,809.22 c -3.416,-21.201 -0.431,-43.391 8.465,-62.936"
   id="path116" />
					
						<line
   style="fill:none;stroke:#000000;stroke-width:1.5;stroke-miterlimit:10"
   x1="1166.472"
   y1="817.19"
   x2="1110.722"
   y2="774.52399"
   id="line116" />
					
						<line
   style="fill:none;stroke:#000000;stroke-width:1.5;stroke-miterlimit:10"
   x1="1316.912"
   y1="827.495"
   x2="1333.35"
   y2="854.80499"
   id="line117" />
					<path
   style="fill:none;stroke:#000000;stroke-width:1.5;stroke-miterlimit:10"
   d="m 1210.856,878.593 c 8.128,1.393 16.203,3.068 24.278,4.744 12.714,2.638 25.429,5.276 38.143,7.915"
   id="path117" />
					<path
   style="fill:none;stroke:#000000;stroke-width:1.5;stroke-miterlimit:10"
   d="m 1223.926,813.817 c 4.632,6.442 10.508,11.986 17.208,16.236"
   id="path118" />
					<g
   id="g122">
						<path
   style="fill:#a04c38"
   d="m 1151.691,734.833 c -0.415,-6.286 0.517,-12.659 2.717,-18.562 0.681,-1.828 1.937,-3.916 3.886,-3.828 0.825,0.037 1.617,0.488 2.435,0.374 0.129,-1.83 0.524,-3.749 1.765,-5.099 1.241,-1.35 3.546,-1.852 4.924,-0.641 0.117,0.103 0.234,0.221 0.387,0.257 0.367,0.086 0.64,-0.322 0.804,-0.661 0.893,-1.845 2.159,-3.559 3.885,-4.664 1.726,-1.105 3.954,-1.531 5.874,-0.814 0.405,0.151 0.837,0.354 1.251,0.228 0.357,-0.108 0.596,-0.432 0.818,-0.732 0.879,-1.188 1.895,-2.309 3.17,-3.057 1.275,-0.748 3.863,-0.973 5.278,-0.545 0.697,0.211 2.137,0.74 2.759,1.119 1.49,0.91 2.16,1.766 3.651,2.676 l -3.888,0.928 c 0,0 -2.119,18.406 -6.027,26.747 -1.044,2.228 -2.237,4.424 -3.927,6.213 -1.69,1.789 -3.936,3.151 -6.387,3.367 -0.263,0.023 -0.55,0.027 -0.763,-0.129 -0.23,-0.169 -0.305,-0.473 -0.365,-0.753 -0.187,-0.878 -0.375,-1.755 -0.562,-2.633 -0.604,1.69 -1.238,3.418 -2.4,4.787 -1.162,1.369 -3.625,2.503 -4.74,1.967 -1.115,-0.536 -0.667,-2.66 -0.846,-4.13 -1.082,2.873 -3.656,4.693 -6.723,4.844 -0.354,0.017 -0.723,0.008 -1.041,-0.149 -1.354,-0.667 -1.316,-4.145 -1.316,-4.145 0,0 -2.217,1.74 -3.26,0.834 -1.044,-0.908 -1.267,-2.421 -1.359,-3.799 z"
   id="path119" />
						<path
   style="fill:none;stroke:#000000;stroke-width:1.5;stroke-miterlimit:10"
   d="m 1179.68,703.169 c -2.541,9.989 -4.232,20.194 -5.049,30.468"
   id="path120" />
						<path
   style="fill:none;stroke:#000000;stroke-width:1.5;stroke-miterlimit:10"
   d="m 1168.288,708.538 c -1.151,5.139 -1.936,10.322 -2.349,15.512 -0.358,4.507 -0.435,9.016 -0.513,13.522"
   id="path121" />
						<path
   style="fill:none;stroke:#000000;stroke-width:1.5;stroke-miterlimit:10"
   d="m 1160.418,712.645 c -2.735,7.815 -3.125,17.709 -4.107,25.15"
   id="path122" />
					</g>
				</g>
				<g
   id="g136">
					<path
   style="fill:#e89274"
   d="m 1222.799,687.57 0.14,10.046 -18.939,2.261 c 0,0 -10.178,19.606 31.982,19.606 42.16,0 55.149,-17.148 55.149,-17.148 l -10.828,-0.805 -0.929,-23.433 0.585,-18.596"
   id="path123" />
					<path
   style="fill:#632334"
   d="m 1199.919,624.874 c -0.066,9.576 -2.774,19.121 -7.748,27.304 -2.374,3.905 -5.262,7.528 -7.087,11.717 -2.803,6.433 -2.847,14.016 -0.119,20.481 1.16,2.749 2.814,5.366 3.173,8.327 0.382,3.146 -0.745,6.25 -1.566,9.311 -1.122,4.185 -1.688,8.496 -2.186,12.799 -0.729,6.302 -1.287,12.878 0.918,18.827 2.568,6.928 8.993,12.28 16.272,13.551 7.279,1.271 15.138,-1.583 19.903,-7.23 5.431,-6.436 6.563,-15.743 4.488,-23.905 -0.589,-2.317 -1.412,-4.576 -1.849,-6.926 -0.533,-2.865 -0.482,-5.802 -0.429,-8.715 0.106,-5.868 0.212,-11.736 0.318,-17.604"
   id="path124" />
					<path
   style="fill:#e89274"
   d="m 1219.25,598.409 c -7.902,4.698 -12.497,13.407 -14.75,22.219 -1.873,7.326 -1.92,38.479 -1.399,45.6 0.671,9.159 6.433,20.007 16.103,23.842 11.084,4.396 21.002,-0.053 31.307,-8.239 14.481,-11.501 25.911,-29.643 25.23,-48.467 -0.106,-2.919 -0.509,-5.829 -1.22,-8.671 -3.521,-14.083 -15.253,-26.25 -29.485,-30.162 -7.782,-2.138 -19.056,-0.122 -25.786,3.878 z"
   id="path125" />
					<path
   style="fill:none;stroke:#000000;stroke-width:1.5;stroke-miterlimit:10"
   d="m 1222.697,642.79 c 0.069,4.413 -1.125,8.838 -3.404,12.617 -0.577,0.956 -1.228,1.885 -1.591,2.941 -0.363,1.057 -0.398,2.296 0.221,3.227 0.345,0.519 0.863,0.899 1.404,1.209 1.32,0.757 2.845,1.155 4.367,1.139"
   id="path126" />
					<path
   style="fill:#ffffff"
   d="m 1232.692,665.277 -10.864,2.692 c 0.317,5.168 2.865,9.473 7.925,8.238 5.03,-1.226 3.824,-6.867 2.939,-10.93 z"
   id="path127" />
					<path
   style="fill:#632334"
   d="m 1267.468,667.79 c -0.064,4.23 -0.158,8.675 -1.296,12.732 -1.349,4.813 -2.949,9.556 -4.126,14.417 -1.507,6.225 -2.315,12.762 -0.982,19.027 1.079,5.072 3.517,9.765 4.739,14.804 0.595,2.455 0.898,4.982 0.899,7.508 10e-4,3.25 -0.477,6.623 0.676,9.662 0.704,1.856 1.974,3.445 3.378,4.848 5.394,5.384 13.157,8.117 20.726,7.792 3.785,-0.162 7.216,-1.568 10.882,-2.115 4.026,-0.601 7.803,-2.701 10.332,-5.956 2.084,-2.682 3.183,-5.978 4.246,-9.204 2.031,-6.165 3.124,-11.529 2.324,-18.079 -0.658,-5.385 -1.972,-10.694 -2.251,-16.112 -0.301,-5.85 0.611,-11.695 0.656,-17.553 0.081,-10.559 -4.734,-16.106 -9.921,-24.619 -5.813,-9.542 -7.875,-20.701 -10.142,-31.479 -2.321,-11.03 -5.31,-21.396 -11.5,-31.04 -4.603,-7.172 -10.794,-13.48 -18.421,-17.284 -4.189,-2.09 -26.325,-9.372 -36.325,3.195 -16.621,-1.892 -31.705,14.611 -33.286,21.96 -3.329,15.475 5.234,21.387 5.234,21.387 0.87,-7.129 1.589,-15.579 7.538,-20.52 5.499,-4.568 11.995,-7.578 19.274,-7.455 0.328,0.289 0.998,18.553 29.729,41.054 6.172,4.668 7.748,14.365 7.617,23.03 z"
   id="path128" />
					<path
   style="fill:none;stroke:#000000;stroke-width:1.5;stroke-miterlimit:10"
   d="m 1229.741,636.766 c 1.984,-2.412 6.446,-3.238 10.376,-2.559 3.93,0.678 7.376,2.591 10.3,4.726"
   id="path129" />
					<path
   style="fill:none;stroke:#000000;stroke-width:1.5;stroke-miterlimit:10"
   d="m 1204,638.414 c 2.9,-6.111 9.526,-3.894 12.827,-1.235"
   id="path130" />
					<path
   d="m 1246.176,647.342 c -0.202,2.273 -1.566,4.009 -3.048,3.878 -1.481,-0.132 -2.519,-2.081 -2.317,-4.354 0.202,-2.273 1.566,-4.009 3.047,-3.878 1.482,0.132 2.52,2.081 2.318,4.354 z"
   id="path131" />
					<path
   d="m 1214.313,644.629 c -0.202,2.273 -1.566,4.009 -3.047,3.878 -1.482,-0.132 -2.519,-2.081 -2.317,-4.354 0.202,-2.273 1.566,-4.009 3.048,-3.878 1.481,0.132 2.518,2.081 2.316,4.354 z"
   id="path132" />
					<g
   id="g135">
						<path
   style="fill:#e89274"
   d="m 1258.682,649.365 c 1.339,-5.561 9.839,-8.289 14.408,-5.421 10.986,6.897 2.285,27.372 -9.244,26.99 -3.262,-0.108 -7.49,-2.329 -7.822,-6.122"
   id="path133" />
						
							<line
   style="fill:none;stroke:#000000;stroke-width:1.5;stroke-miterlimit:10"
   x1="1271.868"
   y1="653.65802"
   x2="1259.584"
   y2="660.69397"
   id="line133" />
						<path
   style="fill:none;stroke:#000000;stroke-width:1.5;stroke-miterlimit:10"
   d="m 1265.455,643.632 c -2.825,0.954 -5.355,2.819 -7.155,5.275"
   id="path134" />
						<path
   style="fill:none;stroke:#000000;stroke-width:1.5;stroke-miterlimit:10"
   d="m 1276.05,663.054 c -2.538,4.23 -6.736,8.376 -11.883,8.109 -3.572,-0.186 -7.189,-2.561 -7.817,-6.448"
   id="path135" />
					</g>
					<path
   style="fill:none;stroke:#000000;stroke-width:1.5;stroke-miterlimit:10"
   d="m 1223.207,691.873 c 12.204,2.722 24.128,-5.297 31.537,-13.259"
   id="path136" />
				</g>
				<g
   id="g142">
					<path
   style="fill:#e89274"
   d="m 1289.329,794.286 c -6.202,-25.975 2.851,-53.295 -0.156,-79.831 -2.065,-0.741 -3.629,1.901 -4.241,4.009 -1.398,4.816 -2.795,9.631 -4.193,14.447 -1.818,-7.071 -0.199,-14.522 -0.379,-21.821 -0.033,-1.335 -0.776,-3.157 -2.047,-2.749 -0.527,0.169 -0.844,0.692 -1.114,1.175 -0.724,1.296 -1.449,2.593 -2.173,3.889 0.389,-2.275 0.462,-4.604 0.218,-6.899 -0.075,-0.703 -0.251,-1.507 -0.88,-1.828 -1.072,-0.547 -3.89,2.004 -4.385,3.1 -1.763,3.904 -2.505,7.213 -4.268,11.117 0.041,-2.478 0.838,-5.599 0.879,-8.077 0.016,-0.95 -0.037,-2.049 -0.797,-2.62 -1.215,-0.914 -2.865,0.353 -3.747,1.592 -6.872,9.659 -7.811,25.772 -8.913,30.947 -1.101,5.175 -3.831,8.943 -3.831,8.943 0,0 -1.89,-2.776 -2.036,-4.501 -0.253,-2.986 -1.835,-6.679 -3.251,-9.321 -1.416,-2.642 -4.081,-4.665 -5.872,-4.225 -1.791,0.44 -0.45,7.953 0.057,11.925 1.014,7.954 1.487,15.977 1.415,23.995 -0.052,5.869 -0.393,11.791 0.658,17.566 1.602,8.803 6.533,16.958 13.584,22.466"
   id="path137" />
					<path
   style="fill:none;stroke:#000000;stroke-width:1.5;stroke-miterlimit:10"
   d="m 1281.296,730.995 c 0,0 -1.363,10.258 -3.154,15.504 -0.46,1.349 -3.422,5.175 -4.15,6.4 -0.786,1.322 -1.838,2.461 -2.821,3.644 -4.689,5.643 -7.89,12.511 -9.197,19.731"
   id="path138" />
					<path
   style="fill:none;stroke:#000000;stroke-width:1.5;stroke-miterlimit:10"
   d="m 1274.758,713.27 c -1.527,3.025 -1.928,6.475 -2.303,9.842 -0.817,7.331 -1.623,14.664 -2.419,21.998"
   id="path139" />
					<path
   style="fill:none;stroke:#000000;stroke-width:1.5;stroke-miterlimit:10"
   d="m 1265.86,718.59 c -1.717,9.303 -3.435,18.606 -5.152,27.909"
   id="path140" />
					<path
   style="fill:none;stroke:#000000;stroke-width:1.5;stroke-miterlimit:10"
   d="m 1249.369,749.646 c -1.272,2.318 -2.482,4.67 -3.626,7.054"
   id="path141" />
					<path
   style="fill:none;stroke:#000000;stroke-width:1.5;stroke-miterlimit:10"
   d="m 1244.681,797.198 c 3.473,4.084 5.496,9.171 7.461,14.159"
   id="path142" />
				</g>
				<path
   style="fill:none;stroke:#000000;stroke-width:1.5;stroke-miterlimit:10"
   d="m 1137.212,712.191 c 9.098,-8.103 19.098,-15.193 29.756,-21.096"
   id="path143" />
				<path
   style="fill:none;stroke:#000000;stroke-width:1.5;stroke-miterlimit:10"
   d="m 1148.39,685.502 c 6.985,-4.553 14.643,-8.07 22.648,-10.403"
   id="path144" />
			</g>
			<g
   id="g194">
				<g
   id="g146">
					<path
   style="fill:#e27769"
   d="m 665.023,1520.352 c 0,0 11.697,-217.438 18.085,-281.981 5.747,-58.068 -6.388,-148.536 -6.388,-148.536 l -97.539,22.104 14.922,123.381 -7.868,299.429"
   id="path145" />
					<path
   style="fill:#19181e"
   d="m 668.375,1507.784 c 6.263,34.624 61.859,39.248 64.643,58.311 0,0 -60.934,0 -76.124,0 -15.19,0 -27.901,-19.266 -43.708,-19.266 l -4.995,19.266 H 578.1 l 6.677,-58.311 z"
   id="path146" />
				</g>
				<g
   id="g148">
					<path
   style="fill:#e27769"
   d="m 763.935,1520.352 c 0,0 11.697,-217.438 18.085,-281.981 5.747,-58.068 -6.388,-148.536 -6.388,-148.536 l -97.539,22.104 14.922,123.381 -7.868,299.429"
   id="path147" />
					<path
   style="fill:#19181e"
   d="m 767.287,1507.784 c 6.263,34.624 61.859,39.248 64.643,58.311 0,0 -60.934,0 -76.124,0 -15.19,0 -27.901,-19.266 -43.708,-19.266 l -4.995,19.266 h -30.091 l 6.677,-58.311 z"
   id="path148" />
				</g>
				<g
   id="g156">
					<path
   style="fill:#4c4139"
   d="m 604.706,919.23 c 0,0 -29.503,38.036 -34.145,106.479 -4.641,68.444 4.3,178.065 4.3,178.065 h 214.417 c 0,0 0,-148.468 -13.402,-215.443 -9.704,-48.493 -27.725,-69.102 -27.725,-69.102"
   id="path149" />
					<path
   style="fill:none;stroke:#776152;stroke-miterlimit:10"
   d="M 609.671,940.17"
   id="path150" />
					<path
   style="fill:none;stroke:#776152;stroke-width:1.5;stroke-miterlimit:10"
   d="m 605.24,940.17 c 0,0 -17.183,58.589 -13.822,121.332 3.361,62.743 6.693,142.272 6.693,142.272"
   id="path151" />
					<path
   style="fill:none;stroke:#776152;stroke-width:1.5;stroke-miterlimit:10"
   d="m 624.873,940.17 c 0,0 -9.492,58.589 -6.132,121.332 3.361,62.743 6.693,142.272 6.693,142.272"
   id="path152" />
					<path
   style="fill:none;stroke:#776152;stroke-width:1.5;stroke-miterlimit:10"
   d="m 643.411,988.854 c -1.099,18.92 -1.438,40.304 -0.031,62.158 4.336,67.37 8.635,152.763 8.635,152.763"
   id="path153" />
					<path
   style="fill:none;stroke:#776152;stroke-width:1.5;stroke-miterlimit:10"
   d="m 672.489,1101.085 c 3.098,53.294 5.586,102.69 5.586,102.69"
   id="path154" />
					
						<line
   style="fill:none;stroke:#000000;stroke-width:1.5;stroke-miterlimit:10"
   x1="592.44397"
   y1="940.16998"
   x2="760.45898"
   y2="940.16998"
   id="line154" />
					
						<line
   style="fill:none;stroke:#000000;stroke-width:1.5;stroke-miterlimit:10"
   x1="630.24902"
   y1="940.16998"
   x2="699.44501"
   y2="1203.775"
   id="line155" />
					<path
   style="fill:none;stroke:#000000;stroke-width:1.5;stroke-miterlimit:10"
   d="m 642.935,940.229 c 22.317,21.122 47.856,38.834 75.46,52.332"
   id="path155" />
					<path
   style="fill:none;stroke:#000000;stroke-width:1.5;stroke-miterlimit:10"
   d="m 661.321,939.582 c 25.56,8.396 52.161,13.62 78.998,15.512"
   id="path156" />
				</g>
				<g
   id="g172">
					<g
   id="g158">
						<path
   style="fill:#bf524f"
   d="m 697.469,659.841 c 0.949,-5.577 9.154,-8.838 13.854,-6.314 11.302,6.07 4.087,26.856 -7.315,27.251 -3.226,0.112 -7.547,-1.797 -8.128,-5.517"
   id="path157" />
						
							<line
   style="fill:none;stroke:#000000;stroke-width:1.5;stroke-miterlimit:10"
   x1="710.76703"
   y1="663.19501"
   x2="699.117"
   y2="670.96002"
   id="line157" />
						<path
   style="fill:none;stroke:#000000;stroke-width:1.5;stroke-miterlimit:10"
   d="m 703.769,653.73 c -2.724,1.131 -5.096,3.14 -6.707,5.684"
   id="path158" />
						<polygon
   style="fill:none;stroke:#ffc36c;stroke-width:1.5;stroke-linejoin:round;stroke-miterlimit:10"
   points="713.526,697.042 701.112,696.594 706.521,676.813 "
   id="polygon158" />
					</g>
					<path
   style="fill:#d16159"
   d="m 692.625,700.794 -0.23,16.492 38.851,5.069 c 0,0 3.692,31.122 -51.803,31.122 -55.495,0 -77.929,-30.304 -77.929,-30.304 l 29.879,-7.487 5.035,-28.072 -0.962,-14.891"
   id="path159" />
					<path
   style="fill:#d16159"
   d="m 685.987,611.07 c 8.493,3.825 14.116,12.067 17.393,20.681 2.725,7.161 6.338,38.519 6.628,45.748 0.373,9.297 -4.186,20.879 -13.482,25.847 -10.656,5.695 -21.15,2.35 -32.462,-4.711 -15.895,-9.921 -29.479,-26.878 -30.948,-45.906 -0.228,-2.951 -0.155,-5.927 0.235,-8.869 1.932,-14.581 12.351,-28.174 26.232,-33.741 7.59,-3.046 19.171,-2.306 26.404,0.951 z"
   id="path160" />
					<path
   style="fill:none;stroke:#000000;stroke-width:1.5;stroke-miterlimit:10"
   d="m 689.808,656.03 c -0.497,4.444 0.279,9.023 2.213,13.055 0.489,1.021 1.056,2.02 1.32,3.121 0.264,1.101 0.179,2.354 -0.535,3.233 -0.398,0.49 -0.958,0.824 -1.533,1.084 -1.405,0.636 -2.981,0.889 -4.514,0.726"
   id="path161" />
					<path
   style="fill:#ffffff"
   d="m 679.811,679.403 11.091,2.783 c -1.536,5.017 -5.091,11.106 -9.784,8.691 -4.664,-2.4 -3.141,-7.681 -1.307,-11.474 z"
   id="path162" />
					<path
   style="fill:#2c221d"
   d="m 636.427,687.615 c -0.253,0.064 -0.512,-0.062 -0.742,-0.186 -7.592,-4.09 -13.379,-8.992 -17.135,-16.743 -6.538,-13.493 -8.903,-28.877 -2.254,-42.818 5.615,-11.774 16.773,-22.409 29.384,-26.293 17.277,-5.322 30.954,-4.878 46.083,6.059 10.886,7.87 15.405,23.677 13.905,33.718 -1.156,-4.535 -3.484,-7.322 -5.141,-9.351 -3.445,-4.219 -6.932,-8.292 -12.161,-10.207 -4.998,-1.831 -10.595,-1.949 -15.714,-0.55 -8.032,2.196 -13.695,7.081 -17.816,14.346 -4.887,8.615 -3.655,19.598 -8.533,28.357 -0.911,1.636 -3.501,2.876 -4.111,4.646 -0.849,2.465 0.058,4.507 -0.05,6.952 -0.188,4.281 -2.73,8.252 -5.166,11.6 -0.146,0.198 -0.31,0.41 -0.549,0.47 z"
   id="path163" />
					<path
   style="fill:none;stroke:#000000;stroke-width:1.5;stroke-miterlimit:10"
   d="m 680.271,649.363 c -2.274,-2.201 -6.86,-2.522 -10.739,-1.389 -3.879,1.133 -7.129,3.453 -9.828,5.937"
   id="path164" />
					<path
   style="fill:none;stroke:#000000;stroke-width:1.5;stroke-miterlimit:10"
   d="m 705.92,649.599 c -3.619,-5.821 -10.036,-2.83 -13.055,0.225"
   id="path165" />
					<path
   d="m 670.295,659.644 c 0.463,2.265 2.036,3.857 3.512,3.555 1.476,-0.302 2.298,-2.383 1.834,-4.648 -0.463,-2.265 -2.036,-3.857 -3.512,-3.555 -1.475,0.301 -2.297,2.382 -1.834,4.648 z"
   id="path166" />
					<path
   d="m 697.644,658.978 c 0.463,2.265 2.036,3.857 3.512,3.555 1.476,-0.302 2.298,-2.383 1.834,-4.648 -0.463,-2.265 -2.036,-3.857 -3.512,-3.555 -1.476,0.301 -2.298,2.382 -1.834,4.648 z"
   id="path167" />
					<g
   id="g170">
						<path
   style="fill:#d16159"
   d="m 655.509,664.745 c -1.985,-5.446 -10.854,-7.219 -15.126,-3.808 -10.271,8.201 0.833,27.818 12.396,26.114 3.272,-0.482 7.274,-3.202 7.174,-7.059"
   id="path168" />
						
							<line
   style="fill:none;stroke:#000000;stroke-width:1.5;stroke-miterlimit:10"
   x1="642.72498"
   y1="670.57703"
   x2="655.89801"
   y2="676.25403"
   id="line168" />
						<path
   style="fill:none;stroke:#000000;stroke-width:1.5;stroke-miterlimit:10"
   d="m 648.033,659.749 c 2.954,0.637 5.714,2.225 7.808,4.492"
   id="path169" />
						<path
   style="fill:none;stroke:#000000;stroke-width:1.5;stroke-miterlimit:10"
   d="m 639.59,680.515 c 3.039,3.968 7.74,7.661 12.892,6.803 3.575,-0.596 6.945,-3.402 7.132,-7.386"
   id="path170" />
						<polygon
   style="fill:none;stroke:#ffc36c;stroke-width:1.5;stroke-linejoin:round;stroke-miterlimit:10"
   points="646.552,700.401 658.166,703.305 651.565,683.465 "
   id="polygon170" />
					</g>
					<path
   style="fill:none;stroke:#000000;stroke-width:1.5;stroke-miterlimit:10"
   d="m 692.703,705.618 c -11.975,4.137 -24.898,-2.571 -33.268,-9.738"
   id="path171" />
					
						<ellipse
   transform="matrix(0.9241,-0.3822,0.3822,0.9241,-187.6106,275.6382)"
   style="fill:#2c221d"
   cx="599.97101"
   cy="610.03198"
   rx="28.922001"
   ry="28.921"
   id="ellipse171" />
					<path
   style="fill:none;stroke:#ffc36c;stroke-width:2;stroke-linecap:round;stroke-linejoin:round;stroke-miterlimit:10"
   d="m 629.292,609.628 c -8.699,7.36 -14.789,17.338 -17.138,28.082"
   id="path172" />
				</g>
				<g
   id="g180">
					<path
   style="fill:#fcddd2"
   d="m 757.746,808.646 c 0.193,-22.909 -15.507,-44.331 -15.507,-44.331 l -28.53,-44.814 c -5.206,9.182 -12.154,16.288 -27.894,19.908 -18.201,4.186 -33.865,2.873 -50.988,-3.143 -9.135,-3.21 -16.998,-8.801 -23.685,-15.803 0,0 -19.417,2.936 -29.733,11.624 -10.316,8.689 20.105,49.348 20.105,49.348 0.638,43.332 9.949,94.988 3.192,137.795 h 143.445 l -7.749,-67.249 c 0,10e-4 17.229,-29.715 17.344,-43.335 z"
   id="path173" />
					<path
   style="fill:#fcddd2"
   d="m 732.89,789.796 58.282,57.282 51.505,-45.567 c -19.966,-19.043 -40.279,-37.705 -60.397,-56.583 -7.264,-6.816 -15.409,-11.621 -24.402,-15.899 -13.872,-6.599 -34.132,-8.38 -44.534,-9.493"
   id="path174" />
					<path
   style="fill:none;stroke:#000000;stroke-width:1.5;stroke-miterlimit:10"
   d="m 746.253,764.228 c -0.721,8.167 2.41,16.73 5.109,24.302 2.928,8.217 5.639,16.664 6.043,25.443"
   id="path175" />
					<path
   style="fill:none;stroke:#000000;stroke-width:1.5;stroke-miterlimit:10"
   d="m 601.514,728.684 c 9.552,10.705 23.078,17.966 37.416,21.945 14.338,3.979 35.337,4.155 50.302,0.72"
   id="path176" />
					<path
   style="fill:none;stroke:#000000;stroke-width:1.5;stroke-miterlimit:10"
   d="m 699.29,748.649 c 12.234,-4.429 21.589,-14.475 28.041,-27.501"
   id="path177" />
					<path
   style="fill:none;stroke:#000000;stroke-width:1.5;stroke-miterlimit:10"
   d="m 675.672,843.667 c 4.274,-4.209 8.27,-8.7 11.952,-13.436"
   id="path178" />
					<path
   style="fill:none;stroke:#000000;stroke-width:1.5;stroke-miterlimit:10"
   d="m 678.125,884.85 c 12.911,-2.518 25.51,-6.626 37.423,-12.202"
   id="path179" />
					<path
   style="fill:none;stroke:#000000;stroke-width:1.5;stroke-miterlimit:10"
   d="m 699.445,886.619 c 10.032,-0.479 20.031,-1.67 29.895,-3.561"
   id="path180" />
				</g>
				<g
   id="g192">
					<g
   id="g186">
						<path
   style="fill:#e27769"
   d="m 528.16,812.889 c -8.897,17.557 -17.5,29.691 -11.199,50.219 3.471,11.308 8.902,21 15.93,35.021 15.888,31.7 46.4,76.787 46.4,76.787 l 24.308,-38.75 -27.118,-81.637 27.118,-55.047"
   id="path181" />
						<g
   id="g185">
							<path
   style="fill:#e27769"
   d="m 597.924,926.389 c 6.666,9.503 14.935,18.441 17.672,29.722 1.851,7.628 0.965,15.648 -0.506,23.358 -0.769,4.032 -1.695,8.031 -2.47,12.062 -0.387,2.011 -0.739,4.029 -1.013,6.059 -0.125,0.924 0.054,4.861 -0.907,5.202 -2.079,0.737 -4.132,-2.117 -4.767,-3.668 -1.468,-3.583 -1.48,-7.61 -0.901,-11.438 0.147,-0.971 0.229,-2.184 -0.604,-2.704 -0.992,-0.621 -2.202,0.369 -2.887,1.318 -4.341,6.005 -5.741,11.805 -8.068,18.841 -1.406,4.251 -3.24,12.5 -5.439,16.4 -1.868,3.313 -5.349,6.539 -7.989,4.013 -0.533,-0.348 -2.938,1.657 -3.155,-0.204 -0.684,-5.858 1.165,-11.778 0.367,-17.594 -0.193,-1.408 -0.651,-8.577 -0.733,-9.995 -0.462,-8.01 -0.714,-11.105 -1.507,-19.558 -0.509,-5.433 -2.033,-10.49 -3.498,-15.7 -1.497,-5.323 -3.232,-10.594 -5.545,-15.623"
   id="path182" />
							<path
   style="fill:none;stroke:#000000;stroke-width:1.5;stroke-miterlimit:10"
   d="m 602.43,986.08 c 1.939,-2.247 3.842,-4.509 5.706,-6.786"
   id="path183" />
							<path
   style="fill:none;stroke:#000000;stroke-width:1.5;stroke-miterlimit:10"
   d="m 587.456,988.218 c -4.691,16.744 -5.329,24.961 -7.089,37.634"
   id="path184" />
							<path
   style="fill:none;stroke:#000000;stroke-width:1.5;stroke-miterlimit:10"
   d="m 579.793,985.674 c 0.829,3.848 0.19,7.837 -0.233,11.75 -0.549,5.083 -1.89,14.493 -1.89,14.493"
   id="path185" />
						</g>
						<path
   style="fill:none;stroke:#000000;stroke-width:1.5;stroke-miterlimit:10"
   d="m 576.12,853.853 c -3.904,-4.277 -8.516,-7.906 -13.592,-10.693"
   id="path186" />
					</g>
					<g
   id="g191">
						<path
   style="fill:#d16159"
   d="m 606.769,779.594 c 0,0 21.063,28.05 28.061,44.781 9.064,21.672 17.583,44.432 10.951,62.243 -10.118,27.175 -68.316,62.764 -84.227,93.43 l -22.76,-50.2 41.86,-62.039 -4.109,-14.17"
   id="path187" />
						<path
   style="fill:#d16159"
   d="m 561.555,900.149 c -6.429,7.5 -12.661,15.182 -18.701,22.999 -3.73,4.828 -7.386,9.719 -10.845,14.745 -7.383,10.729 -13.305,23.27 -12.921,36.574 0.15,5.212 1.114,10.355 2.15,15.451 0.988,4.857 2.288,9.784 1.892,14.785 -0.125,1.576 -0.651,5.034 1.163,5.922 0.745,0.365 1.64,0.016 2.335,-0.436 2.55,-1.657 3.991,-4.6 4.718,-7.553 0.669,-2.714 1.233,-5.822 1.304,-8.616 0.051,-2.044 0.042,-4.492 2.278,-5.508 3.633,10.185 7.3,20.527 8.042,31.315 0.471,6.854 -0.252,13.756 0.371,20.597 0.168,1.846 0.458,3.751 1.465,5.307 0.657,1.015 2.073,2.327 3.391,2.293 2.495,-0.064 2.683,-5.848 3.104,-7.635 1.041,-4.42 2.081,-8.84 3.122,-13.26 2.838,-12.053 3.37,-24.372 4.81,-36.718 1.395,-11.961 10.336,-22.978 15.535,-32.656"
   id="path188" />
						<path
   style="fill:none;stroke:#000000;stroke-width:1.5;stroke-miterlimit:10"
   d="m 534.408,988.854 c -1.729,-2.628 -3.457,-5.258 -5.303,-7.806 -1.698,-2.342 -3.857,-4.508 -5.139,-7.12"
   id="path189" />
						<path
   style="fill:none;stroke:#000000;stroke-width:1.5;stroke-miterlimit:10"
   d="m 580.025,868.561 c 9.89,-10.279 27.804,-20.28 42.064,-20.674"
   id="path190" />
						<path
   style="fill:none;stroke:#000000;stroke-width:1.5;stroke-miterlimit:10"
   d="m 551.106,1038.251 c 0.747,-8.116 1.495,-16.242 1.626,-24.391 0.075,-4.695 -0.043,-9.478 1.297,-13.979"
   id="path191" />
					</g>
					<path
   style="fill:#fcddd2"
   d="m 592.391,725.744 c -19.889,6.56 -32.155,21.773 -41.285,36.386 -10.916,17.47 -24.712,49.609 -31.009,60.443 l 63.815,25.933 32.729,-58.203"
   id="path192" />
					
						<line
   style="fill:none;stroke:#000000;stroke-width:1.5;stroke-miterlimit:10"
   x1="583.91199"
   y1="848.50598"
   x2="616.64099"
   y2="790.30298"
   id="line192" />
				</g>
				<path
   style="fill:none;stroke:#000000;stroke-width:1.5;stroke-miterlimit:10"
   d="m 748.54,703.977 c 15.742,3.92 30.443,11.944 42.255,23.062"
   id="path193" />
				<path
   style="fill:none;stroke:#000000;stroke-width:1.5;stroke-miterlimit:10"
   d="m 744.761,688.554 c 10.561,2.836 21.446,5.831 30.024,12.613"
   id="path194" />
			</g>
			<g
   id="g256">
				<g
   id="g207">
					<path
   style="fill:#d16159"
   d="m 917.698,652.224 -3.307,40.995 -12.309,8.617 c 0,0 33.67,33.924 46.984,33.102 13.314,-0.822 51.773,-36.889 51.773,-36.889 0,0 -11.892,-5.738 -12.237,-6.831 -0.345,-1.093 -3.641,-35.253 -3.641,-35.253"
   id="path195" />
					<g
   id="g197">
						<path
   style="fill:#d16159"
   d="m 917.531,625.053 c -1.526,-5.585 -8.831,-7.622 -12.442,-4.27 -8.682,8.059 0.088,28.282 9.699,26.858 2.719,-0.403 6.093,-3.06 6.093,-6.98"
   id="path196" />
						
							<line
   style="fill:none;stroke:#000000;stroke-width:1.5;stroke-miterlimit:10"
   x1="906.82001"
   y1="630.63702"
   x2="917.604"
   y2="636.755"
   id="line196" />
						<path
   style="fill:none;stroke:#000000;stroke-width:1.5;stroke-miterlimit:10"
   d="m 911.449,619.778 c 2.432,0.726 4.683,2.412 6.368,4.77"
   id="path197" />
					</g>
					<g
   id="g198">
						<path
   style="fill:#d16159"
   d="m 986.422,624.5 c 1.526,-5.585 8.831,-7.622 12.442,-4.27 8.682,8.059 -0.088,28.282 -9.699,26.858 -2.719,-0.403 -6.093,-3.06 -6.092,-6.98"
   id="path198" />
						
							<line
   style="fill:none;stroke:#000000;stroke-width:1.5;stroke-miterlimit:10"
   x1="997.133"
   y1="630.08398"
   x2="986.349"
   y2="636.20099"
   id="line198" />
					</g>
					<path
   style="fill:#d16159"
   d="m 989.534,612.969 c -0.207,-9.597 -4.447,-19.2 -11.036,-26.125 -7.573,-7.96 -17.432,-10.645 -28.197,-9.424 -9.557,1.083 -19.183,4.814 -26.098,11.658 -4.641,4.593 -7.35,10.725 -8.389,17.12 -1.545,9.509 -0.805,19.301 1.314,28.662 3.423,15.121 10.936,33.159 29.054,33.576 11.992,0.276 26.436,-2.725 34.448,-12.419 4.508,-5.454 6.616,-12.525 7.569,-19.536 1.044,-7.686 1.502,-15.785 1.335,-23.512 z"
   id="path199" />
					<path
   style="fill:none;stroke:#000000;stroke-width:1.5;stroke-miterlimit:10"
   d="m 951.079,613.004 c -0.653,6.637 -1.307,13.273 -1.96,19.91 -0.256,2.601 0.365,4.833 3.413,5.717 1.686,0.489 3.52,0.391 5.262,0.271"
   id="path200" />
					<path
   style="fill:#2c221d"
   d="m 1002.039,569.304 c -0.546,-1.047 -1.163,-2.084 -2.046,-2.868 -2.843,-2.523 -7.229,-1.639 -10.888,-0.607 4.068,-2.708 5.658,-8.358 4.157,-13.009 -1.501,-4.651 -5.698,-8.167 -10.408,-9.47 -4.71,-1.303 -9.833,-0.567 -14.312,1.389 -3.272,1.429 -6.233,3.472 -9.171,5.502 -3.222,2.227 -6.445,4.454 -9.667,6.681 1.329,-2.577 -0.635,-5.925 -3.364,-6.904 -2.729,-0.978 -5.788,-0.155 -8.378,1.149 -2.823,1.422 -5.352,3.419 -7.407,5.819 -1.582,1.848 -2.424,4.103 -3.802,6.091 -1.452,2.095 -3.22,3.971 -5.23,5.537 -3.146,2.451 -6.815,4.115 -10.285,6.079 -4.195,2.375 -7.88,5.414 -10.273,9.658 -4.376,7.758 -3.556,17.509 -0.546,25.892 2.634,7.335 7.365,9.635 10.964,16.556 1.565,15.668 4.65,42.346 12.335,49.456 2.409,2.229 4.897,3.244 6.98,3.67 2.924,0.598 5.675,1.894 7.785,4.005 2.291,2.292 6.259,4.725 12.785,4.725 5.286,0 9.035,-1.996 11.593,-4.277 3.261,-2.908 7.4,-4.755 11.767,-4.633 2.917,0.082 6.261,-0.8 9.045,-4.13 4.942,-5.911 7.877,-29.23 8.979,-49.164 0.462,-8.364 2.977,-16.546 7.613,-23.523 1.939,-2.919 3.425,-6.137 4.352,-9.518 2.187,-7.978 1.247,-16.77 -2.578,-24.106 z m -17.945,80.039 c -3.756,6.336 -10.502,10.885 -17.912,11.551 -1.664,0.149 -3.406,0.087 -4.911,-0.58 -1.898,-0.841 -1.838,-3.456 -3.871,-3.963 -1.42,-0.354 -2.909,-0.407 -4.366,-0.339 -1.483,0.069 -3.606,-0.231 -4.56,1.172 -0.762,1.121 -1.504,2.407 -2.687,3.139 -1.361,0.842 -3.205,0.709 -4.735,0.571 -7.187,-0.646 -13.516,-5.041 -17.49,-10.559 -3.973,-5.518 -5.179,-13.928 -6.387,-20.443 -0.405,-2.186 -1.191,-8.178 -1.708,-13.462 2.989,-2.81 5.106,-6.638 6.54,-10.538 2.018,-5.488 5.016,-11.537 4.983,-16.811 11.604,4.647 25.658,2.491 35.335,-5.421 3.115,3.703 6.695,6.495 10.268,9.672 3.301,2.935 9.886,5.993 14.294,6.834 4.065,24.39 1.928,41.212 -2.793,49.177 z"
   id="path201" />
					<path
   style="fill:none;stroke:#000000;stroke-width:1.5;stroke-miterlimit:10"
   d="m 950.256,646.519 c 1.063,3.072 6.21,3.427 8.569,2.015 2.385,-1.427 2.842,-4.164 2.653,-6.76"
   id="path202" />
					<g
   id="g203">
						<circle
   style="fill:none;stroke:#fcddd2;stroke-width:2;stroke-miterlimit:10"
   cx="932.53198"
   cy="622.87"
   r="14.834"
   id="circle202" />
						<circle
   style="fill:none;stroke:#fcddd2;stroke-width:2;stroke-miterlimit:10"
   cx="972.62799"
   cy="622.87"
   r="14.834"
   id="circle203" />
						
							<line
   style="fill:none;stroke:#fcddd2;stroke-width:2;stroke-miterlimit:10"
   x1="946.65997"
   y1="618.34497"
   x2="957.79401"
   y2="618.34497"
   id="line203" />
					</g>
					<g
   id="g206">
						<path
   style="fill:none;stroke:#000000;stroke-width:1.5;stroke-miterlimit:10"
   d="m 962.884,605.77 c 3.096,-5.371 15.445,-4.503 19.488,2.266"
   id="path203" />
						<path
   d="m 971.969,619.778 c 0,2.114 -1.223,3.829 -2.732,3.829 -1.509,0 -2.732,-1.714 -2.732,-3.829 0,-2.115 1.223,-3.829 2.732,-3.829 1.509,0 2.732,1.715 2.732,3.829 z"
   id="path204" />
						<path
   style="fill:none;stroke:#000000;stroke-width:1.5;stroke-miterlimit:10"
   d="m 942.738,605.77 c -3.096,-5.371 -15.445,-4.503 -19.488,2.266"
   id="path205" />
						<path
   d="m 933.652,619.778 c 0,2.114 1.223,3.829 2.732,3.829 1.509,0 2.732,-1.714 2.732,-3.829 0,-2.115 -1.223,-3.829 -2.732,-3.829 -1.509,0.001 -2.732,1.715 -2.732,3.829 z"
   id="path206" />
					</g>
				</g>
				<g
   id="g221">
					<g
   id="g210">
						<path
   style="fill:#e27769"
   d="m 932.62,1490.822 -3.296,53.905 c 0,0 -73.468,0 -74.032,0 -0.563,0 3.296,-60.151 3.296,-60.151"
   id="path207" />
						<g
   id="g209">
							<path
   style="fill:#1e1611"
   d="m 852.405,1531.536 c 0.125,-0.103 0.257,-0.194 0.401,-0.271 0.556,-0.299 1.189,-0.342 1.805,-0.379 6.352,-0.385 12.712,-0.771 19.071,-0.576 2.228,0.068 4.922,0.561 5.747,2.889 0.455,1.283 -1.464,9.051 2.091,9.051 3.556,0 49.374,-1.139 49.374,-1.139 l 1.727,40.021 h -30.96 l -0.163,-9.646 c 0,0 -18.604,9.646 -26.111,9.646 -7.507,0 -73.123,0 -73.123,0 0,0 2.776,-15.051 13.079,-23.386 6.459,-5.224 13.849,-8.716 20.947,-12.658 3.316,-1.841 6.622,-3.768 9.663,-6.147 1.369,-1.071 2.66,-2.241 3.872,-3.529 1.019,-1.086 1.456,-2.951 2.58,-3.876 z"
   id="path208" />
							<line
   style="fill:none;stroke:#56453c;stroke-miterlimit:10"
   x1="841.35101"
   y1="1542.941"
   x2="856.34399"
   y2="1547.694"
   id="line208" />
							<line
   style="fill:none;stroke:#56453c;stroke-miterlimit:10"
   x1="832.086"
   y1="1547.694"
   x2="850.20502"
   y2="1554.022"
   id="line209" />
						</g>
					</g>
					<g
   id="g213">
						<path
   style="fill:#e27769"
   d="m 982.879,1490.822 3.296,53.905 c 0,0 73.468,0 74.032,0 0.563,0 -3.296,-60.151 -3.296,-60.151"
   id="path210" />
						<g
   id="g212">
							<path
   style="fill:#1e1611"
   d="m 1063.094,1531.536 c -0.125,-0.103 -0.257,-0.194 -0.401,-0.271 -0.556,-0.299 -1.189,-0.342 -1.805,-0.379 -6.352,-0.385 -12.712,-0.771 -19.071,-0.576 -2.228,0.068 -4.922,0.561 -5.747,2.889 -0.455,1.283 1.464,9.051 -2.091,9.051 -3.556,0 -49.374,-1.139 -49.374,-1.139 l -1.727,40.021 h 30.96 l 0.163,-9.646 c 0,0 18.604,9.646 26.111,9.646 7.507,0 73.124,0 73.124,0 0,0 -2.776,-15.051 -13.079,-23.386 -6.459,-5.224 -13.849,-8.716 -20.946,-12.658 -3.316,-1.841 -6.622,-3.768 -9.663,-6.147 -1.369,-1.071 -2.66,-2.241 -3.872,-3.529 -1.021,-1.086 -1.459,-2.951 -2.582,-3.876 z"
   id="path211" />
							<line
   style="fill:none;stroke:#56453c;stroke-miterlimit:10"
   x1="1074.1479"
   y1="1542.941"
   x2="1059.155"
   y2="1547.694"
   id="line211" />
							<line
   style="fill:none;stroke:#56453c;stroke-miterlimit:10"
   x1="1083.412"
   y1="1547.694"
   x2="1065.2939"
   y2="1554.022"
   id="line212" />
						</g>
					</g>
					<path
   style="fill:#2a2d3e"
   d="m 873.786,942.171 -3.713,37.586 c 0,0 -15.811,47.872 -13.346,148.375 2.465,100.503 -3.029,395.994 -3.029,395.994 h 78.915 l 24.942,-428.105 24.942,428.105 h 78.915 c 0,0 -5.494,-295.491 -3.029,-395.994 2.465,-100.503 -13.346,-148.375 -13.346,-148.375 l -3.713,-37.586"
   id="path213" />
					
						<line
   style="fill:none;stroke:#000000;stroke-width:1.5;stroke-miterlimit:10"
   x1="1045.038"
   y1="979.75702"
   x2="870.073"
   y2="979.75702"
   id="line213" />
					
						<line
   style="fill:none;stroke:#000000;stroke-width:1.5;stroke-miterlimit:10"
   x1="965.80298"
   y1="978.86298"
   x2="965.80298"
   y2="955.43701"
   id="line214" />
					
						<line
   style="fill:none;stroke:#000000;stroke-width:1.5;stroke-miterlimit:10"
   x1="1004.899"
   y1="978.86298"
   x2="1004.899"
   y2="955.43701"
   id="line215" />
					
						<line
   style="fill:none;stroke:#000000;stroke-width:1.5;stroke-miterlimit:10"
   x1="1011.667"
   y1="978.86298"
   x2="1011.667"
   y2="955.43701"
   id="line216" />
					
						<line
   style="fill:none;stroke:#000000;stroke-width:1.5;stroke-miterlimit:10"
   x1="905.31702"
   y1="978.86298"
   x2="905.31702"
   y2="955.43701"
   id="line217" />
					
						<line
   style="fill:none;stroke:#000000;stroke-width:1.5;stroke-miterlimit:10"
   x1="912.08398"
   y1="978.86298"
   x2="912.08398"
   y2="955.43701"
   id="line218" />
					<path
   style="fill:none;stroke:#000000;stroke-width:1.5;stroke-miterlimit:10"
   d="m 958.708,971.401 c 0,1.876 -1.521,3.397 -3.396,3.397 -1.876,0 -3.397,-1.521 -3.397,-3.397 0,-1.876 1.521,-3.396 3.397,-3.396 1.875,0 3.396,1.52 3.396,3.396 z"
   id="path218" />
					
						<line
   style="fill:none;stroke:#000000;stroke-width:1.5;stroke-miterlimit:10"
   x1="957.55499"
   y1="1096.021"
   x2="957.55499"
   y2="980.04901"
   id="line219" />
					<path
   style="fill:none;stroke:#000000;stroke-width:1.5;stroke-miterlimit:10"
   d="m 941.553,980.049 c 0,0.907 0.751,47.233 1.753,48.735 1.002,1.502 14.25,3.506 14.25,3.506"
   id="path219" />
					<path
   style="fill:none;stroke:#000000;stroke-width:1.5;stroke-miterlimit:10"
   d="m 996.705,980.049 c 0,0 4.263,16.27 8.194,18.373 3.931,2.103 46.076,13.81 46.076,13.81"
   id="path220" />
					<path
   style="fill:none;stroke:#000000;stroke-width:1.5;stroke-miterlimit:10"
   d="m 916.484,980.049 c 0,0 -4.191,16.141 -8.055,18.227 -3.864,2.086 -45.295,13.7 -45.295,13.7"
   id="path221" />
				</g>
				<g
   id="g255">
					<path
   style="fill:#735d9d"
   d="m 856.972,725.589 c -1.707,26.103 0.129,52.292 1.964,78.386 3.712,52.776 7.424,105.551 11.136,158.326 h 174.197 c 0,0 7.333,-166.094 22.838,-209.223 13.889,-38.634 -69.974,-61.999 -69.974,-61.999 l -44.422,32.119 -50.629,-27.583 z"
   id="path222" />
					<g
   id="g227">
						<path
   style="fill:#d16159"
   d="m 874.828,912.17 c 7.519,12.048 15.196,24.503 17.529,38.512 1.076,6.462 1.036,11.323 0.93,17.873 -0.128,7.914 -0.924,13.533 -1.635,21.425 -0.179,1.989 0.193,11.916 -2.911,11.645 -0.919,-0.08 -1.609,-0.852 -2.153,-1.597 -2.154,-2.947 -3.643,-6.376 -4.326,-9.962 -0.964,11.119 -1.927,22.239 -2.891,33.358 -0.289,3.329 -0.617,6.788 -2.334,9.654 -1.113,1.858 -3.625,1.864 -5.599,2.37 -0.454,0.116 -0.919,0.238 -1.304,0.505 -0.492,0.342 -0.799,0.883 -1.099,1.401 -0.912,1.573 -2.778,4.504 -4.902,2.809 -0.935,-0.746 -1.316,-1.97 -1.648,-3.119 -0.778,-2.692 -1.556,-5.384 -2.334,-8.076 -0.147,-0.508 -0.296,-1.022 -0.564,-1.478 -0.893,-1.521 -2.63,-2.346 -3.494,-3.902 -0.749,-1.349 -1.421,-2.953 -1.953,-4.398 -1.384,-3.765 -1.51,-7.841 -2.263,-11.748 -0.151,-0.785 -0.335,-1.581 -0.747,-2.265 -0.342,-0.567 -0.826,-1.032 -1.219,-1.565 -0.895,-1.214 -1.276,-2.722 -1.614,-4.192 -1.685,-7.338 -2.616,-15.14 -4.232,-22.615 -1.689,-7.811 -4.687,-14.973 -7.857,-22.272"
   id="path223" />
						<path
   style="fill:none;stroke:#000000;stroke-width:1.5;stroke-miterlimit:10"
   d="m 882.521,992.646 c 1.123,-6.731 2.827,-13.365 5.086,-19.803"
   id="path224" />
						<path
   style="fill:none;stroke:#000000;stroke-width:1.5;stroke-miterlimit:10"
   d="m 870.55,983.451 c -1.999,17.226 -1.909,34.693 0.266,51.898"
   id="path225" />
						<path
   style="fill:none;stroke:#000000;stroke-width:1.5;stroke-miterlimit:10"
   d="m 856.75,987.172 c -0.251,16.495 1.59,33.021 5.464,49.057"
   id="path226" />
						<path
   style="fill:none;stroke:#000000;stroke-width:1.5;stroke-miterlimit:10"
   d="m 850.466,986.294 c -0.62,7.436 1.029,15.891 3.232,23.106"
   id="path227" />
					</g>
					
						<line
   style="fill:none;stroke:#000000;stroke-width:1.5;stroke-miterlimit:10"
   x1="951.91498"
   y1="723.198"
   x2="950.66302"
   y2="962.30103"
   id="line227" />
					<circle
   style="fill:none;stroke:#000000;stroke-width:1.5;stroke-miterlimit:10"
   cx="960.66998"
   cy="741.85901"
   r="3.115"
   id="circle227" />
					<path
   style="fill:none;stroke:#000000;stroke-width:1.5;stroke-miterlimit:10"
   d="m 963.786,792.911 c 0,1.721 -1.395,3.115 -3.115,3.115 -1.72,0 -3.115,-1.395 -3.115,-3.115 0,-1.72 1.395,-3.115 3.115,-3.115 1.72,0 3.115,1.395 3.115,3.115 z"
   id="path228" />
					<circle
   style="fill:none;stroke:#000000;stroke-width:1.5;stroke-miterlimit:10"
   cx="960.66998"
   cy="843.96301"
   r="3.115"
   id="circle228" />
					<circle
   style="fill:none;stroke:#000000;stroke-width:1.5;stroke-miterlimit:10"
   cx="960.66998"
   cy="895.01501"
   r="3.115"
   id="circle229" />
					<circle
   style="fill:none;stroke:#000000;stroke-width:1.5;stroke-miterlimit:10"
   cx="960.66998"
   cy="946.06702"
   r="3.115"
   id="circle230" />
					
						<line
   style="fill:none;stroke:#000000;stroke-width:1.5;stroke-miterlimit:10"
   x1="1050.975"
   y1="809.284"
   x2="1054.537"
   y2="760.84601"
   id="line230" />
					<g
   id="g233">
						<path
   style="fill:#735d9d"
   d="m 902.329,692.538 c -19.226,1.357 -39.232,2.947 -55.852,12.708 -10.9,6.401 -19.586,15.907 -27.908,25.421 -16.448,18.804 -32.683,37.843 -47.456,58.006 -13.392,18.277 -26.165,37.076 -22.243,60.92 2.962,18.006 14.016,32.036 24.834,46.079 19.413,25.199 65.579,77.044 67.486,79.244 l 41.33,-54.405 -57.28,-77.761 48.546,-58.28"
   id="path230" />
						
							<line
   style="fill:none;stroke:#000000;stroke-width:1.5;stroke-miterlimit:10"
   x1="859.47101"
   y1="801.65601"
   x2="852.01599"
   y2="765.60303"
   id="line231" />
						<path
   style="fill:none;stroke:#000000;stroke-width:1.5;stroke-miterlimit:10"
   d="m 803.684,835.627 c 8.227,0.344 16.723,2.136 23.2,7.221"
   id="path231" />
						<path
   style="fill:none;stroke:#000000;stroke-width:1.5;stroke-miterlimit:10"
   d="m 803.972,824.376 c 5.532,1.131 10.758,3.725 15.004,7.446"
   id="path232" />
						<polyline
   style="fill:none;stroke:#000000;stroke-width:1.5;stroke-miterlimit:10"
   points="865.509,897.417 882.521,920.511         841.191,974.916       "
   id="polyline232" />
						
							<line
   style="fill:none;stroke:#000000;stroke-width:1.5;stroke-miterlimit:10"
   x1="826.88397"
   y1="958.677"
   x2="869.966"
   y2="903.466"
   id="line232" />
						
							<line
   style="fill:none;stroke:#000000;stroke-width:1.5;stroke-miterlimit:10"
   x1="876.01801"
   y1="929.48999"
   x2="852.01599"
   y2="898.13"
   id="line233" />
						<path
   style="fill:none;stroke:#000000;stroke-width:1.5;stroke-miterlimit:10"
   d="m 867.888,926.375 c 0,1.72 -1.395,3.115 -3.115,3.115 -1.72,0 -3.115,-1.395 -3.115,-3.115 0,-1.721 1.395,-3.115 3.115,-3.115 1.72,0 3.115,1.394 3.115,3.115 z"
   id="path233" />
					</g>
					<g
   id="g242">
						<g
   id="g238">
							<path
   style="fill:#d16159"
   d="m 1039.88,933.011 c -7.519,11.195 -15.196,22.768 -17.529,35.785 -1.076,6.005 -1.036,10.521 -0.93,16.608 0.128,7.353 0.924,12.575 1.635,19.908 0.179,1.849 -0.193,11.072 2.911,10.82 0.919,-0.075 1.609,-0.792 2.153,-1.484 2.154,-2.738 3.643,-5.925 4.326,-9.257 0.964,10.332 1.927,20.664 2.891,30.996 0.288,3.093 0.617,6.307 2.334,8.97 1.113,1.726 3.625,1.732 5.599,2.202 0.454,0.108 0.919,0.221 1.304,0.47 0.492,0.318 0.799,0.821 1.099,1.302 0.912,1.461 2.778,4.185 4.902,2.611 0.935,-0.693 1.316,-1.831 1.648,-2.899 0.778,-2.501 1.556,-5.003 2.334,-7.504 0.147,-0.472 0.296,-0.95 0.564,-1.373 0.893,-1.413 2.63,-2.18 3.494,-3.626 0.749,-1.254 1.421,-2.744 1.953,-4.086 1.385,-3.498 1.51,-7.286 2.264,-10.916 0.151,-0.729 0.334,-1.469 0.747,-2.105 0.342,-0.526 0.826,-0.959 1.219,-1.454 0.895,-1.128 1.276,-2.529 1.614,-3.895 1.685,-6.819 2.616,-14.068 4.232,-21.014 1.689,-7.258 4.687,-13.913 7.857,-20.695"
   id="path234" />
							<path
   style="fill:none;stroke:#000000;stroke-width:1.5;stroke-miterlimit:10"
   d="m 1032.187,1007.79 c -1.123,-6.254 -2.827,-12.418 -5.086,-18.401"
   id="path235" />
							<path
   style="fill:none;stroke:#000000;stroke-width:1.5;stroke-miterlimit:10"
   d="m 1044.158,999.246 c 1.999,16.006 1.909,32.237 -0.266,48.223"
   id="path236" />
							<path
   style="fill:none;stroke:#000000;stroke-width:1.5;stroke-miterlimit:10"
   d="m 1057.958,1002.703 c 0.251,15.327 -1.59,30.683 -5.464,45.583"
   id="path237" />
							<path
   style="fill:none;stroke:#000000;stroke-width:1.5;stroke-miterlimit:10"
   d="m 1064.242,1001.888 c 0.62,6.91 -1.029,14.766 -3.232,21.47"
   id="path238" />
						</g>
						<path
   style="fill:#735d9d"
   d="m 991.741,690.003 c 0,0 24.125,4.928 33.993,6.644 27.741,4.823 51.974,23.212 73.734,40.058 17.726,13.723 34.365,28.852 49.704,45.201 14.656,15.62 30.251,32.853 37.004,53.6 5.8,17.818 -0.352,35.359 -10.857,50.042 -9.625,13.453 -22.063,25.316 -33.9,36.801 -19.907,19.316 -60.839,60.396 -60.839,60.396 l -44.259,-46.578 70.234,-97.695 -97.467,-51.185"
   id="path239" />
						<path
   style="fill:none;stroke:#000000;stroke-width:1.5;stroke-miterlimit:10"
   d="m 1123.45,845.746 c 9.987,-1.704 20.168,-2.263 30.282,-1.663"
   id="path240" />
						<path
   style="fill:none;stroke:#000000;stroke-width:1.5;stroke-miterlimit:10"
   d="m 1125.619,837.592 c 4.223,-2.956 9.231,-4.641 14.305,-5.551 5.074,-0.91 10.249,-1.081 15.401,-1.242"
   id="path241" />
						
							<line
   style="fill:none;stroke:#000000;stroke-width:1.5;stroke-miterlimit:10"
   x1="1048.569"
   y1="919.13"
   x2="1095.819"
   y2="967.15002"
   id="line241" />
						
							<line
   style="fill:none;stroke:#000000;stroke-width:1.5;stroke-miterlimit:10"
   x1="1046.699"
   y1="947.08801"
   x2="1077.713"
   y2="909.78802"
   id="line242" />
						<circle
   style="fill:none;stroke:#000000;stroke-width:1.5;stroke-miterlimit:10"
   cx="1061.01"
   cy="942.95203"
   r="3.115"
   id="circle242" />
					</g>
					<g
   id="g243">
						<polygon
   style="fill:#735d9d"
   points="951.915,723.198 914.633,679.439 895.652,693.589 915.467,747.763 "
   id="polygon242" />
						<polygon
   style="fill:#735d9d"
   points="952.711,723.198 988.388,682.08 1008.151,693.518 987.461,747.763 "
   id="polygon243" />
						<polyline
   style="fill:none;stroke:#000000;stroke-width:1.5;stroke-miterlimit:10"
   points="1008.151,693.518         987.461,747.763 952.711,723.198 915.467,747.763 895.652,693.589       "
   id="polyline243" />
					</g>
					
						<rect
   x="985.547"
   y="782.26703"
   style="fill:none;stroke:#000000;stroke-width:1.5;stroke-miterlimit:10"
   width="45.208"
   height="4.901"
   id="rect243" />
					<path
   style="fill:none;stroke:#000000;stroke-width:1.5;stroke-miterlimit:10"
   d="m 1055.984,811.914 c 0,0 4.508,-36.23 6.222,-43.381"
   id="path243" />
					<g
   id="g249">
						<path
   style="fill:#e27769"
   d="M 852.016,810.605 825.24,842.75 c -1.67,-0.533 -67.492,81.966 -67.492,81.966 l 33.214,22.372 c 0,0 70.197,-64.996 79.855,-78.288 9.657,-13.292 -0.722,-40.795 -18.801,-58.195 z"
   id="path244" />
						<path
   style="fill:none;stroke:#000000;stroke-width:1.5;stroke-miterlimit:10"
   d="m 827.828,839.172 c 7.289,-5.779 15.783,-10.031 24.777,-12.402"
   id="path245" />
						<path
   style="fill:#e27769"
   d="m 769.82,910.584 c -7.959,8.45 -17.424,16.111 -21.749,26.883 -2.925,7.284 -3.197,15.349 -2.846,23.19 0.184,4.1 0.527,8.191 0.717,12.291 0.095,2.046 0.154,4.094 0.135,6.141 -0.009,0.933 -0.751,4.803 0.152,5.278 1.951,1.027 4.392,-1.503 5.244,-2.947 1.966,-3.336 2.556,-7.319 2.53,-11.191 -0.006,-0.982 0.087,-2.194 0.985,-2.59 1.071,-0.472 2.126,0.681 2.669,1.718 3.436,6.565 3.99,12.506 5.286,19.802 0.783,4.408 1.415,12.835 3.033,17.01 1.374,3.546 4.357,7.238 7.332,5.117 0.578,-0.268 2.67,2.061 3.152,0.251 1.517,-5.699 0.535,-11.823 2.158,-17.465 0.393,-1.365 1.873,-8.395 2.158,-9.787 1.605,-7.862 2.298,-10.888 4.294,-19.141 1.283,-5.304 3.515,-10.09 5.712,-15.037 2.244,-5.053 4.717,-10.021 7.727,-14.667"
   id="path246" />
						<path
   style="fill:none;stroke:#000000;stroke-width:1.5;stroke-miterlimit:10"
   d="m 756.808,969.014 c -1.597,-2.501 -3.156,-5.012 -4.675,-7.533"
   id="path247" />
						<path
   style="fill:none;stroke:#000000;stroke-width:1.5;stroke-miterlimit:10"
   d="m 771.321,973.275 c 2.243,17.243 1.698,25.467 1.623,38.261"
   id="path248" />
						<path
   style="fill:none;stroke:#000000;stroke-width:1.5;stroke-miterlimit:10"
   d="m 779.269,971.856 c -1.372,3.69 -1.311,7.729 -1.453,11.662 -0.184,5.11 -0.206,14.615 -0.206,14.615"
   id="path249" />
					</g>
					<g
   id="g254">
						<path
   style="fill:#e89274"
   d="m 1169.938,892.41 c 8.357,9.308 18.356,17.805 22.738,29.521 2.963,7.922 3.049,16.618 2.469,25.056 -0.303,4.413 -0.778,8.811 -1.089,13.223 -0.155,2.201 -0.271,4.406 -0.303,6.613 -0.014,1.005 0.685,5.194 -0.3,5.682 -2.129,1.057 -4.693,-1.732 -5.573,-3.31 -2.032,-3.644 -2.565,-7.951 -2.438,-12.121 0.032,-1.057 -0.037,-2.366 -0.995,-2.816 -1.142,-0.536 -2.308,0.679 -2.919,1.782 -3.87,6.985 -4.62,13.371 -6.204,21.197 -0.957,4.729 -1.855,13.791 -3.705,18.247 -1.571,3.785 -4.88,7.686 -8.031,5.324 -0.615,-0.304 -2.93,2.152 -3.402,0.189 -1.487,-6.179 -0.272,-12.751 -1.875,-18.871 -0.388,-1.481 -1.802,-9.092 -2.073,-10.599 -1.527,-8.511 -2.195,-11.789 -4.133,-20.731 -1.245,-5.747 -3.527,-10.961 -5.766,-16.346 -2.287,-5.502 -4.824,-10.918 -7.947,-16"
   id="path250" />
						<path
   style="fill:#e89274"
   d="m 1144.279,856.262 c -11.927,-7.51 -60.519,-29.762 -60.519,-29.762 -3.362,18.637 4.584,38.962 15.316,54.135 18.569,26.253 41.895,48.186 62.935,72.368 l 24.165,-40.053 c 0,10e-4 -29.97,-49.178 -41.897,-56.688 z"
   id="path251" />
						<path
   style="fill:none;stroke:#000000;stroke-width:1.5;stroke-miterlimit:10"
   d="m 1182.452,955.693 c 1.785,-2.653 3.529,-5.319 5.231,-7.995"
   id="path252" />
						<path
   style="fill:none;stroke:#000000;stroke-width:1.5;stroke-miterlimit:10"
   d="m 1166.708,959.909 c -2.86,18.519 -2.484,27.392 -2.734,41.178"
   id="path253" />
						<path
   style="fill:none;stroke:#000000;stroke-width:1.5;stroke-miterlimit:10"
   d="m 1158.181,958.176 c 1.383,4.01 1.213,8.36 1.265,12.602 0.067,5.51 -0.154,15.75 -0.154,15.75"
   id="path254" />
					</g>
				</g>
				<path
   style="fill:none;stroke:#000000;stroke-width:1.5;stroke-miterlimit:10"
   d="m 1023.52,585.775 c 0.943,4.784 -0.034,9.788 -1.906,14.291 -1.872,4.503 -4.604,8.587 -7.318,12.639"
   id="path255" />
				<path
   style="fill:none;stroke:#000000;stroke-width:1.5;stroke-miterlimit:10"
   d="m 1033.465,608.009 c -4.523,6.712 -9.858,12.875 -15.853,18.313"
   id="path256" />
			</g>
			<path
   style="fill:none;stroke:#000000;stroke-width:1.5;stroke-miterlimit:10"
   d="m 1722.622,649.563 c -2.969,17.305 -7.945,34.265 -14.797,50.431"
   id="path257" />
			<path
   style="fill:none;stroke:#000000;stroke-width:1.5;stroke-miterlimit:10"
   d="m 1741.41,636.892 c -1.877,12.878 -5.291,26.161 -10.581,37.886"
   id="path258" />
		</g>
	</g>
</g>


</svg>
