<?xml version="1.0" encoding="UTF-8" standalone="no"?>
<!-- Generator: Adobe Illustrator 27.5.0, SVG Export Plug-In . SVG Version: 6.00 Build 0)  -->

<svg
   version="1.1"
   x="0px"
   y="0px"
   viewBox="0 0 2440 720"
   xml:space="preserve"
   id="svg272"
   sodipodi:docname="clubs-bg.svg"
   inkscape:version="1.3.2 (091e20e, 2023-11-25, custom)"
   width="2440"
   height="720"
   xmlns:inkscape="http://www.inkscape.org/namespaces/inkscape"
   xmlns:sodipodi="http://sodipodi.sourceforge.net/DTD/sodipodi-0.dtd"
   xmlns:xlink="http://www.w3.org/1999/xlink"
   xmlns="http://www.w3.org/2000/svg"
   xmlns:svg="http://www.w3.org/2000/svg"><defs
   id="defs272" /><sodipodi:namedview
   id="namedview272"
   pagecolor="#ffffff"
   bordercolor="#000000"
   borderopacity="0.25"
   inkscape:showpageshadow="2"
   inkscape:pageopacity="0.0"
   inkscape:pagecheckerboard="0"
   inkscape:deskcolor="#d1d1d1"
   inkscape:zoom="0.35807292"
   inkscape:cx="663.27272"
   inkscape:cy="121.48364"
   inkscape:window-width="1920"
   inkscape:window-height="1009"
   inkscape:window-x="-8"
   inkscape:window-y="351"
   inkscape:window-maximized="1"
   inkscape:current-layer="g259" />
<g
   id="BACKGROUND"
   transform="translate(-2.0504872,-351.50664)">
	
</g><g
   id="OBJECTS"
   transform="translate(-2.0504872,-351.50664)">
	<g
   id="g13">
		<defs
   id="defs1">
			<rect
   id="SVGID_1_"
   width="1920"
   height="1080"
   x="0"
   y="0" />
		</defs>
		<clipPath
   id="SVGID_00000065041816412813346450000010171339267833500599_">
			<use
   xlink:href="#SVGID_1_"
   style="overflow:visible"
   id="use1" />
		</clipPath>
		<g
   clip-path="url(#SVGID_00000065041816412813346450000010171339267833500599_)"
   id="g5"
   transform="scale(1.2725575,1)">
			<path
   style="opacity:0.55;fill:#000000;fill-opacity:0.142322"
   d="m 1902.72,721.257 c -10.612,75.215 -23.681,157.105 -79.799,208.296 -27.263,24.869 -62.253,39.744 -97.789,49.689 -116.623,32.637 -240.414,16.095 -361.518,15.822 -90.963,-0.204 -191.497,13.596 -251.181,82.241 -19.271,22.164 -33.067,54.914 -18.453,80.392 5.824,10.154 15.372,17.565 24.938,24.312 126.781,89.412 290.294,105.208 445.415,107.537 97.664,1.467 197.867,-1.722 288.542,-38.031 65.011,-26.032 122.631,-68.291 172.574,-117.381 43.635,-42.889 82.314,-91.952 105.999,-148.366 24.4,-58.119 32.03,-121.674 39.415,-184.273 4.79,-40.602 9.523,-82.248 -0.23,-121.951 -16.952,-69.003 -78.889,-148.922 -155.673,-149.152 -91.206,-0.272 -102.776,123.78 -112.24,190.865 z"
   id="path1" />
			<path
   style="fill:none;stroke:#a6a6e8;stroke-width:2;stroke-miterlimit:10"
   d="M -43.664892,529.95036 C 54.142108,600.87236 129.653,660.487 144.583,781.372 c 7.913,64.071 4.242,136.149 47.515,184.057 38.703,42.85 102.107,51.087 152.185,79.829 70.064,40.213 109.442,117.464 168.57,172.508 104.032,96.849 258.189,115.832 400.219,110.348 78.586,-3.034 158.09,-12.335 230.943,-41.955 132.068,-53.693 232.683,-169.94 367.633,-215.912 74.06,-25.229 154.469,-27.728 228.157,-54.023 73.688,-26.295 144.597,-88.454 142.812,-166.673 -1.06,-46.458 -27.314,-88.094 -41.002,-132.502 -22.236,-72.138 -9.496,-154.204 33.564,-216.206 47.899,-68.969 145.614,-110.473 218.812,-69.326 69.424,39.026 91.665,134.07 104.553,212.662 26.313,160.457 38.1,333.721 -37.9,477.467 -110.961,209.869 -362.404,290.841 -580.9,329.925 -278.464,49.811 -564.565,32.671 -843.856,-0.836 -133.032,-15.96 -265.08,-37.669 -396.028,-66.167 -146.673,-31.92 -312.252,-67.226 -436.246,-156.358 -5.678,-4.082 -11.254,-8.304 -16.707,-12.682 -65.561,-52.645 -104.95,-126.93 -131.42,-205.414 -42.149,-124.975 -66.609,-269.279 -5.865,-392.59 30.737,-62.396 46.43201,-104.48109 119.56701,-118.20009"
   id="path2"
   sodipodi:nodetypes="cccscccssscssscsssccccc" />
			<path
   style="opacity:0.55;fill:#000000;fill-opacity:0.142322;stroke-width:1.18618"
   d="M 550.43838,1096.598 C 535.22994,1042.679 481.42987,996.256 413.60043,969.798 315.21483,931.421 181.70165,930.184 111.4212,860.313 76.59054,825.684 67.525148,781.207 67.383042,738.64 67.045356,636.895 93.38326,512.113 -37.867397,441.865 c -15.655869,-8.38 -33.055031,-15.658 -52.311453,-18.253 -80.80356,-10.886 -131.22962,71.256 -167.61223,108.813 -66.78965,68.945 -94.7738,153.663 -103.18213,236.113 -9.41012,92.273 9.48048,185.245 44.4997,274.349 27.3932,69.698 68.77354,141.377 151.35413,183.71 70.06944,35.919 159.7498319,45.48 245.895806,50.122 62.951274,3.392 126.120674,4.731 189.243644,4.01 72.31217,-0.826 149.27456,-5.537 206.86654,-36.627 61.61887,-33.261 88.7602,-93.586 73.55177,-147.504 z"
   id="path3" />
			
			
		</g>
		
			<circle
   transform="matrix(0.1596,-0.9872,0.9872,0.1596,1217.6302,1893.2368)"
   style="fill:none;stroke:#8379e8;stroke-width:3;stroke-miterlimit:10"
   cx="1452.9091"
   cy="501.49301"
   clip-path="url(#SVGID_00000065041816412813346450000010171339267833500599_)"
   id="ellipse5"
   r="11.058" />
		
			<circle
   transform="matrix(0.1602,-0.9871,0.9871,0.1602,-120.26734,1151.8865)"
   style="fill:none;stroke:#8379e8;stroke-width:3;stroke-miterlimit:10"
   cx="641.19098"
   cy="513.323"
   clip-path="url(#SVGID_00000065041816412813346450000010171339267833500599_)"
   id="ellipse6"
   r="11.058" />
		
			<circle
   transform="matrix(0.2298,-0.9732,0.9732,0.2298,-385.335,632.9912)"
   style="fill:none;stroke:#ffdd99;stroke-width:3;stroke-miterlimit:10"
   cx="207.242"
   cy="559.94098"
   clip-path="url(#SVGID_00000065041816412813346450000010171339267833500599_)"
   id="ellipse7"
   r="28.027" />
		
			<circle
   transform="matrix(0.2298,-0.9732,0.9732,0.2298,-423.6631,635.1637)"
   style="fill:#ed725a"
   cx="189.451"
   cy="585.24298"
   clip-path="url(#SVGID_00000065041816412813346450000010171339267833500599_)"
   id="ellipse8"
   r="9.8929996" />
		
			<circle
   style="fill:none;stroke:#8379e8;stroke-width:3;stroke-miterlimit:10"
   cx="1666.934"
   cy="927.51801"
   r="15.411"
   clip-path="url(#SVGID_00000065041816412813346450000010171339267833500599_)"
   id="circle8"
   transform="translate(380)" />
		
			<circle
   style="fill:none;stroke:#ed725a;stroke-width:3;stroke-miterlimit:10"
   cx="1607.906"
   cy="559.41901"
   r="25.983"
   clip-path="url(#SVGID_00000065041816412813346450000010171339267833500599_)"
   id="circle9"
   transform="translate(539.1085,86.889281)" />
		<polygon
   style="fill:#ffdd99"
   points="1751.275,907.521 1763.378,863.448 1701.948,849.885 "
   clip-path="url(#SVGID_00000065041816412813346450000010171339267833500599_)"
   id="polygon9"
   transform="scale(1.2725575,1)" />
		
			<polygon
   style="fill:none;stroke:#ed725a;stroke-width:3;stroke-linejoin:round;stroke-miterlimit:10"
   points="206.801,913.521 100.127,924.904 132.23,1002.613 "
   clip-path="url(#SVGID_00000065041816412813346450000010171339267833500599_)"
   id="polygon10"
   transform="scale(1.2725575,1)" />
		<polygon
   style="fill:#909df4"
   points="288.529,472.077 347.174,513.323 334.929,446.516 "
   clip-path="url(#SVGID_00000065041816412813346450000010171339267833500599_)"
   id="polygon11"
   transform="scale(1.2725575,1)" />
		<polygon
   style="fill:#ffdd99"
   points="731.121,594.983 744.445,540 697.75,567.312 "
   clip-path="url(#SVGID_00000065041816412813346450000010171339267833500599_)"
   id="polygon12"
   transform="translate(-230.4,322.56)" />
		<polygon
   style="fill:#909df4"
   points="1755.314,817.508 1740.245,792.841 1721.855,823.245 "
   clip-path="url(#SVGID_00000065041816412813346450000010171339267833500599_)"
   id="polygon13"
   transform="scale(1.2725575,1)" />
	</g>
	<g
   id="g259"
   transform="translate(268.60585)">
		<defs
   id="defs13">
			<rect
   id="SVGID_00000123409487067468263170000009085431994105830542_"
   width="1920"
   height="1080"
   x="0"
   y="0" />
		</defs>
		<clipPath
   id="SVGID_00000111162240505135089900000010939540529940016801_">
			<use
   xlink:href="#SVGID_00000123409487067468263170000009085431994105830542_"
   style="overflow:visible"
   id="use13" />
		</clipPath>
		
	</g>
</g>


</svg>
