<svg width="48" height="68" viewBox="0 0 48 68" fill="none" xmlns="http://www.w3.org/2000/svg">
<g clip-path="url(#clip0_1431_1442)">
<path fill-rule="evenodd" clip-rule="evenodd" d="M-5 60.6667C-5 59.5621 -4.10457 58.6667 -3 58.6667H-1.72727C-0.622705 58.6667 0.272727 57.7712 0.272727 56.6667V2C0.272727 0.895432 1.16816 0 2.27273 0H45.7273C46.8318 0 47.7273 0.89543 47.7273 2V56.6667C47.7273 57.7712 48.6227 58.6667 49.7273 58.6667H51C52.1046 58.6667 53 59.5621 53 60.6667V62C53 63.1046 52.1046 64 51 64H-3C-4.10457 64 -5 63.1046 -5 62V60.6667ZM15.4545 50.6667C14.35 50.6667 13.4545 51.5621 13.4545 52.6667V59.3333C13.4545 60.4379 14.35 61.3333 15.4545 61.3333H19.3636C20.4682 61.3333 21.3636 60.4379 21.3636 59.3333V52.6667C21.3636 51.5621 20.4682 50.6667 19.3636 50.6667H15.4545ZM28.6364 50.6667C27.5318 50.6667 26.6364 51.5621 26.6364 52.6667V59.3333C26.6364 60.4379 27.5318 61.3333 28.6364 61.3333H32.5455C33.65 61.3333 34.5455 60.4379 34.5455 59.3333V52.6667C34.5455 51.5621 33.65 50.6667 32.5455 50.6667H28.6364ZM10.8182 39.3333C10.8182 38.2288 9.92275 37.3333 8.81818 37.3333H7.54546C6.44089 37.3333 5.54545 38.2288 5.54545 39.3333V40.6667C5.54545 41.7712 6.44088 42.6667 7.54545 42.6667H8.81818C9.92275 42.6667 10.8182 41.7712 10.8182 40.6667V39.3333ZM31.9091 39.3333C31.9091 38.2288 31.0137 37.3333 29.9091 37.3333H28.6364C27.5318 37.3333 26.6364 38.2288 26.6364 39.3333V40.6667C26.6364 41.7712 27.5318 42.6667 28.6364 42.6667H29.9091C31.0137 42.6667 31.9091 41.7712 31.9091 40.6667V39.3333ZM21.3636 39.3333C21.3636 38.2288 20.4682 37.3333 19.3636 37.3333H18.0909C16.9863 37.3333 16.0909 38.2288 16.0909 39.3333V40.6667C16.0909 41.7712 16.9863 42.6667 18.0909 42.6667H19.3636C20.4682 42.6667 21.3636 41.7712 21.3636 40.6667V39.3333ZM42.4545 39.3333C42.4545 38.2288 41.5591 37.3333 40.4545 37.3333H39.1818C38.0772 37.3333 37.1818 38.2288 37.1818 39.3333V40.6667C37.1818 41.7712 38.0772 42.6667 39.1818 42.6667H40.4545C41.5591 42.6667 42.4545 41.7712 42.4545 40.6667V39.3333ZM10.8182 28.6667C10.8182 27.5621 9.92275 26.6667 8.81818 26.6667H7.54546C6.44089 26.6667 5.54545 27.5621 5.54545 28.6667V30C5.54545 31.1046 6.44088 32 7.54545 32H8.81818C9.92275 32 10.8182 31.1046 10.8182 30V28.6667ZM31.9091 28.6667C31.9091 27.5621 31.0137 26.6667 29.9091 26.6667H28.6364C27.5318 26.6667 26.6364 27.5621 26.6364 28.6667V30C26.6364 31.1046 27.5318 32 28.6364 32H29.9091C31.0137 32 31.9091 31.1046 31.9091 30V28.6667ZM21.3636 28.6667C21.3636 27.5621 20.4682 26.6667 19.3636 26.6667H18.0909C16.9863 26.6667 16.0909 27.5621 16.0909 28.6667V30C16.0909 31.1046 16.9863 32 18.0909 32H19.3636C20.4682 32 21.3636 31.1046 21.3636 30V28.6667ZM42.4545 28.6667C42.4545 27.5621 41.5591 26.6667 40.4545 26.6667H39.1818C38.0772 26.6667 37.1818 27.5621 37.1818 28.6667V30C37.1818 31.1046 38.0772 32 39.1818 32H40.4545C41.5591 32 42.4545 31.1046 42.4545 30V28.6667ZM10.8182 18C10.8182 16.8954 9.92275 16 8.81818 16H7.54546C6.44089 16 5.54545 16.8954 5.54545 18V19.3333C5.54545 20.4379 6.44088 21.3333 7.54545 21.3333H8.81818C9.92275 21.3333 10.8182 20.4379 10.8182 19.3333V18ZM31.9091 18C31.9091 16.8954 31.0137 16 29.9091 16H28.6364C27.5318 16 26.6364 16.8954 26.6364 18V19.3333C26.6364 20.4379 27.5318 21.3333 28.6364 21.3333H29.9091C31.0137 21.3333 31.9091 20.4379 31.9091 19.3333V18ZM21.3636 18C21.3636 16.8954 20.4682 16 19.3636 16H18.0909C16.9863 16 16.0909 16.8954 16.0909 18V19.3333C16.0909 20.4379 16.9863 21.3333 18.0909 21.3333H19.3636C20.4682 21.3333 21.3636 20.4379 21.3636 19.3333V18ZM42.4545 18C42.4545 16.8954 41.5591 16 40.4545 16H39.1818C38.0772 16 37.1818 16.8954 37.1818 18V19.3333C37.1818 20.4379 38.0772 21.3333 39.1818 21.3333H40.4545C41.5591 21.3333 42.4545 20.4379 42.4545 19.3333V18ZM10.8182 7.33333C10.8182 6.22877 9.92275 5.33333 8.81818 5.33333H7.54546C6.44089 5.33333 5.54545 6.22876 5.54545 7.33333V8.66667C5.54545 9.77124 6.44088 10.6667 7.54545 10.6667H8.81818C9.92275 10.6667 10.8182 9.77124 10.8182 8.66667V7.33333ZM31.9091 7.33333C31.9091 6.22877 31.0137 5.33333 29.9091 5.33333H28.6364C27.5318 5.33333 26.6364 6.22876 26.6364 7.33333V8.66667C26.6364 9.77124 27.5318 10.6667 28.6364 10.6667H29.9091C31.0137 10.6667 31.9091 9.77124 31.9091 8.66667V7.33333ZM21.3636 7.33333C21.3636 6.22877 20.4682 5.33333 19.3636 5.33333H18.0909C16.9863 5.33333 16.0909 6.22876 16.0909 7.33333V8.66667C16.0909 9.77124 16.9863 10.6667 18.0909 10.6667H19.3636C20.4682 10.6667 21.3636 9.77124 21.3636 8.66667V7.33333ZM42.4545 7.33333C42.4545 6.22877 41.5591 5.33333 40.4545 5.33333H39.1818C38.0772 5.33333 37.1818 6.22876 37.1818 7.33333V8.66667C37.1818 9.77124 38.0772 10.6667 39.1818 10.6667H40.4545C41.5591 10.6667 42.4545 9.77124 42.4545 8.66667V7.33333Z" fill="#EF233C"/>
</g>
<defs>
<clipPath id="clip0_1431_1442">
<rect width="48" height="68" fill="white"/>
</clipPath>
</defs>
</svg>
