<?xml version="1.0" encoding="UTF-8" standalone="no"?>
<svg
   id="Layer_1"
   data-name="Layer 1"
   viewBox="0 0 165.79 165.24"
   version="1.1"
   sodipodi:docname="metro.svg"
   inkscape:version="1.3.2 (091e20e, 2023-11-25, custom)"
   xmlns:inkscape="http://www.inkscape.org/namespaces/inkscape"
   xmlns:sodipodi="http://sodipodi.sourceforge.net/DTD/sodipodi-0.dtd"
   xmlns="http://www.w3.org/2000/svg"
   xmlns:svg="http://www.w3.org/2000/svg">
  <defs
     id="defs3" />
  <sodipodi:namedview
     id="namedview3"
     pagecolor="#ffffff"
     bordercolor="#000000"
     borderopacity="0.25"
     inkscape:showpageshadow="2"
     inkscape:pageopacity="0.0"
     inkscape:pagecheckerboard="0"
     inkscape:deskcolor="#d1d1d1"
     inkscape:zoom="4.8717016"
     inkscape:cx="82.82527"
     inkscape:cy="82.620003"
     inkscape:window-width="1920"
     inkscape:window-height="1009"
     inkscape:window-x="-8"
     inkscape:window-y="351"
     inkscape:window-maximized="1"
     inkscape:current-layer="Layer_1" />
  <path
     d="m39.36,49.11c.47-3.9.94-7.52,1.35-11.14,1.29-11.54,3.78-22.83,7.11-33.94C48.49,1.79,49.63.08,52.27,0c4.14-.12,5.87,2.2,4.79,6.36-2.19,8.46-4.86,16.83-6.4,25.4-4.54,25.3-1.39,49.78,9.09,73.27,1.76,3.95,3.79,7.79,5.71,11.67.18.35.47.65,1.2,1.64,0-1.82.02-2.93,0-4.04-.23-10.58,1.01-20.93,4.64-30.95,4.33-11.97,11.65-21.81,21.07-30.19,7.02-6.24,14.96-11.1,23.17-15.6,1.04-.57,1.86-2.02,2.23-3.23,2.19-7.07,4.17-14.21,6.34-21.29.63-2.05,1.7-3.75,4.39-3.64,4.34.17,6.24,2.78,4.75,6.86-1.4,3.83-2.88,7.63-4.31,11.45-.16.43-.21.91-.43,1.95,2.36-1.39,4.18-2.66,6.16-3.6,7.96-3.77,15.92-7.57,24-11.08,4.15-1.81,7.23.58,7.12,4.96-.06,2.57-2.02,3.27-3.79,4.12-5.33,2.55-10.79,4.86-16.05,7.55-6.53,3.33-12.95,6.88-19.33,10.48-1.14.64-2.27,1.81-2.77,3-6.38,15.18-10.67,30.87-10.48,47.48.26,21.76,8.88,39.7,25.27,53.9,3.89,3.37,8.12,6.35,12.27,9.42,2.67,1.97,3.55,4.66,2.11,7.1-1.51,2.53-4.04,3.01-7.15,1.12-14.92-9.06-27.7-20.26-35.51-36.25-5.1-10.44-7.28-21.55-7.21-33.15.08-12.99,3.1-25.41,7.02-37.67.38-1.19.78-2.37,1.15-3.57.04-.13-.08-.31-.26-.93-2.19,1.51-4.31,2.87-6.32,4.37-9.21,6.85-17.01,14.9-21.98,25.44-3.46,7.35-5.14,15.11-5.64,23.15-.7,11.08.95,21.94,3.33,32.72.37,1.7.66,3.44.82,5.17.2,2.26-.88,3.91-2.96,4.71-1.95.75-3.55,0-4.89-1.52-6.57-7.4-11.87-15.66-16.28-24.47-2.83-5.66-5.37-11.46-8.05-17.2-.27-.58-.61-1.12-1.18-2.17-.96,3.43-1.71,6.37-2.62,9.26-6.36,20.17-18.94,35.49-36.69,46.7-3.99,2.52-6.83,1.55-8.27-2.57-.92-2.62.28-4.51,2.22-6.11,4.56-3.75,9.33-7.29,13.67-11.28,10.15-9.33,17.49-20.48,20.84-34.02,3.22-13.03,1.86-25.81-2.34-38.38-4.63-13.85-12.38-25.94-21.29-37.37-1.22-1.57-2.43-3.2-3.28-4.98-1.3-2.73-.45-5.44,1.79-6.79,2.36-1.42,4.5-1.04,6.62,1.41,7.35,8.56,13.86,17.69,18.9,27.83.37.74.77,1.48,1.18,2.2.07.12.27.17.76.48Z"
     style="fill:#eb1f22;stroke-width:0px;fill-opacity:1"
     id="path1" />
  <path
     d="m30.03,19.67c-5.51.01-9.67-4.16-9.62-9.64.05-5.18,4.26-9.39,9.39-9.4,5.45,0,9.81,4.27,9.77,9.57-.05,5.37-4.16,9.46-9.54,9.47Z"
     style="fill:#eb1f22;stroke-width:0px;fill-opacity:1"
     id="path2" />
  <path
     d="m144.78,18.71c-5.27-.16-9.12-4.14-9.01-9.31.11-5.3,4.24-9.17,9.58-8.98,4.98.18,8.92,4.32,8.83,9.29-.09,5.05-4.37,9.15-9.39,9Z"
     style="fill:#eb1f22;stroke-width:0px;fill-opacity:1"
     id="path3" />
</svg>
