<svg width="46" height="47" viewBox="0 0 46 47" fill="none" xmlns="http://www.w3.org/2000/svg">
<path d="M38.3333 36.1667C38.3333 37.8235 36.9902 39.1667 35.3333 39.1667H33.6667C32.0098 39.1667 30.6667 37.8235 30.6667 36.1667V34.3333C30.6667 32.6765 32.0098 31.3333 33.6667 31.3333H35.3333C36.9902 31.3333 38.3333 32.6765 38.3333 34.3333V36.1667ZM26.8333 22.5833C26.8333 20.9265 25.4902 19.5833 23.8333 19.5833H22.1667C20.5098 19.5833 19.1667 20.9265 19.1667 22.5833V24.4167C19.1667 26.0735 20.5098 27.4167 22.1667 27.4167H23.8333C25.4902 27.4167 26.8333 26.0735 26.8333 24.4167V22.5833ZM38.3333 22.5833C38.3333 20.9265 36.9902 19.5833 35.3333 19.5833H33.6667C32.0098 19.5833 30.6667 20.9265 30.6667 22.5833V23.5V24.4167C30.6667 26.0735 32.0098 27.4167 33.6667 27.4167H35.3333C36.9902 27.4167 38.3333 26.0735 38.3333 24.4167V22.5833ZM15.3333 34.3333C15.3333 32.6765 13.9902 31.3333 12.3333 31.3333H10.6667C9.00981 31.3333 7.66667 32.6765 7.66667 34.3333V36.1667C7.66667 37.8235 9.00981 39.1667 10.6667 39.1667H12.3333C13.9902 39.1667 15.3333 37.8235 15.3333 36.1667V34.3333ZM26.8333 34.3333C26.8333 32.6765 25.4902 31.3333 23.8333 31.3333H22.1667C20.5098 31.3333 19.1667 32.6765 19.1667 34.3333V36.1667C19.1667 37.8235 20.5098 39.1667 22.1667 39.1667H23.8333C25.4902 39.1667 26.8333 37.8235 26.8333 36.1667V34.3333ZM15.3333 22.5833C15.3333 20.9265 13.9902 19.5833 12.3333 19.5833H10.6667C9.00981 19.5833 7.66667 20.9265 7.66667 22.5833V24.4167C7.66667 26.0735 9.00981 27.4167 10.6667 27.4167H12.3333C13.9902 27.4167 15.3333 26.0735 15.3333 24.4167V22.5833ZM43.125 3.91667C44.7128 3.91667 46 5.20385 46 6.79167V44C46 45.6569 44.6569 47 43 47H3C1.34315 47 0 45.6569 0 44V6.79166C0 5.20385 1.28718 3.91667 2.875 3.91667H3.79167C4.87322 3.91667 5.75 4.79344 5.75 5.875C5.75 8.03504 7.46925 9.79167 9.58333 9.79167C11.6974 9.79167 13.4167 8.03504 13.4167 5.875C13.4167 4.79344 14.2934 3.91667 15.375 3.91667H30.625C31.7066 3.91667 32.5833 4.79344 32.5833 5.875C32.5833 8.03504 34.3026 9.79167 36.4167 9.79167C38.5307 9.79167 40.25 8.03504 40.25 5.875C40.25 4.79344 41.1268 3.91667 42.2083 3.91667H43.125ZM42.1667 18.6667C42.1667 17.0098 40.8235 15.6667 39.1667 15.6667H6.83333C5.17648 15.6667 3.83333 17.0098 3.83333 18.6667V40.0833C3.83333 41.7402 5.17648 43.0833 6.83333 43.0833H39.1667C40.8235 43.0833 42.1667 41.7402 42.1667 40.0833V18.6667ZM38.3333 1.95833C38.3333 0.877333 37.4766 0 36.4167 0C35.3567 0 34.5 0.877333 34.5 1.95833V5.875C34.5 6.956 35.3567 7.83333 36.4167 7.83333C37.4766 7.83333 38.3333 6.956 38.3333 5.875V1.95833ZM11.5 5.875C11.5 6.956 10.6432 7.83333 9.58333 7.83333C8.52342 7.83333 7.66667 6.956 7.66667 5.875V1.95833C7.66667 0.877333 8.52342 0 9.58333 0C10.6432 0 11.5 0.877333 11.5 1.95833V5.875Z" fill="#EF233C"/>
</svg>
