<svg width="54" height="54" viewBox="0 0 54 54" fill="none" xmlns="http://www.w3.org/2000/svg">
<g clip-path="url(#clip0_1431_1451)">
<path fill-rule="evenodd" clip-rule="evenodd" d="M24.1317 26.0119C24.9358 26.9815 26.4251 26.9758 27.2215 25.9999L29.8868 22.734C30.843 21.51 30.3908 20.511 29.763 17.8628C29.3018 15.903 29.664 13.6913 31.05 12.2378C34.4557 8.67159 40.8883 2.19481 42.6283 0.445518C42.8839 0.188614 43.2865 0.168317 43.5717 0.391869C43.8823 0.635347 43.937 1.08435 43.6941 1.39537L36.5317 10.5651C36.1411 11.0651 36.2299 11.7871 36.7299 12.1776C37.2168 12.5579 37.9171 12.485 38.3153 12.0128L45.8718 3.05036C46.1163 2.76046 46.5461 2.71545 46.8452 2.94843C47.147 3.18337 47.2067 3.61582 46.9801 3.9238L40.054 13.3358C39.6796 13.8446 39.7775 14.5588 40.2751 14.948C40.769 15.3344 41.4798 15.2618 41.8855 14.7836L49.492 5.81637C49.7201 5.54739 50.12 5.5067 50.3977 5.72419C50.6763 5.94244 50.7319 6.34224 50.5233 6.62817L43.5914 16.1306C43.2265 16.6308 43.3244 17.3304 43.8126 17.7112C44.3119 18.1007 45.0324 18.0119 45.4222 17.5128L52.62 8.29776C52.8441 8.01082 53.2584 7.95984 53.5454 8.18388C53.8057 8.38708 53.8783 8.74683 53.7113 9.03173C52.511 11.0795 47.8561 19.0045 45.2295 23.2425C44.1518 24.9773 42.0233 25.8548 39.978 25.8683C37.2533 25.884 36.1868 25.668 35.2148 26.9123L31.1204 31.9292C30.5171 32.6685 30.5202 33.7312 31.1275 34.4672C36.1815 40.5925 40.486 45.8324 42.6218 48.5663C44.3565 50.787 42.768 54.0135 39.9263 54.0135C38.9813 54.0135 38.007 53.6288 37.3005 52.7243L19.7269 31.5519C19.0377 30.7215 17.8146 30.5873 16.9635 31.2509C16.639 31.504 16.2756 31.7876 15.8864 32.0918C14.9436 32.8286 13.5679 32.5827 12.9566 31.554C6.24383 20.2589 0.0157674 6.96025 0.0157674 2.079C0.0157674 1.791 -0.0607325 0 1.66277 0C2.21402 0 2.77202 0.261 3.17927 0.774C4.26726 2.14628 14.284 14.1368 24.1317 26.0119ZM17.5018 37.9141C18.2985 36.9355 19.7914 36.9302 20.5949 37.9033L22.3919 40.0793C22.999 40.8145 23.0027 41.876 22.4008 42.6155L14.1773 52.7175C13.5135 53.568 12.5213 54.0135 11.5178 54.0135C8.82227 54.0135 7.03802 50.859 8.84252 48.5505L17.5018 37.9141Z" fill="#EF233C"/>
</g>
<defs>
<clipPath id="clip0_1431_1451">
<rect width="54" height="54" fill="white"/>
</clipPath>
</defs>
</svg>
