<?xml version="1.0" encoding="UTF-8" standalone="no"?>
<svg
   id="Capa_1"
   stroke="white"
   enable-background="new 0 0 512 512"
   height="512"
   viewBox="0 0 512 512"
   width="512"
   version="1.1"
   sodipodi:docname="badminton.svg"
   inkscape:version="1.3.2 (091e20e, 2023-11-25, custom)"
   xmlns:inkscape="http://www.inkscape.org/namespaces/inkscape"
   xmlns:sodipodi="http://sodipodi.sourceforge.net/DTD/sodipodi-0.dtd"
   xmlns="http://www.w3.org/2000/svg"
   xmlns:svg="http://www.w3.org/2000/svg">
  <defs
     id="defs8" />
  <sodipodi:namedview
     id="namedview8"
     pagecolor="#ffffff"
     bordercolor="#000000"
     borderopacity="0.25"
     inkscape:showpageshadow="2"
     inkscape:pageopacity="0.0"
     inkscape:pagecheckerboard="0"
     inkscape:deskcolor="#d1d1d1"
     inkscape:zoom="1.5722656"
     inkscape:cx="256"
     inkscape:cy="306.88199"
     inkscape:window-width="1920"
     inkscape:window-height="1009"
     inkscape:window-x="-8"
     inkscape:window-y="351"
     inkscape:window-maximized="1"
     inkscape:current-layer="Capa_1" />
  <g
     id="g8"
     style="fill:#ffffff">
    <g
       id="g5"
       style="fill:#ffffff">
      <g
         fill="rgb(0,0,0)"
         id="g4"
         style="fill:#ffffff">
        <path
           d="m465.722 47.608c-31.01-31.01-73.781-46.901-120.417-44.766-43.726 2.008-86.564 19.697-121.41 49.972l-40.281-43.337c-.118-.127-.24-.252-.365-.372-9.674-9.399-24.342-11.782-36.507-5.926l-.178.086c-12.851 6.185-20.187 20.328-17.843 34.395l.497 2.982c.86 5.155-1.83 10.34-6.54 12.607l-2.725 1.312c-12.849 6.185-20.186 20.328-17.841 34.394l.497 2.984c.86 5.155-1.829 10.339-6.541 12.607l-2.728 1.314c-12.848 6.185-20.184 20.327-17.84 34.392 2.213 13.283 12.589 23.897 25.82 26.409.17.032.34.06.512.084l52.834 7.282c-4.093 24.71-3.136 49.675 2.868 72.68 4.334 16.606 11.32 32.238 20.592 46.262l-88.522 88.521c-7.196-.229-14.466 2.389-19.946 7.868l-60.439 60.44c-5.096 5.095-7.903 11.871-7.903 19.078 0 7.206 2.806 13.982 7.903 19.077l16.158 16.158c5.26 5.259 12.168 7.89 19.077 7.889 6.908-.001 13.819-2.63 19.078-7.889l60.441-60.44c5.479-5.48 8.097-12.75 7.868-19.945l88.484-88.484c25.554 16.976 56.042 25.952 88.784 25.952 3.944 0 7.924-.131 11.93-.392 47.532-3.111 93.37-24.486 129.07-60.185 35.699-35.7 57.074-81.539 60.185-129.071 3.142-48.037-12.687-92.053-44.572-123.938zm-370.051 89.284c-.859-5.155 1.83-10.338 6.541-12.606l2.728-1.314c12.849-6.185 20.185-20.328 17.84-34.394l-.497-2.983c-.859-5.156 1.83-10.34 6.54-12.607l2.725-1.312c12.85-6.187 20.185-20.33 17.841-34.395l-.497-2.982c-.859-5.156 1.83-10.34 6.554-12.614l.179-.086c4.388-2.112 9.67-1.296 13.217 2.023l67.683 72.817-33.032 63.677-98.573-13.586c-4.746-.994-8.45-4.842-9.249-9.638zm249.766-71.235 17.968 17.968-17.968 17.968-17.968-17.969zm-27.871 232.35-17.968-17.968 17.749-17.749 17.968 17.968zm-93.893-110.585 20.617 10.694c1.033.536 2.082 1.025 3.14 1.486l-14.134 14.134-17.968-17.969zm89.104-11.009c4.127-7.956 6.03-16.66 5.674-25.381l16.865 16.864-17.934 17.934-6.349-6.349c.609-1 1.199-2.018 1.744-3.068zm-10.878 14.18 5.36 5.36-18.003 18.003-11.207-11.206c1.669-.351 3.331-.779 4.978-1.3 7.12-2.257 13.514-5.972 18.872-10.857zm15.483 15.482 17.968 17.968-18.003 18.003-17.968-17.968zm10.122-10.122 17.934-17.934 17.968 17.968-17.934 17.934zm28.056-28.056 17.968-17.968 17.968 17.968-17.968 17.968zm-10.122-10.122-17.968-17.968 17.968-17.968 17.968 17.969zm-63.78-31.696c7.197 3.732 12.509 10.045 14.958 17.773 2.449 7.729 1.742 15.949-1.992 23.145-3.733 7.197-10.045 12.509-17.774 14.958-7.728 2.449-15.948 1.743-23.145-1.992l-6.308-3.272 27.952-53.885zm-20.492 80.031 17.968 17.968-17.749 17.749-17.968-17.968zm28.09 28.09 17.968 17.968-17.749 17.749-17.968-17.968zm38.213 17.968 18.003-18.003 17.968 17.968-18.003 18.003zm28.125-28.125 17.934-17.934 17.968 17.968-17.934 17.934zm28.056-28.056 17.968-17.968 17.968 17.969-17.968 17.968zm28.09-28.09 17.968-17.968 17.969 17.969-17.969 17.968zm-10.122-10.122-17.968-17.968 17.968-17.968 17.968 17.968zm-28.09-28.091-17.968-17.969 17.968-17.968 17.969 17.969zm-38.213-17.968-17.968 17.968-17.969-17.969 17.968-17.968zm-88.442-4.14c.68.646 1.455 1.213 2.329 1.666l13.441 6.972-27.953 53.886-13.441-6.972c-.874-.454-1.784-.76-2.703-.944zm-23.701 116.282-9.379 9.379c-2.224-7.37-3.656-15.078-4.269-23.027zm10.123 10.122 17.969 17.969-17.59 17.59c-5.719-6.616-10.474-13.901-14.223-21.714zm28.09 28.091 17.968 17.968-13.792 13.792c-7.782-3.705-15.093-8.426-21.761-14.175zm28.091 28.09 13.524 13.524c-7.807-.623-15.453-2.03-22.814-4.234zm55.961.22 7.124 7.124c-6.285 2.055-12.63 3.638-18.977 4.728zm21.578 1.49c-.232-.329-.488-.646-.783-.94l-10.673-10.673 18.003-18.003 16.492 16.492c-7.41 5.156-15.134 9.532-23.039 13.124zm34.481-21.926-17.811-17.811 17.934-17.934 17.818 17.818c-2.72 3.202-5.585 6.316-8.598 9.329-3.027 3.025-6.147 5.888-9.343 8.598zm26.753-29.359-16.509-16.508 17.968-17.968 11.624 11.624c-3.614 7.907-7.991 15.557-13.083 22.852zm18.777-37.403-7.195-7.195 11.949-11.949c-1.1 6.464-2.696 12.86-4.754 19.144zm-7.195-63.377 9.157-9.157c2.162 7.2 3.577 14.737 4.214 22.528zm-10.122-10.122-17.968-17.968 17.409-17.409c5.701 6.603 10.458 13.889 14.207 21.729zm-28.091-28.09-17.968-17.969 13.639-13.639c7.775 3.717 15.077 8.45 21.738 14.2zm-28.09-28.091-13.412-13.412c7.725.645 15.288 2.058 22.571 4.253zm-56.181 0-7.22-7.22c6.371-2.097 12.803-3.693 19.231-4.792zm-21.753-1.509 11.631 11.631-17.968 17.968-16.51-16.51c7.361-5.137 15.018-9.503 22.847-13.089zm-186.083 357.217-60.44 60.44c-2.547 2.546-6.69 2.546-9.236 0l-16.158-16.158c-1.234-1.233-1.913-2.874-1.913-4.617 0-1.744.679-3.385 1.913-4.618l60.44-60.44c1.273-1.273 2.945-1.91 4.618-1.91s3.345.637 4.618 1.91l16.158 16.158c2.546 2.546 2.546 6.689 0 9.235zm13.039-25.116-13.315-13.315 81.426-81.426c2.075 2.357 4.217 4.655 6.438 6.876 2.23 2.23 4.526 4.371 6.872 6.443zm313.097-117.939c-66.085 66.087-166.611 73.09-224.089 15.614-31.683-31.683-44.848-76.92-36.636-124.951l21.632 2.982c-2.761 18.022-1.995 36.125 2.286 52.814 5.128 19.988 15.356 38.07 29.58 52.294 22.432 22.431 52.49 33.428 83.95 33.426 37.791-.002 77.6-15.876 108.59-46.866 27.371-27.372 43.912-62.363 46.577-98.528 2.694-36.562-9.074-69.949-33.137-94.012-46.435-46.434-125.495-44.258-182.41 4.109l-14.167-15.241c66.388-57.323 158.896-60.274 213.439-5.729 57.476 57.475 50.471 158.001-15.615 224.088z"
           id="path1"
           style="fill:#ffffff" />
        <path
           d="m207.534 104.787c1.06.555 2.195.818 3.314.818 2.578 0 5.067-1.396 6.346-3.837 1.834-3.502.482-7.827-3.02-9.661l-9.963-5.218c-3.501-1.833-7.827-.482-9.661 3.019-1.834 3.502-.482 7.827 3.02 9.661z"
           id="path2"
           style="fill:#ffffff" />
        <path
           d="m164.161 68.905 9.963 5.217c1.06.555 2.195.818 3.314.818 2.578 0 5.068-1.396 6.346-3.838 1.834-3.502.481-7.827-3.02-9.66l-9.963-5.217c-3.501-1.833-7.827-.482-9.66 3.02-1.834 3.502-.482 7.827 3.02 9.66z"
           id="path3"
           style="fill:#ffffff" />
        <path
           d="m181.267 103.66-10.432-4.204c-3.666-1.473-7.836.298-9.313 3.964s.297 7.836 3.964 9.314l10.432 4.204c.877.353 1.782.52 2.673.52 2.834 0 5.517-1.694 6.641-4.484 1.476-3.667-.298-7.836-3.965-9.314z"
           id="path4"
           style="fill:#ffffff" />
      </g>
    </g>
    <g
       fill="rgb(0,0,0)"
       id="g7"
       style="fill:#ffffff">
      <path
         d="m51.458 196.108-8.399 23.616c-.36 1.011-1.071 1.812-1.97 2.217l-20.982 9.453c-2.964 1.336-2.964 6.059 0 7.394l20.982 9.453c.898.405 1.61 1.206 1.97 2.217l8.399 23.616c1.187 3.336 5.383 3.336 6.569 0l8.399-23.616c.36-1.011 1.072-1.812 1.97-2.217l20.982-9.453c2.964-1.336 2.964-6.059 0-7.394l-20.982-9.453c-.898-.405-1.61-1.206-1.97-2.217l-8.399-23.616c-1.186-3.336-5.382-3.336-6.569 0z"
         id="path5"
         style="fill:#ffffff" />
      <path
         d="m287.308 400.348-6.23 17.518c-.267.75-.795 1.344-1.461 1.645l-15.564 7.012c-2.199.991-2.199 4.494 0 5.485l15.564 7.012c.666.3 1.194.895 1.461 1.645l6.23 17.518c.88 2.475 3.993 2.475 4.873 0l6.23-17.518c.267-.75.795-1.344 1.461-1.645l15.564-7.012c2.199-.991 2.199-4.494 0-5.485l-15.564-7.012c-.666-.3-1.194-.895-1.461-1.645l-6.23-17.518c-.88-2.475-3.992-2.475-4.873 0z"
         id="path6"
         style="fill:#ffffff" />
      <path
         d="m5.027 24.429c0 10.128 8.211 18.339 18.339 18.339s18.339-8.211 18.339-18.339c0-10.129-8.211-18.339-18.339-18.34-10.128 0-18.339 8.211-18.339 18.34z"
         id="path7"
         style="fill:#ffffff" />
      <circle
         cx="126.466"
         cy="281.024"
         r="7.668"
         id="circle7"
         style="fill:#ffffff" />
    </g>
  </g>
</svg>
