<?xml version="1.0" encoding="UTF-8" standalone="no"?>
<!-- Created with Inkscape (http://www.inkscape.org/) -->

<svg
   version="1.1"
   id="svg9"
   xml:space="preserve"
   viewBox="0 0 682.66669 682.66669"
   sodipodi:docname="mail-inbox-app.svg"
   inkscape:version="1.3.2 (091e20e, 2023-11-25, custom)"
   xmlns:inkscape="http://www.inkscape.org/namespaces/inkscape"
   xmlns:sodipodi="http://sodipodi.sourceforge.net/DTD/sodipodi-0.dtd"
   xmlns="http://www.w3.org/2000/svg"
   xmlns:svg="http://www.w3.org/2000/svg"><sodipodi:namedview
     id="namedview1"
     pagecolor="#ffffff"
     bordercolor="#000000"
     borderopacity="0.25"
     inkscape:showpageshadow="2"
     inkscape:pageopacity="0.0"
     inkscape:pagecheckerboard="0"
     inkscape:deskcolor="#d1d1d1"
     inkscape:zoom="1.1791992"
     inkscape:cx="341.33334"
     inkscape:cy="341.33334"
     inkscape:window-width="1920"
     inkscape:window-height="1009"
     inkscape:window-x="-8"
     inkscape:window-y="351"
     inkscape:window-maximized="1"
     inkscape:current-layer="g29" /><defs
     id="defs13"><clipPath
       clipPathUnits="userSpaceOnUse"
       id="clipPath23"><path
         d="M 0,512 H 512 V 0 H 0 Z"
         id="path21" /></clipPath></defs><g
     id="g15"
     transform="matrix(1.3333333,0,0,-1.3333333,0,682.66667)"
     style="stroke:#3771c8;stroke-opacity:1"><g
       id="g17"
       style="stroke:#3771c8;stroke-opacity:1"><g
         id="g19"
         clip-path="url(#clipPath23)"
         style="stroke:#3771c8;stroke-opacity:1"><g
           id="g25"
           transform="translate(452,444)"
           style="stroke:#3771c8;stroke-opacity:1"><path
             d="m 0,0 h -392 c -22.091,0 -40,-17.909 -40,-40 v -39.446 l 212.127,-157.782 c 14.17,-10.54 33.576,-10.54 47.746,0 L 40,-79.446 V -40 C 40,-17.909 22.091,0 0,0 Z"
             style="fill:none;stroke:#3771c8;stroke-width:40;stroke-linecap:butt;stroke-linejoin:miter;stroke-miterlimit:10;stroke-dasharray:none;stroke-opacity:1"
             id="path27" /></g><g
           id="g29"
           transform="translate(472,274.9006)"
           style="display:inline;stroke:#3771c8;stroke-opacity:1"><path
             d="m 0,0 v -166.901 c 0,-11.027 -8.972,-20 -20,-20 h -392 c -11.028,0 -20,8.973 -20,20 V 0 l -40,29.752 v -196.653 c 0,-33.084 26.916,-60 60,-60 h 392 c 33.084,0 60,26.916 60,60 V 29.752 Z"
             style="fill:#3771c8;fill-opacity:1;fill-rule:nonzero;stroke:none;stroke-opacity:1"
             id="path31" /></g></g></g></g></svg>
