<?xml version="1.0" encoding="UTF-8" standalone="no"?>
<svg
   height="512pt"
   viewBox="0 0 512 512"
   width="512pt"
   version="1.1"
   id="svg16"
   sodipodi:docname="snooker.svg"
   inkscape:version="1.3.2 (091e20e, 2023-11-25, custom)"
   xmlns:inkscape="http://www.inkscape.org/namespaces/inkscape"
   xmlns:sodipodi="http://sodipodi.sourceforge.net/DTD/sodipodi-0.dtd"
   xmlns="http://www.w3.org/2000/svg"
   xmlns:svg="http://www.w3.org/2000/svg">
  <defs
     id="defs16" />
  <sodipodi:namedview
     id="namedview16"
     pagecolor="#ffffff"
     bordercolor="#000000"
     borderopacity="0.25"
     inkscape:showpageshadow="2"
     inkscape:pageopacity="0.0"
     inkscape:pagecheckerboard="0"
     inkscape:deskcolor="#d1d1d1"
     inkscape:document-units="pt"
     inkscape:zoom="1.1791992"
     inkscape:cx="341.33333"
     inkscape:cy="341.33333"
     inkscape:window-width="1920"
     inkscape:window-height="1009"
     inkscape:window-x="-8"
     inkscape:window-y="351"
     inkscape:window-maximized="1"
     inkscape:current-layer="svg16" />
  <path
     d="m488.976562 0h-16.015624c-12.417969 0-22.519532 10.105469-22.519532 22.523438v489.476562h15.011719v-416.90625h31.03125v45.402344h15.015625v-117.972656c0-12.417969-10.101562-22.523438-22.523438-22.523438zm-23.523437 80.078125v-57.554687c0-4.140626 3.367187-7.507813 7.507813-7.507813h16.015624c4.140626 0 7.507813 3.367187 7.507813 7.507813v57.554687zm0 0"
     id="path1"
     style="fill:#ffffff" />
  <path
     d="m496.484375 185.539062h15.015625v326.460938h-15.015625zm0 0"
     id="path2"
     style="fill:#ffffff" />
  <path
     d="m496.484375 155.507812h15.015625v15.015626h-15.015625zm0 0"
     id="path3"
     style="fill:#ffffff" />
  <path
     d="m275.269531 145.640625c0-31.734375-25.820312-57.554687-57.558593-57.554687-31.734376 0-57.554688 25.820312-57.554688 57.554687 0 31.738281 25.820312 57.558594 57.554688 57.558594 31.738281 0 57.558593-25.820313 57.558593-57.558594zm-57.558593 42.542969c-23.457032 0-42.539063-19.082032-42.539063-42.542969 0-23.457031 19.082031-42.539063 42.539063-42.539063 23.460937 0 42.542968 19.082032 42.542968 42.539063 0 23.460937-19.082031 42.542969-42.542968 42.542969zm0 0"
     id="path4"
     style="fill:#ffffff" />
  <path
     d="m282.777344 198.195312c-31.738282 0-57.558594 25.816407-57.558594 57.554688s25.820312 57.554688 57.558594 57.554688c31.734375 0 57.554687-25.816407 57.554687-57.554688s-25.820312-57.554688-57.554687-57.554688zm0 100.097657c-23.460938 0-42.542969-19.085938-42.542969-42.542969s19.082031-42.542969 42.542969-42.542969c23.457031 0 42.539062 19.085938 42.539062 42.542969s-19.082031 42.542969-42.539062 42.542969zm0 0"
     id="path5"
     style="fill:#ffffff" />
  <path
     d="m210.207031 255.75c0-31.738281-25.820312-57.554688-57.558593-57.554688-31.738282 0-57.554688 25.816407-57.554688 57.554688s25.816406 57.554688 57.554688 57.554688c31.738281 0 57.558593-25.816407 57.558593-57.554688zm-57.558593 42.542969c-23.457032 0-42.539063-19.085938-42.539063-42.542969s19.082031-42.542969 42.539063-42.542969c23.457031 0 42.542968 19.085938 42.542968 42.542969s-19.085937 42.542969-42.542968 42.542969zm0 0"
     id="path6"
     style="fill:#ffffff" />
  <path
     d="m160.15625 365.855469c0 31.738281 25.820312 57.558593 57.554688 57.558593 31.738281 0 57.558593-25.820312 57.558593-57.558593 0-31.734375-25.820312-57.554688-57.558593-57.554688-31.734376 0-57.554688 25.820313-57.554688 57.554688zm57.554688-42.539063c23.460937 0 42.542968 19.082032 42.542968 42.539063 0 23.460937-19.082031 42.542969-42.542968 42.542969-23.457032 0-42.539063-19.082032-42.539063-42.542969 0-23.457031 19.082031-42.539063 42.539063-42.539063zm0 0"
     id="path7"
     style="fill:#ffffff" />
  <path
     d="m87.585938 308.300781c-31.738282 0-57.554688 25.820313-57.554688 57.554688 0 31.738281 25.816406 57.558593 57.554688 57.558593 31.738281 0 57.554687-25.820312 57.554687-57.558593 0-31.734375-25.816406-57.554688-57.554687-57.554688zm0 100.097657c-23.457032 0-42.542969-19.082032-42.542969-42.542969 0-23.457031 19.085937-42.539063 42.542969-42.539063 23.457031 0 42.542968 19.082032 42.542968 42.539063 0 23.460937-19.085937 42.542969-42.542968 42.542969zm0 0"
     id="path8"
     style="fill:#ffffff" />
  <path
     d="m427.613281 329.714844-.144531-.316406-88.765625-155.039063-13.03125 7.460937 88.417969 154.425782c4.1875 9.316406 6.316406 19.261718 6.320312 29.570312v.132813c-.050781 39.300781-33.777344 72.480469-73.691406 72.480469h-191.65625v15.011718h191.65625c23.355469 0 45.507812-9.113281 62.378906-25.667968 16.976563-16.65625 26.328125-38.648438 26.328125-61.917969v-.171875c-.023437-12.535156-2.652343-24.636719-7.8125-35.96875zm0 0"
     id="path9"
     style="fill:#ffffff" />
  <path
     d="m310.75 155.746094 13.027344-7.460938 7.460937 13.03125-13.027343 7.460938zm0 0"
     id="path10"
     style="fill:#ffffff" />
  <path
     d="m15.015625 365.816406c.003906-10.304687 2.132813-20.253906 6.320313-29.570312l127.976562-223.519532c14.003906-24.460937 40.214844-39.65625 68.398438-39.65625 28.1875 0 54.398437 15.195313 68.402343 39.65625l17.179688 30.003907 13.03125-7.460938-17.179688-30c-16.671875-29.125-47.875-47.210937-81.433593-47.210937-33.554688 0-64.757813 18.085937-81.429688 47.210937l-128.152344 223.824219-.316406.621094c-5.175781 11.371094-7.8046875 23.515625-7.8125 36.140625 0 23.269531 9.347656 45.261719 26.328125 61.917969 16.867187 16.554687 39.023437 25.667968 62.375 25.667968h21.316406v-15.011718h-21.316406c-39.941406 0-73.6875-33.234376-73.6875-72.613282zm0 0"
     id="path11"
     style="fill:#ffffff" />
  <path
     d="m125.035156 438.429688h15.015625v15.011718h-15.015625zm0 0"
     id="path12"
     style="fill:#ffffff" />
  <path
     d="m290.285156 365.855469c0 31.738281 25.816406 57.558593 57.554688 57.558593 31.738281 0 57.554687-25.820312 57.554687-57.558593 0-31.734375-25.816406-57.554688-57.554687-57.554688-31.738282 0-57.554688 25.820313-57.554688 57.554688zm57.554688-42.539063c23.457031 0 42.542968 19.082032 42.542968 42.539063 0 23.460937-19.085937 42.542969-42.542968 42.542969-23.457032 0-42.542969-19.082032-42.542969-42.542969 0-23.457031 19.085937-42.539063 42.542969-42.539063zm0 0"
     id="path13"
     style="fill:#ffffff" />
  <path
     d="m245.238281 145.640625h-15.011719c0-6.898437-5.613281-12.511719-12.515624-12.511719v-15.011718c15.179687 0 27.527343 12.347656 27.527343 27.523437zm0 0"
     id="path14"
     style="fill:#ffffff" />
  <path
     d="m115.113281 365.855469h-15.015625c0-6.898438-5.613281-12.511719-12.511718-12.511719v-15.011719c15.179687 0 27.527343 12.347657 27.527343 27.523438zm0 0"
     id="path15"
     style="fill:#ffffff" />
  <path
     d="m375.367188 365.855469h-15.015626c0-6.898438-5.613281-12.511719-12.511718-12.511719v-15.011719c15.179687 0 27.527344 12.347657 27.527344 27.523438zm0 0"
     id="path16"
     style="fill:#ffffff" />
</svg>
