<?xml version="1.0" encoding="UTF-8" standalone="no"?>
<!-- Generator: Adobe Illustrator 16.0.0, SVG Export Plug-In . SVG Version: 6.00 Build 0)  -->

<svg
   version="1.1"
   id="Capa_1"
   x="0px"
   y="0px"
   width="221.342"
   height="75"
   viewBox="0 0 221.342 74.999999"
   xml:space="preserve"
   sodipodi:docname="spirals-of-vines.svg"
   inkscape:version="1.3.2 (091e20e, 2023-11-25, custom)"
   xmlns:inkscape="http://www.inkscape.org/namespaces/inkscape"
   xmlns:sodipodi="http://sodipodi.sourceforge.net/DTD/sodipodi-0.dtd"
   xmlns="http://www.w3.org/2000/svg"
   xmlns:svg="http://www.w3.org/2000/svg"><defs
   id="defs16" /><sodipodi:namedview
   id="namedview16"
   pagecolor="#ffffff"
   bordercolor="#000000"
   borderopacity="0.25"
   inkscape:showpageshadow="2"
   inkscape:pageopacity="0.0"
   inkscape:pagecheckerboard="0"
   inkscape:deskcolor="#d1d1d1"
   showgrid="false"
   inkscape:zoom="3.6369222"
   inkscape:cx="110.6705"
   inkscape:cy="-15.260156"
   inkscape:window-width="1920"
   inkscape:window-height="1009"
   inkscape:window-x="-8"
   inkscape:window-y="351"
   inkscape:window-maximized="1"
   inkscape:current-layer="g1" />
<g
   id="g1"
   transform="translate(0,-74)">
	<path
   d="m 214.137,90.288 c -4.896,-5.475 -11.771,-8.507 -19.339,-8.531 h -0.116 c -15.271,0 -24.033,9.28 -31.699,19.604 -1.815,2.244 -5.328,5.258 -9.853,2.701 -2.661,-1.498 -3.604,-4.89 -2.119,-7.551 1.108,-1.979 3.629,-2.694 5.614,-1.571 0.688,0.386 1.188,1.029 1.425,1.796 0.213,0.77 0.122,1.577 -0.28,2.268 -0.268,0.475 -0.706,0.779 -1.182,0.928 -0.2,-1.065 -1.193,-1.808 -2.271,-1.646 -1.114,0.164 -1.876,1.199 -1.705,2.313 0.012,0.113 0.128,0.167 0.152,0.268 -0.128,0.642 0.055,1.309 0.651,1.647 2.503,1.397 5.675,0.512 7.088,-1.982 0.804,-1.422 0.998,-3.075 0.56,-4.646 -0.42,-1.571 -1.442,-2.874 -2.886,-3.672 -3.495,-1.958 -7.916,-0.725 -9.864,2.762 -2.339,4.159 -0.865,9.453 3.3,11.798 1.639,0.916 3.312,1.37 4.981,1.37 0.548,0 1.084,-0.125 1.619,-0.217 -1.564,2.192 -3.123,4.388 -4.743,6.428 -3.587,4.53 -6.674,8.312 -9.676,11.21 -0.359,0.03 -0.694,0.115 -0.962,0.371 -6.254,5.846 -12.763,6.638 -18.304,2.229 -4.312,-3.446 -5.048,-9.755 -1.614,-14.078 2.649,-3.315 7.508,-3.878 10.833,-1.229 1.212,0.975 1.991,2.362 2.161,3.921 0.177,1.547 -0.262,3.075 -1.235,4.3 -0.652,0.846 -1.626,1.352 -2.68,1.546 0.134,-0.365 0.231,-0.755 0.231,-1.169 0,-1.826 -1.474,-3.324 -3.324,-3.324 -1.833,0 -3.312,1.498 -3.312,3.324 0,0.597 0.188,1.12 0.475,1.607 0.012,0.438 0.164,0.865 0.548,1.157 1.559,1.242 3.501,1.814 5.505,1.571 1.979,-0.226 3.763,-1.206 5.011,-2.765 1.48,-1.882 2.168,-4.22 1.9,-6.601 -0.268,-2.381 -1.438,-4.521 -3.301,-6.004 -4.664,-3.712 -11.502,-2.95 -15.21,1.726 -4.454,5.605 -3.56,13.765 1.948,18.313 -2.441,-1.176 -4.57,-2.887 -6.211,-5.176 -2.694,-3.757 -3.766,-8.507 -2.95,-13.043 0.636,-3.492 2.575,-6.527 5.495,-8.555 2.911,-2.022 6.424,-2.801 9.938,-2.171 0.828,0.125 1.656,-0.411 1.803,-1.257 0.14,-0.85 -0.408,-1.659 -1.255,-1.814 -4.292,-0.779 -8.658,0.173 -12.263,2.673 -2.007,1.403 -3.605,3.236 -4.808,5.307 v -5.687 c 6.366,-0.704 11.335,-6.053 11.335,-12.602 0,-3.404 -1.328,-6.604 -3.727,-9.009 -2.408,-2.408 -5.603,-3.729 -9.012,-3.729 -7.027,0 -12.739,5.718 -12.739,12.739 0,6.436 4.808,11.709 11.024,12.571 v 5.663 c -3.385,-5.788 -10.089,-9.191 -17.016,-7.919 -0.856,0.149 -1.422,0.959 -1.267,1.814 0.149,0.841 0.962,1.382 1.814,1.258 7.182,-1.297 14.124,3.51 15.427,10.72 0.816,4.549 -0.256,9.298 -2.944,13.055 -1.644,2.29 -3.784,4.001 -6.223,5.176 5.526,-4.548 6.418,-12.714 1.945,-18.319 -3.721,-4.67 -10.531,-5.444 -15.202,-1.726 -1.875,1.489 -3.047,3.629 -3.322,6.004 -0.268,2.375 0.399,4.713 1.9,6.595 2.563,3.228 7.292,3.769 10.525,1.199 0.38,-0.292 0.523,-0.712 0.557,-1.163 0.268,-0.487 0.454,-1.011 0.454,-1.596 0,-1.838 -1.477,-3.324 -3.316,-3.324 -1.827,0 -3.312,1.486 -3.312,3.324 0,0.402 0.107,0.792 0.231,1.164 -1.017,-0.178 -1.988,-0.677 -2.7,-1.547 -0.959,-1.225 -1.416,-2.746 -1.221,-4.306 0.192,-1.546 0.941,-2.94 2.177,-3.909 3.321,-2.654 8.178,-2.085 10.817,1.225 3.434,4.316 2.725,10.637 -1.617,14.084 -5.542,4.402 -12.032,3.623 -18.292,-2.241 -0.271,-0.243 -0.618,-0.329 -0.95,-0.353 -2.993,-2.917 -6.099,-6.698 -9.682,-11.223 -1.628,-2.037 -3.188,-4.235 -4.752,-6.427 0.536,0.097 1.072,0.216 1.623,0.216 1.656,0 3.333,-0.448 4.969,-1.37 4.165,-2.338 5.647,-7.633 3.309,-11.804 -1.958,-3.474 -6.391,-4.713 -9.864,-2.756 -1.428,0.798 -2.448,2.101 -2.886,3.672 -0.436,1.571 -0.244,3.225 0.563,4.64 0.673,1.208 1.781,2.083 3.13,2.457 1.328,0.377 2.731,0.204 3.946,-0.475 0.606,-0.338 0.768,-0.999 0.648,-1.635 0.031,-0.113 0.137,-0.161 0.162,-0.28 0.143,-1.114 -0.618,-2.144 -1.72,-2.313 -1.078,-0.162 -2.064,0.587 -2.256,1.653 -0.5,-0.162 -0.926,-0.475 -1.194,-0.928 -0.387,-0.697 -0.478,-1.504 -0.268,-2.274 0.207,-0.768 0.707,-1.41 1.416,-1.796 1.97,-1.105 4.521,-0.408 5.611,1.565 1.498,2.667 0.557,6.059 -2.119,7.557 -4.494,2.524 -7.968,-0.405 -9.789,-2.637 C 50.737,91.075 41.938,81.765 26.642,81.765 h -0.119 c -7.569,0.024 -14.434,3.057 -19.333,8.531 -5.401,6.046 -7.952,14.547 -6.997,23.331 0.709,6.6 3.964,12.519 9.146,16.684 4.458,3.593 9.883,5.48 15.506,5.48 0.195,0 0.387,-0.024 0.605,-0.024 0.031,0 0.058,0.036 0.095,0.036 0.073,0 0.131,0 0.198,-0.012 0.094,-0.012 0.152,-0.037 0.238,-0.049 0.536,-0.024 1.078,-0.024 1.623,-0.092 11.067,-1.199 19.092,-11.191 17.893,-22.268 -0.978,-9.027 -9.076,-15.579 -18.161,-14.596 -0.855,0.095 -1.474,0.861 -1.379,1.714 0.1,0.855 0.767,1.486 1.714,1.386 7.283,-0.816 13.911,4.509 14.708,11.825 0.612,5.553 -1.571,10.729 -5.331,14.272 1.546,-3.245 2.034,-7.173 1.172,-11.204 -0.715,-3.435 -2.737,-6.375 -5.672,-8.29 -2.95,-1.909 -6.455,-2.563 -9.889,-1.833 -2.837,0.603 -5.27,2.269 -6.841,4.701 -1.571,2.427 -2.107,5.312 -1.504,8.113 0.487,2.339 1.866,4.348 3.86,5.651 2.01,1.314 4.396,1.777 6.765,1.266 1.964,-0.426 3.647,-1.57 4.747,-3.257 0.865,-1.334 1.132,-2.893 1.047,-4.451 0,-0.049 0.037,-0.098 0.037,-0.159 0,-0.085 -0.037,-0.133 -0.049,-0.219 -0.027,-0.268 0.049,-0.523 -0.012,-0.791 -0.027,-0.11 -0.131,-0.146 -0.183,-0.256 -0.472,-1.206 -1.653,-2.07 -3.017,-2.095 -1.839,-0.024 -3.343,1.437 -3.368,3.275 -0.024,1.626 1.167,2.941 2.713,3.252 -0.643,0.828 -1.498,1.425 -2.533,1.656 -1.531,0.341 -3.102,0.036 -4.409,-0.815 -1.303,-0.859 -2.207,-2.162 -2.512,-3.679 -0.417,-2.009 -0.055,-4.056 1.066,-5.784 1.124,-1.727 2.85,-2.917 4.871,-3.35 2.619,-0.56 5.294,-0.061 7.539,1.397 2.238,1.459 3.772,3.706 4.333,6.317 0.855,4.05 0.195,7.983 -1.791,10.797 -1.656,2.326 -4.25,3.793 -7.444,4.342 -5.319,0.268 -10.467,-1.316 -14.66,-4.677 -4.54,-3.642 -7.383,-8.812 -7.998,-14.59 -0.855,-7.9 1.416,-15.519 6.223,-20.907 4.296,-4.808 10.349,-7.472 17.016,-7.489 h 0.109 c 13.643,0 21.824,8.488 28.969,18.057 0.015,0.015 0,0.034 0.015,0.052 0.049,0.055 0.11,0.097 0.131,0.155 1.291,1.726 2.555,3.474 3.797,5.224 0.329,0.463 0.661,0.886 0.983,1.343 -2.469,-0.475 -4.975,0.043 -7.301,1.589 -3.977,2.652 -5.063,8.022 -2.433,11.993 1.391,2.082 3.693,3.215 6.037,3.215 1.379,0 2.768,-0.39 4.004,-1.205 1.364,-0.908 2.286,-2.277 2.618,-3.885 0.316,-1.596 0,-3.228 -0.91,-4.58 -1.589,-2.362 -4.826,-3.008 -7.194,-1.437 -0.481,0.329 -0.63,0.864 -0.594,1.4 -0.049,0.146 -0.195,0.243 -0.207,0.402 -0.098,1.12 0.725,2.095 1.854,2.204 1.047,0.092 1.924,-0.664 2.119,-1.693 0.56,0.086 1.096,0.354 1.428,0.865 0.429,0.646 0.6,1.438 0.429,2.217 -0.149,0.779 -0.618,1.461 -1.278,1.899 -1.875,1.267 -4.458,0.755 -5.712,-1.139 -1.689,-2.527 -0.977,-5.974 1.559,-7.666 4.533,-2.99 8.388,0.097 10.269,2.21 0.009,0 0.021,0 0.021,0.006 0.049,0.062 0.098,0.135 0.131,0.184 8.823,11.118 16.368,20.715 29.423,18.729 5.164,-0.792 9.728,-3.604 12.821,-7.928 0.56,-0.792 0.983,-1.669 1.428,-2.521 v 4.774 c -0.237,0.183 -0.493,0.335 -0.673,0.603 l -3.873,5.736 c -0.338,0.48 -0.375,1.102 -0.101,1.613 0.268,0.506 0.798,0.828 1.379,0.828 h 1.315 c 0,0.073 -0.058,0.141 -0.058,0.231 0,1.961 1.604,3.562 3.568,3.562 1.964,0 3.559,-1.602 3.559,-3.562 0,-0.091 -0.049,-0.158 -0.049,-0.231 h 1.647 0.085 c 0.868,0 1.56,-0.706 1.56,-1.559 0,-0.487 -0.226,-0.92 -0.573,-1.205 l -3.665,-5.408 c -0.283,-0.401 -0.637,-0.693 -1.005,-0.913 v -4.562 c 0.441,0.895 0.91,1.79 1.489,2.618 3.093,4.317 7.647,7.143 12.812,7.922 12.976,1.997 20.593,-7.611 29.416,-18.729 0.062,-0.062 0.11,-0.129 0.135,-0.184 0,0 0.012,0 0.012,-0.006 1.906,-2.113 5.761,-5.212 10.278,-2.21 2.539,1.692 3.246,5.139 1.559,7.666 -1.254,1.894 -3.812,2.394 -5.718,1.139 -0.663,-0.438 -1.12,-1.108 -1.272,-1.899 -0.158,-0.779 0,-1.571 0.433,-2.217 0.311,-0.463 0.773,-0.779 1.315,-0.889 0.055,-0.013 0.079,0.023 0.128,0.023 0.183,1.012 1.071,1.767 2.119,1.693 1.126,-0.098 1.948,-1.084 1.856,-2.204 -0.012,-0.159 -0.158,-0.269 -0.213,-0.414 0.043,-0.536 -0.109,-1.06 -0.591,-1.389 -1.163,-0.773 -2.539,-1.041 -3.896,-0.773 -1.37,0.274 -2.527,1.065 -3.295,2.21 -0.907,1.353 -1.211,2.979 -0.907,4.567 0.329,1.596 1.242,2.983 2.606,3.885 1.23,0.816 2.631,1.206 4.019,1.206 2.345,0 4.646,-1.133 6.035,-3.215 2.643,-3.977 1.553,-9.354 -2.437,-11.999 -2.332,-1.547 -4.822,-2.064 -7.288,-1.593 0.329,-0.459 0.651,-0.876 0.974,-1.339 1.255,-1.763 2.533,-3.516 3.824,-5.255 0.037,-0.045 0.073,-0.076 0.122,-0.119 0.006,-0.012 0,-0.024 0.012,-0.04 7.149,-9.575 15.327,-18.07 28.973,-18.07 h 0.098 c 6.686,0.019 12.726,2.683 17.019,7.496 4.816,5.389 7.094,13.006 6.224,20.907 -0.627,5.767 -3.471,10.954 -7.983,14.596 -4.189,3.36 -9.353,4.944 -14.668,4.677 -3.216,-0.549 -5.797,-2.016 -7.447,-4.354 -1.985,-2.801 -2.643,-6.734 -1.778,-10.79 0.548,-2.612 2.095,-4.859 4.329,-6.317 2.235,-1.458 4.914,-1.958 7.539,-1.397 2.009,0.426 3.744,1.61 4.853,3.337 1.127,1.724 1.504,3.781 1.072,5.791 -0.317,1.517 -1.206,2.831 -2.509,3.678 -1.315,0.853 -2.887,1.151 -4.409,0.815 -1.035,-0.219 -1.912,-0.828 -2.533,-1.662 1.547,-0.305 2.729,-1.607 2.716,-3.245 -0.024,-1.839 -1.528,-3.301 -3.367,-3.276 -1.395,0.019 -2.545,0.877 -3.02,2.083 -0.056,0.109 -0.159,0.146 -0.184,0.268 -0.061,0.256 0.019,0.512 -0.012,0.779 -0.012,0.085 -0.049,0.134 -0.049,0.22 0,0.061 0.037,0.109 0.037,0.158 -0.086,1.559 0.194,3.117 1.059,4.457 1.097,1.681 2.777,2.825 4.738,3.252 2.35,0.493 4.755,0.049 6.752,-1.267 2.004,-1.304 3.38,-3.312 3.867,-5.639 0.608,-2.825 0.066,-5.724 -1.51,-8.145 -1.571,-2.42 -3.995,-4.086 -6.832,-4.683 -3.435,-0.73 -6.942,-0.076 -9.877,1.833 -2.947,1.912 -4.957,4.851 -5.682,8.29 -0.858,4.031 -0.383,7.983 1.188,11.229 -0.603,-0.548 -1.181,-1.096 -1.698,-1.741 -2.856,-3.556 -4.159,-8.014 -3.672,-12.556 0.81,-7.316 7.429,-12.656 14.724,-11.825 0.913,0.101 1.632,-0.524 1.705,-1.386 0.109,-0.853 -0.524,-1.619 -1.383,-1.714 -9.066,-1.023 -17.184,5.562 -18.151,14.59 -0.591,5.364 0.943,10.638 4.317,14.839 3.385,4.201 8.189,6.845 13.566,7.423 0.535,0.062 1.09,0.062 1.626,0.085 0.091,0.019 0.14,0.043 0.237,0.055 0.066,0.013 0.134,0.013 0.194,0.013 0.037,0 0.067,-0.024 0.098,-0.036 0.195,0.012 0.39,0.036 0.603,0.036 5.633,0 11.059,-1.906 15.516,-5.48 5.182,-4.165 8.439,-10.096 9.146,-16.69 0.944,-8.756 -1.608,-17.257 -7.009,-23.302 z M 112.189,96.952 V 79.263 c 1.327,1.346 2.594,4.463 2.594,8.859 0,4.321 -1.272,7.451 -2.594,8.83 z m -3.117,-17.19 v 16.736 c -1.19,-1.517 -2.265,-4.36 -2.265,-8.37 0,-4.01 1.074,-6.853 2.265,-8.366 z m 11.347,8.366 c 0,3.164 -1.559,5.949 -3.922,7.706 0.88,-2.113 1.403,-4.743 1.403,-7.706 0,-2.962 -0.529,-5.593 -1.403,-7.712 2.363,1.751 3.922,4.546 3.922,7.712 z m -19.248,0 c 0,-3.16 1.559,-5.939 3.909,-7.693 -0.874,2.113 -1.397,4.743 -1.397,7.693 0,2.957 0.524,5.587 1.41,7.7 -2.364,-1.75 -3.922,-4.536 -3.922,-7.7 z"
   id="path1"
   sodipodi:nodetypes="ccsccccccccccccccccsccccccccccsssccccsccccccccccccscssccccccccccccccsssccccccccccscccccccccccccccccsccccsssccccccccccccccccccscccccccccccccccccccscccccccscccccccccccccccccccccccscsssccssccccccccccccccccccccccccscccccccscccccccccccccccscccsccccccccccccccccccccscscccccscccscscscsscscs"
   style="fill:#ffffff" />
</g>
<g
   id="g2">
</g>
<g
   id="g3">
</g>
<g
   id="g4">
</g>
<g
   id="g5">
</g>
<g
   id="g6">
</g>
<g
   id="g7">
</g>
<g
   id="g8">
</g>
<g
   id="g9">
</g>
<g
   id="g10">
</g>
<g
   id="g11">
</g>
<g
   id="g12">
</g>
<g
   id="g13">
</g>
<g
   id="g14">
</g>
<g
   id="g15">
</g>
<g
   id="g16">
</g>
</svg>
