<?xml version="1.0" encoding="UTF-8" standalone="no"?>
<svg
   id="Layer_3"
   data-name="Layer 3"
   viewBox="0 0 64 64"
   width="512"
   height="512"
   version="1.1"
   sodipodi:docname="swimming-pool.svg"
   inkscape:version="1.3.2 (091e20e, 2023-11-25, custom)"
   xmlns:inkscape="http://www.inkscape.org/namespaces/inkscape"
   xmlns:sodipodi="http://sodipodi.sourceforge.net/DTD/sodipodi-0.dtd"
   xmlns="http://www.w3.org/2000/svg"
   xmlns:svg="http://www.w3.org/2000/svg">
  <defs
     id="defs1" />
  <sodipodi:namedview
     id="namedview1"
     pagecolor="#ffffff"
     bordercolor="#000000"
     borderopacity="0.25"
     inkscape:showpageshadow="2"
     inkscape:pageopacity="0.0"
     inkscape:pagecheckerboard="0"
     inkscape:deskcolor="#d1d1d1"
     inkscape:zoom="1.5722656"
     inkscape:cx="256"
     inkscape:cy="256"
     inkscape:window-width="1920"
     inkscape:window-height="1009"
     inkscape:window-x="-8"
     inkscape:window-y="351"
     inkscape:window-maximized="1"
     inkscape:current-layer="Layer_3" />
  <path
     d="M62.832,53.445a1.039,1.039,0,0,0-1.664,0l-.336.5a4.605,4.605,0,0,1-7.664,0l-.336-.5a1.039,1.039,0,0,0-1.664,0l-.336.5a4.605,4.605,0,0,1-7.664,0l-.336-.5a1.039,1.039,0,0,0-1.664,0l-.336.5A4.586,4.586,0,0,1,35,55.536V44H63V42H61V40h1a1,1,0,0,0,1-1V36a4.008,4.008,0,0,0-3-3.874V27a3,3,0,0,0-3-3H47a3,3,0,0,0-3,3v5.126A4.008,4.008,0,0,0,41,36v3a1,1,0,0,0,1,1h1v2H39V18a5,5,0,0,0,4-2,5,5,0,0,0,4,2h2a5.006,5.006,0,0,0,5-5,1,1,0,0,0-.485-.857L39,3.434V1H37V3.434L22.485,12.143A1,1,0,0,0,22,13a5.006,5.006,0,0,0,5,5h2a5,5,0,0,0,4-2,5,5,0,0,0,4,2V42H35V40a7,7,0,0,0-14,0v2H19V40A7,7,0,0,0,5,40v2H1v2H13v9.7l-.168-.252a1.039,1.039,0,0,0-1.664,0l-.336.5a4.605,4.605,0,0,1-7.664,0l-.336-.5a1.039,1.039,0,0,0-1.664,0l-.336.5a4.643,4.643,0,0,1-.546.673l1.428,1.4c.1-.1.193-.2.286-.311a6.605,6.605,0,0,0,10,0,6.605,6.605,0,0,0,10,0,6.605,6.605,0,0,0,10,0,6.605,6.605,0,0,0,10,0,6.605,6.605,0,0,0,10,0,6.605,6.605,0,0,0,10,0c.093.107.188.21.286.311l1.428-1.4a4.643,4.643,0,0,1-.546-.673ZM43.588,12l-2.9-5.221L49.39,12ZM32.412,12h-5.8l8.7-5.221ZM38,6.059,41.3,12H34.7ZM49,16H47a3,3,0,0,1-2.816-2h7.641A3,3,0,0,1,49,16ZM29,16H27a3,3,0,0,1-2.825-2h7.641A3,3,0,0,1,29,16Zm5.184-2h7.632A3,3,0,0,1,39,16H37A3,3,0,0,1,34.184,14ZM55,40v2H49V40Zm4,2H57V40h2ZM47,26H57a1,1,0,0,1,1,1v5H46V27A1,1,0,0,1,47,26ZM43,36a2,2,0,0,1,2-2H59a2,2,0,0,1,2,2v2H43Zm2,4h2v2H45ZM29,44v2H19V44Zm0,6H19V48H29Zm0-8H27V40a1,1,0,1,1,2,0ZM11,42V40a1,1,0,1,1,2,0v2Zm4,13.536V40a3,3,0,0,0-3-3h0a3,3,0,0,0-3,3v2H7V40a5,5,0,0,1,10,0V56A4.592,4.592,0,0,1,15,55.536Zm8.168-1.587-.336-.5a1.039,1.039,0,0,0-1.664,0l-.336.5A4.59,4.59,0,0,1,19,55.536V52H29v3.536a4.586,4.586,0,0,1-5.832-1.587Zm8-.5L31,53.7V40a3,3,0,0,0-3-3h0a3,3,0,0,0-3,3v2H23V40a5,5,0,0,1,10,0V53.7l-.168-.252A1.039,1.039,0,0,0,31.168,53.445Z"
     id="path1"
     style="fill:#ffffff" />
  <rect
     x="1"
     y="61"
     width="62"
     height="2"
     id="rect1"
     style="fill:#ffffff" />
</svg>
