<?xml version="1.0" encoding="UTF-8" standalone="no"?>
<!-- Generator: Adobe Illustrator 19.0.0, SVG Export Plug-In . SVG Version: 6.00 Build 0)  -->

<svg
   version="1.1"
   id="Capa_1"
   x="0px"
   y="0px"
   viewBox="0 0 512 512"
   style="enable-background:new 0 0 512 512;"
   xml:space="preserve"
   sodipodi:docname="telephone.svg"
   inkscape:version="1.3.2 (091e20e, 2023-11-25, custom)"
   xmlns:inkscape="http://www.inkscape.org/namespaces/inkscape"
   xmlns:sodipodi="http://sodipodi.sourceforge.net/DTD/sodipodi-0.dtd"
   xmlns="http://www.w3.org/2000/svg"
   xmlns:svg="http://www.w3.org/2000/svg"><defs
   id="defs21" /><sodipodi:namedview
   id="namedview21"
   pagecolor="#ffffff"
   bordercolor="#000000"
   borderopacity="0.25"
   inkscape:showpageshadow="2"
   inkscape:pageopacity="0.0"
   inkscape:pagecheckerboard="0"
   inkscape:deskcolor="#d1d1d1"
   inkscape:zoom="1.5722656"
   inkscape:cx="256"
   inkscape:cy="256"
   inkscape:window-width="1920"
   inkscape:window-height="1009"
   inkscape:window-x="-8"
   inkscape:window-y="351"
   inkscape:window-maximized="1"
   inkscape:current-layer="Capa_1" />
<g
   id="g2"
   style="fill:#3771c8;stroke:#3771c8;stroke-width:9.93638;stroke-dasharray:none;stroke-opacity:1;paint-order:normal"
   transform="matrix(0.97661956,0,0,1.0002334,6.3034083,-0.05974346)">
	<g
   id="g1"
   style="fill:#3771c8;stroke:#3771c8;stroke-width:9.93638;stroke-dasharray:none;stroke-opacity:1;paint-order:normal">
		<path
   d="M 492.381,104.546 C 472.735,77.513 438.331,53.113 395.505,35.843 352.91,18.667 303.454,9.169 256.245,9.101 209.032,8.983 159.515,18.383 116.859,35.426 73.959,52.567 39.472,76.861 19.755,103.83 0.817,129.733 -4.641,157.652 3.97,184.569 c 5.586,17.462 21.881,29.211 40.558,29.238 l 63.951,0.06 c 0.021,0 0.042,0 0.064,0 12.752,-10e-4 24.733,-5.583 32.875,-15.322 8.056,-9.635 11.393,-22.227 9.156,-34.549 -0.065,-0.361 -0.145,-0.721 -0.236,-1.078 l -3.365,-13.082 c 18.634,-8.891 60.854,-26.069 109.075,-25.796 48.186,0.247 90.377,17.415 109.034,26.31 l -3.419,13.008 c -0.097,0.368 -0.179,0.739 -0.249,1.112 -2.271,12.315 1.029,24.916 9.057,34.574 8.128,9.78 20.118,15.398 32.903,15.417 l 63.951,0.06 c 0.021,0 0.043,0 0.064,0 18.641,-10e-4 34.941,-11.696 40.57,-29.121 8.691,-26.911 3.305,-54.87 -15.578,-80.854 z m -13.501,71.46 c -1.515,4.688 -6.238,7.958 -11.502,7.958 -0.005,0 -0.012,0 -0.018,0 l -63.951,-0.06 c -3.684,-0.005 -7.125,-1.606 -9.441,-4.393 -1.259,-1.515 -3.224,-4.666 -2.581,-9.048 l 6.362,-24.203 c 1.743,-6.633 -1.146,-13.613 -7.067,-17.075 -2.467,-1.442 -61.27,-35.328 -134.478,-35.705 -0.407,-0.002 -0.802,-0.003 -1.208,-0.003 -72.737,0 -131.121,33.738 -133.584,35.182 -5.883,3.45 -8.767,10.38 -7.068,16.986 l 6.236,24.242 c 0.637,4.391 -1.34,7.542 -2.605,9.056 -2.319,2.774 -5.757,4.364 -9.441,4.364 -0.006,0 -0.012,0 -0.018,0 l -63.952,-0.06 c -5.263,-0.008 -9.988,-3.294 -11.49,-7.992 C 27.482,157.774 31.3,139.809 44.422,121.861 79.279,74.185 168.079,39.654 255.724,39.654 c 0.156,0 0.323,0 0.479,0 87.732,0.126 176.665,34.971 211.462,82.853 13.089,18.017 16.864,36.016 11.215,53.499 z"
   id="path1"
   style="fill:#3771c8;stroke:#3771c8;stroke-width:9.93638;stroke-dasharray:none;stroke-opacity:1;paint-order:normal" />
	</g>
</g>
<g
   id="g4"
   style="fill:#3771c8;stroke:#3771c8;stroke-width:9.93638;stroke-dasharray:none;stroke-opacity:1;paint-order:normal"
   transform="matrix(0.97661956,0,0,1.0002334,6.3034083,-0.05974346)">
	<g
   id="g3"
   style="fill:#3771c8;stroke:#3771c8;stroke-width:9.93638;stroke-dasharray:none;stroke-opacity:1;paint-order:normal">
		<path
   d="m 400.595,279.807 -47.691,-50.075 c -2.885,-3.028 -6.882,-4.741 -11.063,-4.741 h -30.82 v -20.823 c 0,-8.438 -6.84,-15.278 -15.278,-15.278 -8.437,0 -15.278,6.84 -15.278,15.278 v 20.823 h -48.922 v -20.823 c 0,-8.438 -6.84,-15.278 -15.278,-15.278 -8.438,0 -15.278,6.84 -15.278,15.278 v 20.823 h -30.819 c -4.181,0 -8.18,1.714 -11.063,4.741 l -47.69,50.075 C 74.023,319.069 53.43,370.551 53.43,424.769 v 62.853 c 0,8.438 6.84,15.278 15.278,15.278 H 443.3 c 8.438,0 15.278,-6.84 15.278,-15.278 V 424.769 C 458.58,370.55 437.987,319.069 400.595,279.807 Z M 83.986,472.344 v -47.575 c 0,-46.337 17.599,-90.334 49.557,-123.89 l 43.174,-45.334 h 158.576 l 43.174,45.334 c 31.956,33.554 49.555,77.553 49.555,123.89 v 47.575 z"
   id="path2"
   style="fill:#3771c8;stroke:#3771c8;stroke-width:9.93638;stroke-dasharray:none;stroke-opacity:1;paint-order:normal" />
	</g>
</g>
<g
   id="g6"
   style="fill:#3771c8;stroke:#3771c8;stroke-width:9.93638;stroke-dasharray:none;stroke-opacity:1;paint-order:normal"
   transform="matrix(0.97661956,0,0,1.0002334,6.3034083,-0.05974346)">
	<g
   id="g5"
   style="fill:#3771c8;stroke:#3771c8;stroke-width:9.93638;stroke-dasharray:none;stroke-opacity:1;paint-order:normal">
		<path
   d="m 256.005,287.135 c -44.09,0 -79.959,35.87 -79.959,79.959 0,44.09 35.87,79.96 79.959,79.96 44.089,0 79.959,-35.87 79.959,-79.96 0,-44.09 -35.869,-79.959 -79.959,-79.959 z m 0,129.362 c -27.242,0 -49.403,-22.162 -49.403,-49.404 0,-27.241 22.162,-49.403 49.403,-49.403 27.241,0 49.403,22.162 49.403,49.403 0,27.242 -22.162,49.404 -49.403,49.404 z"
   id="path4"
   style="fill:#3771c8;stroke:#3771c8;stroke-width:9.93638;stroke-dasharray:none;stroke-opacity:1;paint-order:normal" />
	</g>
</g>
<g
   id="g7"
   style="fill:#3771c8;stroke:#3771c8;stroke-width:9.93638;stroke-dasharray:none;stroke-opacity:1;paint-order:normal"
   transform="matrix(0.97661956,0,0,1.0002334,6.3034083,-0.05974346)">
</g>
<g
   id="g8"
   style="fill:#3771c8;stroke:#3771c8;stroke-width:9.93638;stroke-dasharray:none;stroke-opacity:1;paint-order:normal"
   transform="matrix(0.97661956,0,0,1.0002334,6.3034083,-0.05974346)">
</g>
<g
   id="g9"
   style="fill:#3771c8;stroke:#3771c8;stroke-width:9.93638;stroke-dasharray:none;stroke-opacity:1;paint-order:normal"
   transform="matrix(0.97661956,0,0,1.0002334,6.3034083,-0.05974346)">
</g>
<g
   id="g10"
   style="fill:#3771c8;stroke:#3771c8;stroke-width:9.93638;stroke-dasharray:none;stroke-opacity:1;paint-order:normal"
   transform="matrix(0.97661956,0,0,1.0002334,6.3034083,-0.05974346)">
</g>
<g
   id="g11"
   style="fill:#3771c8;stroke:#3771c8;stroke-width:9.93638;stroke-dasharray:none;stroke-opacity:1;paint-order:normal"
   transform="matrix(0.97661956,0,0,1.0002334,6.3034083,-0.05974346)">
</g>
<g
   id="g12"
   style="fill:#3771c8;stroke:#3771c8;stroke-width:9.93638;stroke-dasharray:none;stroke-opacity:1;paint-order:normal"
   transform="matrix(0.97661956,0,0,1.0002334,6.3034083,-0.05974346)">
</g>
<g
   id="g13"
   style="fill:#3771c8;stroke:#3771c8;stroke-width:9.93638;stroke-dasharray:none;stroke-opacity:1;paint-order:normal"
   transform="matrix(0.97661956,0,0,1.0002334,6.3034083,-0.05974346)">
</g>
<g
   id="g14"
   style="fill:#3771c8;stroke:#3771c8;stroke-width:9.93638;stroke-dasharray:none;stroke-opacity:1;paint-order:normal"
   transform="matrix(0.97661956,0,0,1.0002334,6.3034083,-0.05974346)">
</g>
<g
   id="g15"
   style="fill:#3771c8;stroke:#3771c8;stroke-width:9.93638;stroke-dasharray:none;stroke-opacity:1;paint-order:normal"
   transform="matrix(0.97661956,0,0,1.0002334,6.3034083,-0.05974346)">
</g>
<g
   id="g16"
   style="fill:#3771c8;stroke:#3771c8;stroke-width:9.93638;stroke-dasharray:none;stroke-opacity:1;paint-order:normal"
   transform="matrix(0.97661956,0,0,1.0002334,6.3034083,-0.05974346)">
</g>
<g
   id="g17"
   style="fill:#3771c8;stroke:#3771c8;stroke-width:9.93638;stroke-dasharray:none;stroke-opacity:1;paint-order:normal"
   inkscape:label="g17"
   transform="matrix(0.97661956,0,0,1.0002334,6.3034083,-0.05974346)">
</g>
<g
   id="g18"
   style="fill:#3771c8;stroke:#3771c8;stroke-width:9.93638;stroke-dasharray:none;stroke-opacity:1;paint-order:normal"
   transform="matrix(0.97661956,0,0,1.0002334,6.3034083,-0.05974346)">
</g>
<g
   id="g19"
   style="fill:#3771c8;stroke:#3771c8;stroke-width:9.93638;stroke-dasharray:none;stroke-opacity:1;paint-order:normal"
   transform="matrix(0.97661956,0,0,1.0002334,6.3034083,-0.05974346)">
</g>
<g
   id="g20"
   style="fill:#3771c8;stroke:#3771c8;stroke-width:9.93638;stroke-dasharray:none;stroke-opacity:1;paint-order:normal"
   transform="matrix(0.97661956,0,0,1.0002334,6.3034083,-0.05974346)">
</g>
<g
   id="g21"
   style="fill:#3771c8;stroke:#3771c8;stroke-width:9.93638;stroke-dasharray:none;stroke-opacity:1;paint-order:normal"
   transform="matrix(0.97661956,0,0,1.0002334,6.3034083,-0.05974346)">
</g>
</svg>
